<svg width="158" height="134" viewBox="0 0 158 134" fill="none" xmlns="http://www.w3.org/2000/svg">
<g clip-path="url(#clip0_480_2371)">
<path d="M0 128.513H7.44704V106.431H12.2259V128.533H76.3422V79.2712H56.5697C56.5697 79.8288 56.5697 80.3664 56.5697 80.904C56.5697 86.3399 56.5298 91.7759 56.5896 97.2317C56.5896 98.4464 56.3705 98.9442 54.9966 98.9242C47.8682 98.8645 40.7397 98.8645 33.5914 98.9242C32.317 98.9242 32.0581 98.4862 32.078 97.3313C32.1378 91.8953 32.098 86.4594 32.098 81.0035C32.098 80.446 32.098 79.9084 32.098 79.2712H12.2856V101.314H7.48687C7.48687 100.836 7.48687 100.358 7.48687 99.8601C7.48687 91.9551 7.52669 84.0501 7.44704 76.1451C7.44704 74.6517 7.94484 74.3928 9.29885 74.3928C19.5136 74.4326 29.7284 74.4127 39.9432 74.4127H41.9942C41.9942 73.6361 41.9942 72.999 41.9942 72.3419C41.9942 55.6159 41.9942 38.8899 41.9543 22.144C41.9543 20.6307 42.2729 20.1528 43.8858 20.1528C62.3043 20.2126 80.7427 20.1927 99.1612 20.1927C99.8183 20.1927 100.475 20.1927 101.232 20.1927C102.248 13.1837 105.573 7.70791 111.487 3.92465C116.166 0.937867 121.343 -0.137375 126.799 0.818396C138.228 2.78967 145.755 12.6461 145.197 23.3786C144.6 35.3456 135.6 44.0869 123.792 44.6245C112.761 45.1423 102.984 36.6996 101.272 25.0711H91.1566C91.1367 25.5689 91.077 26.1065 91.077 26.6441C91.077 32.1398 91.0371 37.6355 91.0969 43.1112C91.0969 44.306 90.7982 44.7042 89.5637 44.6843C82.4352 44.6245 75.3067 44.6245 68.1584 44.6843C66.9637 44.6843 66.5654 44.3856 66.5853 43.1311C66.6451 37.6952 66.6053 32.2593 66.6053 26.8034C66.6053 26.2459 66.6053 25.6883 66.6053 25.0312H46.8527V74.2733H110.909V49.722H115.688V74.3729H117.659C127.874 74.3729 138.089 74.4127 148.304 74.3331C149.917 74.3331 150.235 74.811 150.235 76.3243C150.175 93.0104 150.195 109.677 150.195 126.363V128.513H157.563V133.312H155.512C104.398 133.312 53.2842 133.312 2.1704 133.312C1.45357 133.312 0.73674 133.352 0.0199119 133.392C0.0199119 131.759 0.0199119 130.106 0.0199119 128.473L0 128.513ZM125.544 79.2513C125.544 79.988 125.544 80.5456 125.544 81.1031C125.544 86.539 125.525 91.975 125.564 97.4308C125.564 98.5658 125.266 98.9242 124.091 98.9242C116.903 98.8844 109.714 98.8844 102.546 98.9242C101.391 98.9242 101.053 98.6056 101.053 97.4508C101.113 91.9551 101.073 86.4594 101.073 80.9836C101.073 80.446 101.073 79.8885 101.073 79.3309H81.2803V128.533H145.317V79.2911H125.525L125.544 79.2513ZM105.852 22.4626C105.772 32.0601 113.398 39.8258 122.976 39.9054C132.673 39.9851 140.439 32.3588 140.498 22.7016C140.558 13.0841 132.972 5.35831 123.374 5.25875C113.697 5.15919 105.931 12.7655 105.852 22.4427V22.4626ZM71.4638 25.0512V39.8059H76.3621V25.0512H71.4638ZM86.1985 39.8457V25.091H81.3002V39.8457H86.1985ZM41.8548 94.0458V79.2911H36.9565V94.0458H41.8548ZM51.7112 94.0458V79.2911H46.8128V94.0458H51.7112ZM110.849 94.0458V79.2911H105.951V94.0458H110.849ZM115.788 79.2513V94.006H120.686V79.2513H115.788Z" fill="#202020"/>
<path d="M71.3642 59.5584C71.3642 62.3859 71.3243 65.1934 71.3642 68.0209C71.3642 69.0364 71.0456 69.3351 70.05 69.3351C64.4149 69.2953 58.7599 69.2953 53.1249 69.3351C52.1094 69.3351 51.7908 69.0165 51.8107 68.0209C51.8505 62.3859 51.8505 56.7309 51.8107 51.0958C51.8107 50.0803 52.1293 49.7617 53.1249 49.7816C58.7599 49.8215 64.4149 49.8215 70.05 49.7816C71.0655 49.7816 71.3841 50.1002 71.3642 51.0958C71.3044 53.9233 71.3642 56.7309 71.3642 59.5584ZM56.6692 54.6202V60.6336C58.6803 58.6623 60.7113 56.6512 62.7821 54.6202H56.6692ZM66.5455 58.4433C64.5145 60.4743 62.4835 62.5053 60.552 64.4368H66.5455V58.4433Z" fill="#202020"/>
<path d="M27.1001 123.515C24.2726 123.515 21.4651 123.475 18.6376 123.515C17.6221 123.515 17.3035 123.217 17.3234 122.201C17.3632 116.566 17.3632 110.911 17.3234 105.276C17.3234 104.26 17.642 103.942 18.6376 103.962C24.2726 104.002 29.9276 104.002 35.5627 103.962C36.5583 103.962 36.8968 104.26 36.8769 105.276C36.837 110.911 36.837 116.566 36.8769 122.201C36.8769 123.197 36.5782 123.535 35.5627 123.515C32.7352 123.456 29.9276 123.515 27.1001 123.515ZM22.162 114.595C24.0735 112.683 26.1045 110.652 27.9165 108.84H22.162V114.595ZM31.9984 118.677V112.743C30.0471 114.694 28.0161 116.705 26.0448 118.677H31.9984Z" fill="#202020"/>
<path d="M93.5261 64.2976H88.7871V59.7378H93.5261V64.2976Z" fill="#202020"/>
<path d="M103.383 64.2976H98.6436V59.7378H103.383V64.2976Z" fill="#202020"/>
<path d="M59.0387 118.498H54.2798V113.938H59.0387V118.498Z" fill="#202020"/>
<path d="M64.0964 118.458V113.958H68.8753V118.458H64.0964Z" fill="#202020"/>
<path d="M96.0747 123.515C93.2472 123.515 90.4397 123.475 87.6122 123.515C86.5967 123.535 86.2781 123.197 86.298 122.201C86.3378 116.566 86.3378 110.911 86.298 105.276C86.298 104.26 86.6166 103.942 87.6122 103.962C93.2472 104.002 98.9022 104.002 104.537 103.962C105.533 103.962 105.871 104.28 105.851 105.276C105.812 110.911 105.812 116.566 105.851 122.201C105.851 123.197 105.533 123.535 104.537 123.515C101.71 123.456 98.9022 123.515 96.0747 123.515ZM91.1167 114.714C93.0879 112.743 95.119 110.732 96.9907 108.88H91.1167V114.714ZM100.973 118.677V112.703C99.0018 114.674 96.9708 116.705 94.9995 118.677H100.973Z" fill="#202020"/>
<path d="M127.974 118.498H123.294V113.918H127.974V118.498Z" fill="#202020"/>
<path d="M133.111 118.478V113.938H137.87V118.478H133.111Z" fill="#202020"/>
<path d="M120.626 30.4077C117.799 27.5802 114.872 24.6532 111.865 21.6465C112.861 20.7504 113.936 19.7747 115.091 18.7393C116.783 20.4916 118.615 22.3832 120.447 24.2947C124.19 20.5314 127.675 17.007 131.259 13.4229C132.454 14.6972 133.449 15.7725 134.346 16.7282C129.826 21.2482 125.226 25.828 120.646 30.4276L120.626 30.4077Z" fill="#202020"/>
</g>
<defs>
<clipPath id="clip0_480_2371">
<rect width="157.543" height="132.952" fill="white" transform="translate(0 0.5)"/>
</clipPath>
</defs>
</svg>
