<svg width="123" height="123" viewBox="0 0 123 123" fill="none" xmlns="http://www.w3.org/2000/svg">
<g clip-path="url(#clip0_480_2400)">
<path d="M0 118.874V116.226C1.43366 112.443 4.48017 111.726 8.14396 112.224C8.14396 111.586 8.14396 111.148 8.14396 110.71C8.14396 107.624 8.14396 104.558 8.14396 101.471C8.14396 100.117 8.64176 98.9424 9.79665 98.345C10.7524 97.8472 10.8122 97.23 10.8122 96.3339C10.8122 66.2471 10.8122 36.1602 10.8122 6.05344C10.8122 5.41626 10.8122 4.75917 10.9515 4.1419C11.6285 1.39406 14.1972 -0.318359 17.0047 0.0599664C19.6331 0.41838 21.5845 2.72816 21.6044 5.51582C21.6044 7.30789 21.6044 9.08005 21.6044 10.9717C22.1619 10.9717 22.5602 10.9717 22.9385 10.9717C28.0558 10.9717 33.1931 10.9518 38.3105 10.9916C39.2463 10.9916 39.6645 10.7925 39.9831 9.81679C41.0981 6.19283 44.4234 3.86314 48.2465 3.88305C51.97 3.88305 55.2555 6.27247 56.4104 9.81679C56.5298 10.1951 56.6493 10.5535 56.7688 10.9319H66.1672C66.2667 10.6332 66.3663 10.3743 66.4659 10.1155C67.7203 6.25256 70.8664 3.88305 74.7691 3.88305C78.6718 3.88305 81.8777 6.25256 83.0724 10.0956C83.2914 10.8124 83.6299 10.9916 84.3467 10.9916C89.6632 10.9717 94.9996 10.9916 100.316 10.9916C100.635 10.9916 100.933 10.9518 101.351 10.9119C101.351 10.3544 101.351 9.8367 101.351 9.3389C101.371 7.66631 101.212 5.95388 101.491 4.32111C101.969 1.55336 104.597 -0.198888 107.445 0.0997902C110.113 0.378557 112.144 2.72816 112.144 5.57556C112.144 20.5891 112.144 35.5828 112.144 50.5963C112.144 50.8751 112.184 51.1738 112.124 51.4326C111.925 52.3087 111.387 52.8265 110.471 52.8862C109.535 52.9459 108.938 52.468 108.639 51.6317C108.5 51.2335 108.56 50.7556 108.56 50.3176C108.56 35.6624 108.56 21.0272 108.56 6.37203C108.56 4.56005 107.942 3.64411 106.748 3.66402C105.553 3.66402 104.956 4.57996 104.956 6.41186C104.956 36.3394 104.956 66.267 104.956 96.2144V97.5485H108.56C108.56 96.991 108.56 96.533 108.56 96.0552C108.56 84.1678 108.56 72.2804 108.56 60.393C108.56 59.9947 108.5 59.5766 108.579 59.1983C108.759 58.2624 109.356 57.7248 110.332 57.7049C111.307 57.7049 111.905 58.2425 112.124 59.1584C112.203 59.5368 112.164 59.9549 112.164 60.3531C112.164 72.4795 112.164 84.6058 112.184 96.7322C112.184 97.1901 112.442 97.8273 112.801 98.0663C114.175 98.9623 114.852 100.117 114.832 101.75C114.812 104.796 114.832 107.823 114.832 110.87C114.832 111.288 114.832 111.706 114.832 112.204C115.887 112.204 116.763 112.204 117.639 112.204C120.188 112.244 122.319 113.976 122.876 116.485C123.414 118.834 122.139 121.403 119.909 122.478C119.571 122.638 119.212 122.817 118.874 122.996H94.6213C94.462 122.896 94.3027 122.777 94.1434 122.717C91.5349 121.642 90.1212 119.193 90.5991 116.604C91.0969 113.976 93.3469 112.224 96.2341 112.204C97.0306 112.204 97.8072 112.204 98.6833 112.204C98.6833 111.626 98.6833 111.188 98.6833 110.75C98.6833 107.664 98.6833 104.577 98.6833 101.511C98.6833 100.117 99.2408 98.9623 100.436 98.3251C101.232 97.907 101.351 97.3893 101.351 96.6127C101.351 79.369 101.351 62.1253 101.351 44.8617C101.351 44.5232 101.351 44.1847 101.351 43.8661C101.073 44.0254 100.973 44.2444 100.874 44.4436C99.5793 47.5697 97.8072 48.3463 94.6213 47.1914C93.1677 46.6737 91.7141 46.156 90.161 45.5984C90.161 46.2157 90.161 46.6737 90.161 47.1516C90.4398 55.4349 90.7384 63.6983 90.9774 71.9817C91.077 75.3866 88.6079 77.8358 85.2029 77.8358C78.2736 77.8358 71.3443 77.9353 64.4349 77.776C62.4437 77.7362 60.4923 77.7362 58.5011 77.776C51.6116 77.9353 44.742 77.8557 37.8525 77.8358C34.3082 77.8358 31.8789 75.4065 31.9586 71.8622C32.1179 65.9086 32.3767 59.9549 32.5559 53.9813C32.6356 51.2335 32.5559 48.4857 32.5559 45.6781C30.963 46.2555 29.2705 46.9126 27.5381 47.4901C25.2881 48.2268 23.277 47.291 22.3411 45.1206C22.1619 44.7024 21.9628 44.2643 21.7836 43.8263C21.7239 43.8462 21.6641 43.886 21.5845 43.9059C21.5845 44.344 21.5845 44.7821 21.5845 45.2201C21.5845 58.6208 21.5845 72.0414 21.5845 85.4421C21.5845 89.2453 21.5845 93.0485 21.6044 96.8516C21.6044 97.2698 21.8632 97.8472 22.2017 98.0663C23.5757 98.9424 24.2527 100.117 24.2527 101.75C24.2328 104.796 24.2527 107.823 24.2527 110.87C24.2527 111.288 24.2527 111.706 24.2527 112.204C25.308 112.204 26.1841 112.204 27.0602 112.204C29.609 112.244 31.7395 113.976 32.2971 116.485C32.8347 118.834 31.5603 121.403 29.3302 122.478C28.9917 122.638 28.6333 122.817 28.2948 122.996H4.08194C2.13057 122.219 0.756652 120.865 0 118.914V118.874ZM39.3658 26.5826C37.5538 26.5029 36.0206 27.0207 34.6467 27.9366C30.8833 30.4455 27.1598 32.9743 23.3965 35.4832C22.7991 35.8814 22.7195 36.2399 22.9982 36.877C23.8544 38.9479 24.6907 41.0187 25.4673 43.1095C25.8058 44.0055 26.224 44.1449 27.0802 43.7865C28.8523 43.0696 30.6643 42.4125 32.4763 41.8351C34.567 41.178 36.4786 42.5917 36.4985 44.7821C36.4985 46.2954 36.4387 47.8286 36.379 49.3419C36.1202 56.8487 35.8613 64.3753 35.6024 71.8821C35.5626 73.3357 36.3392 74.1322 37.7728 74.172C38.649 74.2118 39.5251 74.172 40.4211 74.172C46.3748 74.172 52.3483 74.172 58.302 74.172C60.0343 74.172 60.7711 73.3954 60.7512 71.6631C60.7512 71.0657 60.6914 70.4684 60.6715 69.871C60.3927 61.6673 60.0941 53.4835 59.8153 45.2799C59.7157 42.4325 61.7069 41.0386 64.4149 41.9944C66.1074 42.5918 67.8 43.1692 69.4726 43.8263C70.2093 44.125 70.5478 43.9258 70.8266 43.2289C71.643 41.0984 72.4793 38.9877 73.3554 36.897C73.6541 36.2 73.4948 35.8217 72.8775 35.4235C69.154 32.9544 65.4504 30.4256 61.7268 27.9565C60.3529 27.0406 58.8197 26.5229 56.9878 26.6025C57.0675 29.211 56.4502 31.5606 54.6581 33.4721C52.8461 35.4036 50.5961 36.3792 47.9279 36.3195C45.877 36.2797 44.0849 35.5828 42.5517 34.2885C40.1822 32.2973 39.2264 29.6888 39.3857 26.6025L39.3658 26.5826ZM64.4149 74.1919H65.4902C71.8022 74.1919 78.1342 74.1919 84.4463 74.1919C86.7959 74.1919 87.3932 73.495 87.3136 71.1653C86.995 62.5036 86.7162 53.8221 86.4574 45.1405C86.3777 42.4325 88.3689 41.0585 90.9177 41.9546C92.65 42.5519 94.3823 43.1692 96.0947 43.8263C96.7518 44.0851 97.1103 43.9856 97.389 43.2887C98.2253 41.0984 99.1413 38.928 99.9577 36.7177C100.077 36.3992 99.8979 35.7421 99.6391 35.5629C95.7562 32.8947 91.8535 30.2464 87.8911 27.6777C86.6167 26.8414 85.183 26.4233 83.6299 26.5826C83.152 31.919 82.2958 33.2531 77.736 35.7819C77.5568 35.8814 77.3577 36.0806 77.2979 36.2598C76.2227 39.0873 75.2072 41.9347 74.112 44.7621C73.0965 47.3507 71.0456 48.2268 68.4172 47.271C66.8442 46.7135 65.2911 46.1361 63.5388 45.5188C63.8375 55.1362 64.1362 64.5745 64.4149 74.1521V74.1919ZM17.9605 97.5286C17.9804 97.1304 18.0203 96.772 18.0203 96.4136C18.0203 90.0418 18.0203 83.6899 18.0203 77.3181C18.0203 53.5831 18.0203 29.8681 18.0203 6.13309C18.0203 4.52023 17.3831 3.64411 16.2481 3.62419C15.0932 3.60428 14.4162 4.50032 14.4162 6.07336C14.4162 6.153 14.4162 6.23265 14.4162 6.3123C14.4162 36.2797 14.4162 66.2471 14.4162 96.2344C14.4162 96.6525 14.4162 97.0906 14.4162 97.5286H17.9605ZM21.6641 32.2177C22.2217 31.8592 22.6597 31.5805 23.0779 31.3017C26.1642 29.2309 29.1709 27.0406 32.3568 25.129C33.9498 24.1733 35.8016 23.3768 37.6335 23.0781C40.0229 22.6998 42.492 22.8989 44.9212 22.8392C45.3792 22.8392 45.8372 22.8392 46.2951 22.8392C46.5341 18.8767 46.6934 18.6776 50.2178 17.0647C51.293 16.5868 52.1293 15.8501 52.6072 14.6753H21.6641V32.1778V32.2177ZM76.7205 22.8591C78.3732 22.8591 80.0059 22.8591 81.6387 22.8591C82.7936 22.8591 83.9684 22.8591 85.1034 22.9785C87.8911 23.2175 90.1212 24.691 92.3314 26.2242C95.2584 28.2353 98.2054 30.1866 101.272 32.2575V14.7151H83.1719C82.2958 17.5028 80.663 19.5537 77.9749 20.5294C76.8001 20.9475 76.3223 21.5051 76.7006 22.8591H76.7205ZM79.3488 15.0337C79.2692 14.8943 79.1896 14.7549 79.09 14.6156C71.8222 14.6156 64.5543 14.6156 57.2865 14.6554C56.9679 14.6554 56.49 15.0934 56.3506 15.4319C55.3749 17.8612 53.7621 19.6931 51.293 20.5493C50.0585 20.9674 49.7399 21.5648 50.0983 22.8392C50.6359 22.8392 51.1735 22.8392 51.7311 22.8392C54.2001 22.8989 56.709 22.7993 59.1383 23.1179C60.7312 23.337 62.2047 23.337 63.7977 23.1179C66.3464 22.7794 68.9748 22.8989 71.5633 22.8192C72.0213 22.8192 72.4793 22.8192 73.0368 22.8192C72.6186 19.6134 73.9926 17.901 76.82 16.9851C77.7758 16.6665 78.5126 15.6908 79.3488 14.9939V15.0337ZM11.7878 112.084H20.569V101.392H11.7878V112.084ZM102.347 112.084H111.128V101.392H102.347V112.084ZM16.2083 115.748C12.6839 115.748 9.15947 115.748 5.63506 115.748C4.42044 115.748 3.62396 116.505 3.60405 117.52C3.58414 118.536 4.38061 119.332 5.57533 119.352C12.664 119.372 19.7327 119.392 26.8213 119.332C27.3988 119.332 28.1554 118.894 28.4939 118.416C29.37 117.202 28.3545 115.768 26.6421 115.768C23.1575 115.748 19.6729 115.768 16.2083 115.768V115.748ZM106.768 119.372C110.292 119.372 113.816 119.372 117.341 119.372C118.535 119.372 119.352 118.595 119.352 117.58C119.352 116.564 118.555 115.828 117.361 115.768C117.082 115.768 116.803 115.768 116.524 115.768C111.526 115.768 106.529 115.768 101.511 115.768C99.7187 115.768 97.9067 115.748 96.1147 115.768C94.9399 115.788 94.1235 116.604 94.1633 117.62C94.2031 118.595 94.9598 119.292 96.0947 119.372C96.3735 119.372 96.6523 119.372 96.931 119.372C100.217 119.372 103.502 119.372 106.768 119.372ZM70.1894 10.8721H79.4484C78.6121 8.72164 76.7205 7.40745 74.6297 7.46719C72.5788 7.52692 70.727 8.92075 70.1695 10.8721H70.1894ZM43.5672 10.8522H52.8262C51.97 8.68181 50.0784 7.38754 47.9876 7.46719C45.9168 7.54683 44.1048 8.92075 43.5473 10.8522H43.5672ZM50.0187 32.1778C52.3683 31.461 53.7223 29.0318 53.1846 26.6224H50.0187V32.1778ZM46.2951 32.1778V26.5826H43.0694C42.7707 29.2707 43.9853 31.3814 46.2951 32.1778ZM76.601 26.5627C76.601 27.5583 76.601 28.4742 76.601 29.3703C76.601 30.2663 76.601 31.2221 76.601 32.2177C79.0502 31.2619 80.2449 29.0915 79.8466 26.5428H76.601V26.5627ZM69.7314 26.5826C69.4327 28.8924 70.1695 29.8681 72.8974 30.8238V26.5826H69.7314Z" fill="#202020"/>
<path d="M65.092 122.956C64.2159 122.398 63.5986 121.662 63.9968 120.567C64.3752 119.471 65.311 119.332 66.3464 119.352C71.0257 119.372 75.705 119.352 80.3843 119.352C82.2958 119.352 82.7937 118.854 82.7937 116.923C82.7937 112.482 82.7937 108.042 82.7937 103.602C82.7937 101.73 82.3357 101.272 80.464 101.272C67.8199 101.272 55.1759 101.272 42.5318 101.272C40.6402 101.272 40.2021 101.71 40.2021 103.602C40.2021 108.042 40.2021 112.482 40.2021 116.923C40.2021 118.834 40.6999 119.352 42.6115 119.352C47.2908 119.352 51.9701 119.352 56.6493 119.352C57.6848 119.352 58.6206 119.471 58.9989 120.567C59.3773 121.662 58.76 122.398 57.9038 122.956H40.6203C37.5538 121.781 36.4189 119.511 36.5184 116.305C36.6578 112.024 36.5583 107.743 36.5583 103.462C36.5583 99.7587 38.7286 97.6082 42.4522 97.5883C43.0097 97.5883 43.5672 97.5883 44.2442 97.5883C44.2442 96.7122 44.1447 95.8559 44.2641 95.0595C44.4633 93.8648 45.0606 92.69 45.0606 91.5152C45.0606 90.3802 44.4234 89.2452 44.2641 88.0903C44.1447 87.2341 44.2442 86.3182 44.4234 85.4819C44.8814 83.3712 46.6536 81.9375 48.824 81.9375C57.2666 81.9176 65.7093 81.9176 74.1519 81.9375C76.3223 81.9375 78.1144 83.3712 78.5524 85.4819C78.9307 87.3735 79.0303 89.285 78.0944 91.097C77.9949 91.2961 77.8555 91.555 77.9152 91.7342C78.1741 92.69 78.5723 93.6059 78.7316 94.5617C78.871 95.4975 78.7715 96.4533 78.7715 97.5684C79.5082 97.5684 80.225 97.5684 80.9219 97.5684C84.2671 97.648 86.4574 99.8582 86.4574 103.203C86.4574 107.564 86.3579 111.925 86.4973 116.286C86.5968 119.491 85.4818 121.781 82.3954 122.936H65.1119L65.092 122.956ZM61.4879 85.5416C57.6051 85.5416 53.7422 85.5416 49.8594 85.5416C48.0673 85.5416 47.908 85.7009 47.908 87.5527C47.908 87.6323 47.908 87.712 47.908 87.7916C47.908 89.6235 48.0673 89.8027 49.8793 89.8027C55.8728 89.8027 61.8663 89.8027 67.8597 89.8027C69.7713 89.8027 71.7027 89.8027 73.6143 89.8027C74.6099 89.8027 75.1276 89.4045 75.0877 88.389C75.0877 88.0704 75.0877 87.7518 75.0877 87.4332C75.0877 85.7606 74.8886 85.5615 73.2359 85.5615C69.3133 85.5615 65.4106 85.5615 61.4879 85.5615V85.5416ZM61.4879 97.5883C65.1716 97.5883 68.8354 97.5883 72.5191 97.5883C75.1475 97.5883 75.1475 97.5684 75.0877 94.9002C75.0678 93.8448 74.6696 93.4068 73.5744 93.4068C65.5101 93.4267 57.4259 93.4267 49.3616 93.4068C48.3461 93.4068 47.8682 93.805 47.8881 94.8006C47.8881 95.1989 47.8881 95.5971 47.8881 95.9953C47.908 97.3892 48.0872 97.5684 49.501 97.5684C53.5033 97.5684 57.4856 97.5684 61.4879 97.5684V97.5883Z" fill="#202020"/>
</g>
<defs>
<clipPath id="clip0_480_2400">
<rect width="122.996" height="122.956" fill="white"/>
</clipPath>
</defs>
</svg>
