<svg width="135" height="135" viewBox="0 0 135 135" fill="none" xmlns="http://www.w3.org/2000/svg">
<g clip-path="url(#clip0_480_2387)">
<path d="M38.2307 130.343V134.843C37.7728 134.863 37.3148 134.903 36.8767 134.903C29.9872 134.903 23.1176 134.903 16.2281 134.903C7.8651 134.883 1.4933 129.566 0.218941 121.343C-0.159385 118.953 0.0596462 116.484 0.0596462 114.055C0.0596462 110.829 -0.0996489 107.623 0.856122 104.457C3.40484 96.0148 11.1705 90.0213 19.9516 89.9417C26.0845 89.8819 32.2173 89.7625 38.3502 90.0213C40.6998 90.1209 42.014 89.5235 43.5074 87.7315C47.3504 83.1517 52.4876 81.0012 58.4811 80.9415C64.4348 80.9017 70.3685 80.8818 76.3222 80.9415C83.1719 81.0012 88.7074 83.8088 92.8092 89.3244C93.3269 90.0213 93.7849 90.2404 94.661 90.101C95.8955 89.9218 97.1699 89.9218 98.4443 89.9218C103.741 89.9218 109.017 89.9218 114.314 89.9218C126.042 89.9417 134.903 98.8224 134.923 110.531C134.923 113.517 134.923 116.524 134.923 119.511C134.863 127.635 128.173 134.644 120.029 134.823C112.502 135.002 104.955 134.883 97.4088 134.883C97.2296 134.883 97.0504 134.843 96.8115 134.803V130.442H116.942V105.732H121.403V129.984C125.285 129.706 129.646 125.942 130.044 121.661C130.482 116.763 130.682 111.685 129.905 106.867C128.75 99.5989 122.597 94.7803 115.091 94.5214C108.958 94.3223 102.825 94.4816 96.692 94.4816C96.4133 94.4816 96.1345 94.5612 95.7562 94.621C95.8159 94.9993 95.8756 95.3378 95.9155 95.6962C96.1743 97.5878 96.6522 99.4795 96.6721 101.371C96.7717 108.719 96.7119 116.066 96.7119 123.414C96.7119 129.905 92.0924 134.704 85.621 134.903C83.3909 134.962 81.1408 134.903 78.8311 134.903V99.0016H83.2117V130.223C88.7472 131.1 92.2318 128.153 92.2318 122.776C92.2318 115.668 92.2517 108.539 92.2318 101.431C92.1919 93.705 87.1343 87.4925 79.6275 85.8398C78.851 85.6606 78.0545 85.5412 77.258 85.5412C70.5676 85.5412 63.8573 85.3022 57.1868 85.6805C49.1026 86.1385 43.0494 92.6298 42.8503 100.754C42.6711 108.42 42.7507 116.106 42.8105 123.792C42.8503 127.575 45.8172 130.363 49.6004 130.403C50.2575 130.403 50.9146 130.403 51.731 130.403V99.0414H56.1514V134.883C50.7951 134.883 45.1601 135.978 40.9985 131.02C39.2861 128.989 38.3104 126.639 38.3104 123.971C38.3104 116.205 38.2506 108.42 38.3502 100.654C38.3701 98.683 38.8679 96.7117 39.1666 94.6011C38.6688 94.5612 38.0913 94.4816 37.494 94.4816C31.9784 94.4816 26.4429 94.4617 20.9273 94.4816C11.3895 94.5214 4.57964 101.331 4.59956 110.889C4.59956 114.393 4.5 117.918 4.91815 121.402C5.41594 125.703 9.13947 129.248 13.5798 130.084V105.772H18.0003V130.363H38.2705L38.2307 130.343Z" fill="#202020"/>
<path d="M58.2225 18.5975C53.5432 20.5489 48.8838 22.5002 43.8859 24.591C41.6359 22.3011 39.0872 19.6927 36.5185 17.124C34.5273 15.1129 33.7109 15.1129 31.7397 17.0842C29.0317 19.7922 26.3037 22.5002 23.5957 25.2282C21.943 26.8809 21.943 27.9163 23.6355 29.5889C26.2838 32.2371 28.9321 34.8655 31.441 37.3744C30.0073 40.5404 28.5737 43.5272 27.2794 46.5538C26.7219 47.868 26.3236 49.2817 26.025 50.6955C25.8258 51.5915 25.4077 51.7707 24.5913 51.7707C21.2262 51.7309 17.8412 51.7508 14.4761 51.7707C12.0269 51.7707 11.3101 52.5075 11.3101 54.9566C11.3101 58.8394 11.3101 62.7222 11.3101 66.6051C11.3101 68.6361 11.6088 69.0741 13.5004 69.8706V74.0322C10.3145 74.4703 6.92946 71.5432 6.84982 68.0984C6.75026 63.1802 6.75026 58.262 6.84982 53.3438C6.90955 50.0583 9.97598 47.2905 13.3809 47.2308C16.0093 47.1711 18.6177 47.2308 21.2461 47.191C21.6443 47.191 22.2616 46.8923 22.401 46.5538C23.5559 43.806 24.6311 41.0382 25.8059 38.0713C24.0139 36.3191 22.0625 34.4275 20.151 32.496C16.9651 29.2902 16.985 25.4074 20.151 22.2215C23.0581 19.2944 25.9652 16.3873 28.8923 13.4802C32.0981 10.2943 36.0805 10.2943 39.3261 13.4802C40.9987 15.1129 42.6713 16.7457 44.2842 18.4581C44.9014 19.1152 45.3395 19.0555 46.0762 18.717C48.3661 17.6816 50.6958 16.7059 53.0454 15.8098C53.802 15.5311 54.041 15.1926 54.0211 14.416C53.9812 11.8872 53.9812 9.35839 54.0211 6.82959C54.041 3.0065 56.9481 0.0794572 60.7712 0.0396335C65.2713 -0.000190317 69.7714 -0.000190317 74.2515 0.0396335C78.0746 0.0794572 80.9618 3.02642 80.9818 6.8495C80.9818 9.37831 81.0216 11.9071 80.9818 14.4359C80.9818 15.2324 81.2605 15.5311 81.9773 15.8098C84.3668 16.7258 86.7363 17.7413 89.066 18.7767C89.7231 19.0754 90.1213 19.0754 90.639 18.5378C92.3315 16.7855 94.0639 15.0731 95.7962 13.3607C98.9025 10.3142 102.925 10.3341 106.031 13.3806C109.038 16.3475 112.004 19.3143 114.971 22.321C117.998 25.3875 117.978 29.3101 114.932 32.4164C113 34.3876 111.009 36.2992 109.197 38.0912C110.352 41.0183 111.387 43.7462 112.542 46.4542C112.701 46.8126 113.339 47.1711 113.777 47.191C116.266 47.2507 118.735 47.2109 121.224 47.2308C125.326 47.2507 128.193 50.1379 128.193 54.2199C128.193 58.72 128.233 63.2001 128.193 67.7002C128.153 71.3242 125.166 74.2114 121.542 74.1318V69.8308C123.474 69.4126 123.772 67.9392 123.733 66.1471C123.653 62.4037 123.733 58.6602 123.713 54.9168C123.713 52.4875 122.976 51.7707 120.507 51.7508C117.182 51.7508 113.856 51.7309 110.531 51.7508C109.675 51.7508 109.217 51.5915 108.998 50.6357C107.903 46.0162 106.011 41.7152 103.343 37.5337C105.712 35.1841 108.082 32.8544 110.412 30.5247C113.458 27.4981 113.458 27.2592 110.451 24.2525C107.962 21.7635 105.493 19.2745 103.004 16.8054C101.411 15.2125 100.396 15.2125 98.8427 16.7656C96.3936 19.2148 93.9245 21.644 91.4952 24.1131C90.9576 24.6706 90.5594 24.8498 89.8425 24.3919C85.7805 21.8232 81.3601 20.071 76.5016 18.9758C76.5016 18.1395 76.5016 17.3231 76.5016 16.4868C76.5016 13.4403 76.5016 10.3938 76.5016 7.36721C76.5016 5.43575 75.6852 4.55963 73.8135 4.55963C69.5922 4.51981 65.3908 4.51981 61.1694 4.55963C59.3575 4.55963 58.5411 5.45567 58.5212 7.26765C58.5012 10.6328 58.5212 14.0178 58.5212 17.3829C58.5212 17.8807 58.5212 18.3984 58.5212 18.8962C58.4415 18.7966 58.3419 18.6772 58.2623 18.5776L58.2225 18.5975Z" fill="#202020"/>
<path d="M99.0617 60.6713H94.5218C94.1833 51.9698 90.7982 44.7418 83.8888 39.3656C78.9507 35.5226 73.2758 33.7305 67.0434 33.8102C53.344 33.9894 40.7398 45.0006 40.3813 60.6713H36.0007C36.2795 50.3968 40.2021 41.8944 48.4058 35.7814C59.0189 27.8963 70.6076 26.8808 82.2959 33.0336C93.1678 38.7483 98.4245 48.2861 99.0617 60.6713Z" fill="#202020"/>
<path d="M67.5013 78.6914C60.0344 78.6914 54.021 72.7178 54.021 65.2509C54.021 57.8038 60.0145 51.7307 67.4217 51.6909C74.9086 51.651 80.9817 57.7242 80.9817 65.2309C80.9817 72.6979 74.9882 78.6715 67.5013 78.6715V78.6914ZM67.4416 74.1913C72.4196 74.1913 76.5015 70.1492 76.4816 65.211C76.4816 60.3326 72.4196 56.2905 67.5412 56.2507C62.6428 56.2109 58.4813 60.3525 58.5012 65.2509C58.5211 70.1293 62.5632 74.1515 67.4416 74.1714V74.1913Z" fill="#202020"/>
<path d="M29.2507 87.6917C21.7838 87.6917 15.7903 81.6983 15.7903 74.2313C15.7903 66.7245 21.8634 60.6713 29.3702 60.7111C36.7774 60.751 42.7709 66.8241 42.751 74.2711C42.751 81.7381 36.7376 87.6917 29.2507 87.6917ZM29.2706 83.1717C34.169 83.1717 38.2111 79.1894 38.2509 74.291C38.2907 69.3927 34.1889 65.2311 29.2507 65.251C24.3723 65.251 20.3103 69.2932 20.2705 74.1716C20.2306 79.1097 24.2927 83.1916 29.2706 83.1916V83.1717Z" fill="#202020"/>
<path d="M105.672 87.6916C98.1258 87.6916 92.1921 81.6583 92.2319 74.0719C92.2518 66.6846 98.3847 60.6513 105.812 60.6911C113.219 60.7309 119.212 66.8041 119.193 74.271C119.193 81.7181 113.159 87.6916 105.672 87.6717V87.6916ZM105.633 83.1716C110.611 83.1915 114.692 79.1693 114.692 74.2312C114.692 69.3727 110.67 65.3107 105.772 65.2509C100.874 65.1713 96.7121 69.313 96.7121 74.2312C96.7121 79.1096 100.754 83.1716 105.633 83.1915V83.1716Z" fill="#202020"/>
<path d="M58.5608 134.783V130.442H76.362V134.783H58.5608Z" fill="#202020"/>
</g>
<defs>
<clipPath id="clip0_480_2387">
<rect width="134.923" height="134.943" fill="white"/>
</clipPath>
</defs>
</svg>
