<svg width="121" height="122" viewBox="0 0 121 122" fill="none" xmlns="http://www.w3.org/2000/svg">
<g clip-path="url(#clip0_480_2358)">
<path d="M116.843 18.7191H52.4081C52.4081 19.2169 52.4081 19.6749 52.4081 20.1329C52.4081 24.8719 52.4081 29.6308 52.4081 34.3699C52.4081 35.9628 51.6514 36.8389 50.3572 36.819C49.1027 36.7991 48.3859 35.9429 48.3859 34.4296C48.3859 28.6352 48.3859 22.8409 48.3859 17.0465C48.3859 15.3739 49.0828 14.677 50.7554 14.677C73.3554 14.677 95.9355 14.677 118.535 14.677C120.268 14.677 120.945 15.3739 120.945 17.1262C120.945 51.0958 120.945 85.0655 120.945 119.035C120.945 120.787 120.268 121.484 118.516 121.484C95.9554 121.484 73.4151 121.484 50.855 121.484C49.2421 121.484 48.366 120.768 48.366 119.473C48.366 118.179 49.2222 117.462 50.835 117.462C72.3001 117.462 93.7651 117.462 115.21 117.462C115.708 117.462 116.206 117.462 116.803 117.462V18.7191H116.843Z" fill="#202020"/>
<path d="M43.7065 52.3108C41.8348 55.4369 40.0427 58.4237 38.2507 61.4105C36.9962 63.5012 36.359 63.7004 34.0294 62.5256C33.0138 65.8309 31.2616 68.758 32.1775 72.5811C33.8701 79.61 35.025 86.7782 36.4188 93.8868C36.6378 95.0417 36.4785 95.9775 35.5825 96.8536C33.0139 99.3426 30.5249 101.891 27.9961 104.4C26.642 105.734 25.7062 105.734 24.3522 104.36C21.8632 101.871 19.3941 99.3426 16.8653 96.8935C15.9693 96.0373 15.7303 95.1213 15.9494 93.9465C17.5025 86.0216 19.0556 78.0966 20.5888 70.1518C20.6685 69.7934 20.768 69.3553 20.6486 69.0367C19.9317 66.8663 19.1552 64.6959 18.3985 62.5256C15.9295 63.6804 15.4317 63.5212 14.0577 61.2512C12.2856 58.3042 10.5333 55.3573 8.68153 52.3108C7.16822 54.0829 5.69475 55.7356 4.30091 57.4679C4.04206 57.7666 4.02215 58.3241 4.02215 58.7622C4.02215 63.3818 4.02215 68.0013 4.02215 72.6209C4.02215 74.2337 3.30532 75.1099 2.01105 75.1099C0.716774 75.1099 -5.38239e-05 74.2537 -5.38239e-05 72.6408C-5.38239e-05 67.5633 -0.0398776 62.4857 0.0397699 57.4082C0.0397699 56.6914 0.398184 55.8551 0.856157 55.2776C2.44911 53.2665 4.18144 51.3948 5.7943 49.4036C6.09298 49.0452 6.03325 48.408 6.13281 47.8903C6.23237 47.293 6.19254 46.616 6.43149 46.0783C7.14831 44.4854 7.98461 42.9124 8.78109 41.3592C9.77668 39.3879 11.0311 39.149 12.6639 40.6026C16.5865 44.1469 20.4893 47.7111 24.4119 51.2753C24.9694 51.7731 25.527 52.2908 26.204 52.8882C26.6221 52.5298 27.0403 52.1913 27.4186 51.8329C31.4806 48.1293 35.5626 44.4257 39.6246 40.742C41.4167 39.1092 42.6512 39.3282 43.7464 41.4986C44.4433 42.8725 45.2198 44.2265 45.7973 45.6801C46.1159 46.4766 45.9964 47.4124 46.1557 48.2886C46.2154 48.6669 46.3548 49.085 46.5938 49.3638C48.2663 51.355 49.9987 53.2864 51.6315 55.3374C52.0894 55.9148 52.408 56.7511 52.408 57.4679C52.4678 62.5455 52.4478 67.623 52.4478 72.7005C52.4478 74.2935 51.6912 75.1497 50.377 75.1298C49.1226 75.1099 48.4256 74.2537 48.4256 72.7204C48.4256 68.0611 48.4256 63.4017 48.4256 58.7423C48.4256 58.2644 48.3261 57.687 48.0473 57.3485C46.6933 55.6958 45.2796 54.1028 43.7663 52.3307L43.7065 52.3108ZM26.1841 100.478C28.1753 98.4864 30.0271 96.6545 31.8191 94.7828C32.078 94.504 32.2771 93.9465 32.1975 93.5881C30.8235 86.3203 29.4098 79.0524 27.9562 71.7846C27.8965 71.5058 27.558 71.1275 27.2991 71.1076C26.4031 71.0279 25.4872 71.0678 24.5712 71.0678C23.0778 78.694 21.6243 86.141 20.1906 93.6279C20.1309 93.9664 20.2902 94.4841 20.5291 94.743C22.3411 96.6545 24.2128 98.5063 26.1841 100.478ZM11.5887 45.1425C10.2347 46.4766 10.4736 47.6912 11.4294 49.0054C12.2258 50.0806 12.8232 51.2753 13.5201 52.4302C14.7148 54.4413 15.9295 56.4325 17.164 58.4834C19.0556 57.4082 20.8477 56.3728 22.7592 55.2776C18.9561 51.8329 15.2923 48.4877 11.5887 45.1425ZM29.6687 55.2776C31.62 56.3927 33.3922 57.3883 35.244 58.4436C35.5227 58.0255 35.7617 57.6471 36.0006 57.2489C37.6931 54.4214 39.4056 51.5939 41.0981 48.7465C41.8149 47.5385 41.7286 46.3239 40.8392 45.1027C37.1555 48.4479 33.4718 51.7931 29.6687 55.2577V55.2776ZM26.1642 66.9659C26.1642 67.0854 26.1841 67.2049 26.204 67.3243C26.9009 67.0256 27.9562 66.9261 28.2151 66.4283C29.0315 64.7358 29.589 62.9238 30.1465 61.1317C30.2461 60.833 30.0072 60.2357 29.7483 60.0565C27.558 58.5697 25.3279 58.4901 23.0579 59.8175C23.0579 59.8175 22.9982 59.8773 22.9583 59.8773C22.2017 60.176 21.9827 60.5941 22.3411 61.4304C22.8787 62.7048 23.3367 63.999 23.6951 65.3331C24.0535 66.6075 24.5911 67.4836 26.1642 66.9659Z" fill="#202020"/>
<path d="M26.2438 0.539645C29.35 0.539645 32.4563 0.539645 35.5625 0.539645C39.2662 0.539645 42.2728 3.38704 42.3127 7.09065C42.3724 12.1682 42.4321 17.2457 42.3127 22.3232C42.0936 30.4075 36.1798 37.4364 28.3345 38.651C21.9826 39.6267 17.0445 36.8987 13.4006 31.7814C11.2103 28.695 10.1351 25.1906 10.1152 21.3874C10.1152 16.8077 10.1749 12.2279 10.0952 7.64819C9.99568 4.28308 12.644 0.280791 17.164 0.499821C20.1906 0.639205 23.2172 0.519733 26.2438 0.519733V0.539645ZM14.1772 10.7544C14.1772 14.697 13.9581 18.4803 14.2568 22.2237C14.4161 24.3343 15.1529 26.5047 16.1285 28.3964C18.2193 32.3787 21.6441 34.7483 26.2438 34.7284C30.8434 34.7284 34.109 32.2593 36.3789 28.3565C38.5493 24.6131 38.39 20.5113 38.2506 16.2899C29.9872 15.5731 21.9428 14.1594 14.1772 10.7544ZM14.3962 6.334C21.9826 10.0177 29.9673 11.4713 38.2905 12.1881C38.2905 10.4558 38.39 8.86281 38.2706 7.28977C38.1312 5.43797 37.036 4.56185 35.1643 4.56185C29.1708 4.56185 23.1773 4.56185 17.164 4.56185C15.9095 4.56185 14.9737 4.99991 14.3962 6.35392V6.334Z" fill="#202020"/>
<path d="M72.5192 105.575C66.0279 105.296 60.1738 103.205 54.8972 99.7005C51.5719 97.4903 48.5254 94.8022 45.4788 92.1937C43.8262 90.78 43.9058 89.8043 45.4191 88.2711C50.1581 83.4723 55.5742 79.6293 61.8663 77.1603C70.7868 73.6757 79.3689 74.731 87.6721 79.1713C92.1324 81.5608 96.1347 84.6073 99.6989 88.2113C101.232 89.7645 101.252 90.6605 99.7387 92.1539C94.0439 97.8288 87.5925 102.329 79.6875 104.36C77.3578 104.957 74.9086 105.176 72.5192 105.555V105.575ZM95.9356 90.2424C91.3558 85.9812 86.4774 82.5763 80.703 80.605C77.4175 79.4899 74.0723 78.8926 70.5678 79.251C64.7336 79.8484 59.6163 82.2577 54.9171 85.583C52.9458 86.9768 51.1338 88.5498 49.2223 90.0632C52.4082 93.6274 58.9592 97.8686 63.738 99.5611C67.0434 100.756 70.4284 101.532 73.9528 101.214C82.6543 100.477 89.5239 95.9969 95.9356 90.2025V90.2424Z" fill="#202020"/>
<path d="M74.2515 57.9056C71.2846 60.3747 68.3775 62.784 65.4903 65.1934C65.0721 65.5518 64.654 65.8903 64.2358 66.2288C62.9415 67.2841 61.7269 67.2841 60.9304 66.2885C60.134 65.2929 60.4127 64.138 61.707 63.0628C63.6384 61.4499 65.5699 59.8371 67.5213 58.2242C69.3532 56.691 71.1851 55.1578 73.0369 53.6445C74.351 52.5692 75.4462 52.6887 76.4617 54.0427C77.9551 56.014 79.4286 58.0052 81.0016 60.076C87.7119 54.4011 94.3625 48.7661 101.352 42.8721C99.7785 42.8721 98.5639 42.8721 97.3294 42.8721C96.4134 42.8721 95.4776 42.912 94.5616 42.8522C93.4665 42.7726 92.7297 41.8766 92.7695 40.8013C92.8293 39.6862 93.4465 38.8898 94.5417 38.8898C98.7033 38.83 102.865 38.83 107.007 38.8898C108.361 38.8898 109.077 40.0646 108.819 41.6376C108.38 44.3257 107.903 47.0138 107.445 49.682C107.245 50.8369 107.086 51.9918 106.847 53.1467C106.588 54.441 105.712 55.118 104.557 54.9587C103.422 54.8193 102.686 53.8635 102.865 52.5891C103.144 50.5183 103.522 48.4674 103.92 46.058C102.487 47.2528 101.272 48.2484 100.077 49.2639C94.2032 54.2219 88.3491 59.18 82.4751 64.138C80.8423 65.512 79.8865 65.3925 78.6122 63.7C77.1785 61.7884 75.7449 59.8968 74.2515 57.9255V57.9056Z" fill="#202020"/>
<path d="M69.4924 32.7771C66.5852 32.7771 63.698 32.7771 60.7909 32.7771C59.2975 32.7771 58.4612 32.0005 58.4612 30.7262C58.4612 29.5115 59.3174 28.7549 60.7112 28.7549C66.5852 28.7549 72.4791 28.7549 78.3531 28.7549C79.7669 28.7549 80.6032 29.5115 80.6032 30.7262C80.6032 31.9806 79.7669 32.7572 78.2735 32.7572C75.3265 32.7572 72.3995 32.7572 69.4525 32.7572L69.4924 32.7771Z" fill="#202020"/>
<path d="M66.466 42.8528C64.5743 42.8528 62.6827 42.8528 60.7911 42.8528C59.2977 42.8528 58.4614 42.0762 58.4813 40.8018C58.5012 39.5872 59.3375 38.8306 60.7513 38.8306C64.6142 38.8306 68.4771 38.8306 72.34 38.8306C73.7338 38.8306 74.5701 39.5872 74.59 40.8018C74.59 42.0165 73.7736 42.8129 72.3798 42.8329C70.4085 42.8329 68.4372 42.8329 66.466 42.8329V42.8528Z" fill="#202020"/>
<path d="M72.5191 80.6848C77.7161 80.645 82.0967 84.9659 82.1166 90.1629C82.1565 95.3599 77.8356 99.7405 72.6386 99.7604C67.4416 99.8002 63.061 95.4794 63.041 90.2824C63.0012 85.0854 67.3221 80.7048 72.5191 80.6848ZM78.0148 90.2226C78.0148 87.2159 75.5656 84.7867 72.5589 84.7867C69.5522 84.7867 67.123 87.2359 67.123 90.2425C67.123 93.2492 69.5721 95.6785 72.5788 95.6785C75.5855 95.6785 78.0148 93.2293 78.0148 90.2226Z" fill="#202020"/>
</g>
<defs>
<clipPath id="clip0_480_2358">
<rect width="120.945" height="120.965" fill="white" transform="translate(0 0.5)"/>
</clipPath>
</defs>
</svg>
