<svg xmlns="http://www.w3.org/2000/svg" data-name="Layer 1" viewBox="0 0 95 118.75" x="0px" y="0px"><path d="M72.172,32.566a1.034,1.034,0,1,0,1.809-1c-.333-.611-.69-1.206-1.071-1.793A1.034,1.034,0,0,0,71.172,30.9c.357.547.69,1.1,1,1.671Zm5.166,23.476Zm-31.88,7.77a1.584,1.584,0,0,0-1.107-.449h-8.4a1.676,1.676,0,0,0-.44.052,1.545,1.545,0,0,0-.393.176l-7.131,4.321,10.023,9.245,22.5.056a1.551,1.551,0,0,0,.655-.13,1.5,1.5,0,0,0,.536-.4L75.8,60.939a2.678,2.678,0,0,0,.7-1.79,2.25,2.25,0,0,0-.667-1.616c-.047-.055-.012-.017,0,0l-.012-.023a2.322,2.322,0,0,0-1.654-.638,2.433,2.433,0,0,0-1.667.707h0l-7.774,7.994a4.481,4.481,0,0,1-.38,5.9,4.505,4.505,0,0,1-3.179,1.317H41.816a1.056,1.056,0,0,1,0-2.111H61.172a2.368,2.368,0,0,0,1.679-.7,2.355,2.355,0,0,0,0-3.355,2.365,2.365,0,0,0-1.679-.7H41.816a1.055,1.055,0,0,1,0-2.11ZM21.7,72.674a1.613,1.613,0,0,1-.119-2.237L23.221,68.6a1.414,1.414,0,0,1,.5-.386,1.563,1.563,0,0,1,.607-.149,1.608,1.608,0,0,1,.631.087,1.554,1.554,0,0,1,.536.33v.007L37.078,79.166a1.595,1.595,0,0,1,.107,2.237l-1.631,1.842a1.672,1.672,0,0,1-.5.387,1.619,1.619,0,0,1-.619.148,1.662,1.662,0,0,1-.631-.086,1.573,1.573,0,0,1-.536-.338L21.7,72.674ZM75.838,57.531Zm1.3-23.317,1.881,3.261,3.809.877-2.512,2.8.334,3.9-3.429-1.533-3.607,1.533.393-3.745-2.56-2.948,3.679-.782,2.012-3.356Zm-30.118-23L48.9,14.479l3.809.876-2.524,2.8.345,3.9-3.44-1.532-3.595,1.532.393-3.745-2.571-2.949,3.69-.782,2.012-3.355ZM17.876,48.876l1.881,3.261,3.809.876-2.523,2.8.345,3.9-3.44-1.532-3.6,1.532.393-3.745-2.571-2.949,3.69-.782,2.012-3.355ZM47.018,26.112a6.2,6.2,0,1,1-6.2,6.2,6.195,6.195,0,0,1,6.2-6.2Zm-4.7,16.331h9.392a4.783,4.783,0,0,1,3.881,1.924A5.221,5.221,0,0,1,56.6,48.718l-1.083,5.454a5.015,5.015,0,0,1-4.893,4.155H43.4a5.014,5.014,0,0,1-4.893-4.155l-1.083-5.454a5.221,5.221,0,0,1,1.012-4.351,4.782,4.782,0,0,1,3.881-1.924Zm18.249-9.867a4.954,4.954,0,1,0,4.952,4.954,4.95,4.95,0,0,0-4.952-4.954ZM58.506,45.63h5.821a3.816,3.816,0,0,1,3.095,1.538,4.137,4.137,0,0,1,.809,3.477l-.869,4.361a3.991,3.991,0,0,1-3.9,3.321H57.684a3.876,3.876,0,0,1-1.738-.408,7.383,7.383,0,0,0,1.595-3.343l1.1-5.454a7.522,7.522,0,0,0-.131-3.492ZM33.459,32.576a4.954,4.954,0,1,0,4.952,4.954,4.95,4.95,0,0,0-4.952-4.954ZM29.7,45.63h5.821a7.353,7.353,0,0,0-.119,3.492l1.083,5.454a7.385,7.385,0,0,0,1.6,3.343,3.839,3.839,0,0,1-1.738.408H30.566a4,4,0,0,1-3.9-3.321l-.87-4.361a4.138,4.138,0,0,1,.81-3.477A3.816,3.816,0,0,1,29.7,45.63ZM64.434,23.607a1.051,1.051,0,0,0,1.214.037,1.037,1.037,0,0,0,.048-1.679,30.934,30.934,0,0,0-9.083-4.784l-.358-.114a1.033,1.033,0,1,0-.618,1.971,28.616,28.616,0,0,1,8.8,4.569Zm-30.309-2.84a1.033,1.033,0,1,0-.928-1.846A30.862,30.862,0,0,0,28.8,21.615c-.666.493-1.309,1-1.94,1.544-.214.192-.441.385-.655.581-.536.493-1.048,1-1.548,1.523a1.033,1.033,0,1,0,1.5,1.421c.559-.59,1.142-1.15,1.749-1.694.584-.513,1.167-1,1.786-1.465a28.757,28.757,0,0,1,4.428-2.758ZM20.674,34.946a1.032,1.032,0,1,0-1.893-.821c-.322.726-.607,1.452-.869,2.2-.274.8-.512,1.606-.726,2.429-.179.685-.334,1.366-.465,2.062-.131.752-.238,1.5-.321,2.261-.06.461-.095.919-.131,1.382a1.038,1.038,0,0,0,2.071.133c.048-.72.119-1.427.214-2.14.108-.8.25-1.579.429-2.365.214-.912.452-1.8.75-2.689.262-.79.56-1.557.893-2.324Z" style="" fill-rule="evenodd"/><text x="0" y="110" fill="#000000" font-size="5px" font-weight="bold" font-family="'Helvetica Neue', Helvetica, Arial-Unicode, Arial, Sans-serif">Created by Adinda Diah Pramesti</text><text x="0" y="115" fill="#000000" font-size="5px" font-weight="bold" font-family="'Helvetica Neue', Helvetica, Arial-Unicode, Arial, Sans-serif">from the Noun Project</text></svg>