<svg xmlns="http://www.w3.org/2000/svg" version="1.1" viewBox="-5.0 -10.0 110.0 135.0">
 <path d="m18.68 17.66h62.75c2.1992 0 4.0586 1.8008 4.0586 3.9297v22.461l-1.1602-0.67969c-0.23047-0.12891-0.5-0.17188-0.76172-0.10156-0.26172 0.070313-0.48047 0.23828-0.60938 0.46094l-0.85938 1.4883c-0.070312-0.058594-0.14062-0.12109-0.19922-0.17969v-16.25c0-1.1602-0.75-2.0898-1.8789-2.3203-1.6484-0.30859-3.0195-1.6914-3.4688-3.4805-0.21875-1.1211-1.1484-1.8711-2.3086-1.8711l-48.504 0.003906c-1.1602 0-2.0898 0.75-2.3086 1.8789-0.32031 1.7188-1.75 3.1406-3.4805 3.4688-1.1211 0.21875-1.8711 1.1484-1.8711 2.3086v16.578l-0.89844-0.53125c-0.85938-0.48828-1.7188-0.82031-2.5586-1.0117v-22.223c-0.011719-2.1289 1.8477-3.9297 4.0586-3.9297zm44.18 23.75c0.30078-1.0508 0.51953-2.2383 0.51953-3.5703 0-7.3086-6.0117-13.262-13.391-13.262-7.3086 0-13.262 5.9492-13.262 13.262 0 3.0312 0.96875 5.8516 2.7383 8.1719-3.3203 0.58984-5.9414 3.5586-5.9414 7.0195 0 0.48828 0.050781 0.96875 0.14844 1.4297l-13.602-7.9414 0.007813-17.73c0-0.30078 0.17969-0.33984 0.25-0.35156 2.5508-0.48047 4.5781-2.5117 5.0586-5.0508 0.019531-0.078125 0.050781-0.26172 0.35156-0.26172h48.488c0.30078 0 0.33984 0.17969 0.35938 0.30859 0.64844 2.5898 2.6289 4.5508 5.0391 5 0.078125 0.019531 0.26172 0.050781 0.26172 0.35156v14.77c-5.207-3.375-11.375-4.0742-17.027-2.1445zm-11.879 2.6094c1.5312-0.44141 2.6602-1.8398 2.6602-3.5117 0-2.0195-1.6406-3.6602-3.6602-3.6602-0.94922 0-1.5312-0.78906-1.5312-1.5312 0-0.94922 0.66016-1.6602 1.5312-1.6602h2.6602c0.55078 0 1-0.44922 1-1s-0.44922-1-1-1h-1.6602v-1.8008c0-0.55078-0.44922-1-1-1s-1 0.44922-1 1v1.9609c-1.4688 0.44141-2.5312 1.8086-2.5312 3.5 0 1.9492 1.5781 3.5312 3.5312 3.5312 0.92188 0 1.6602 0.75 1.6602 1.6602 0 0.92188-0.75 1.6602-1.6602 1.6602h-2.5312c-0.55078 0-1 0.44922-1 1s0.44922 1 1 1h1.5312v1.7305h-6.9688c-2.1211-2.1406-3.2891-4.9805-3.2891-8.0586 0-6.2109 5.0508-11.262 11.262-11.262 6.2812 0 11.391 5.0508 11.391 11.262 0 1.8086-0.5 3.3594-0.98047 4.5703-1.7891 0.87891-3.5 2.0391-5.0781 3.4883h-4.3281zm-13.789 29.461c-0.5 0-0.51172-0.011719-0.69922-0.12891-9.8906-5.7617-15.59-9.0117-25.039-14.391l-1.8633-1.0625c-3.8203-2.2695-3.8594-6.2109-2.2891-8.9219 1.5703-2.6992 5.0195-4.6016 8.8711-2.4102l2.1602 1.2617c0.12891 0.14844 0.30078 0.23828 0.5 0.28906l16.52 9.6406c0.011719 0.011719 0.019532 0.011719 0.03125 0.019532 1.3203 1.4492 3.2109 2.3789 5.2695 2.3789h21.051c0.55078 0 1-0.44922 1-1s-0.44922-1-1-1l-21.043 0.003906c-2.7812 0-5.1289-2.3516-5.1289-5.1289 0-2.7812 2.3516-5.1289 5.1289-5.1289h15.051c0.26172 0 0.5-0.10156 0.69141-0.26953 6.8516-6.5 16.531-6.9883 23.711-1.4492 0.10938 0.14062 0.23047 0.25 0.39844 0.32031 0.19141 0.16016 0.37891 0.32031 0.57031 0.48828l-15.352 26.5-28.539-0.003907zm55.887-17.879-14.117 24.637c-0.57031 0.98828-1.4883 1.6914-2.5898 1.9688-1.0586 0.26953-2.1602 0.10938-3.1094-0.46875l-7.5195-4.3008 18.441-31.84 1.5781 0.92188c0.12109 0.12891 0.26953 0.21094 0.44141 0.26172l5.3711 3.1211c0.98828 0.57031 1.6914 1.4883 1.9688 2.5898 0.27734 1.0586 0.11719 2.1562-0.46484 3.1094z"/>
<text x="0.0" y="117.5" font-size="5.0" font-weight="bold" font-family="Arbeit Regular, Helvetica, Arial-Unicode, Arial, Sans-serif" fill="#000000">Created by Mister r</text><text x="0.0" y="122.5" font-size="5.0" font-weight="bold" font-family="Arbeit Regular, Helvetica, Arial-Unicode, Arial, Sans-serif" fill="#000000">from Noun Project</text></svg>