<svg xmlns="http://www.w3.org/2000/svg" version="1.1" viewBox="-5.0 -10.0 110.0 135.0">
 <path d="m20.914 86.848h10.789l28.559 7.8203c2.6367 0.73047 5.207 0.24219 7.4258-1.3516l26.496-19.32c2.8125-4.0312-2.0391-9.0391-6.1562-6.3359l-13.34 6.1133c0.3125 0.35156 0.57422 0.77344 0.77344 1.2188 0.42187 0.84375 0.66406 1.7969 0.66406 2.8164 0 1.7734-0.73047 3.3672-1.8828 4.5391-1.1758 1.1523-2.793 1.8828-4.5664 1.8828h-20.406c-0.83984 0-1.5078-0.66406-1.5078-1.5078 0-0.82031 0.66406-1.4844 1.5078-1.4844h20.406c0.95312 0 1.8164-0.39844 2.4375-1.0195 0.62109-0.62109 0.99609-1.4844 0.99609-2.4141 0-0.55469-0.10938-1.0625-0.33203-1.5078-0.22266-0.46484-0.57812-0.88672-0.97656-1.2188-0.84375-0.64453-1.9023-1.0391-3.0352-1.0391h-7.3555c-2.8789 0-5.3594-1.2617-7.0469-3.6133-1.7734-2.4375-4.3438-4.2734-7.3359-5.0977-4.3203-1.1953-8.9492-0.17578-12.363 2.7266h-8.043l1.2422-4.0742-14.336-4.3438-8.5469 28.117 10.656 3.2578c2.0391 0.59766 4.1641-0.53125 4.7852-2.5703zm26.406-48.723h27.141l0.003906-27.141h-27.145zm-5.6719-5.0977-4.4102 2.5469-0.75391-1.3086-0.75391-1.2852 4.4336-2.5469 0.73047 1.2852 0.066407 0.089844zm39.969-2.5898 4.4297 2.5469-0.75391 1.2852-0.75391 1.3086-4.4062-2.5469 0.75391-1.3086zm-2.5-18.102 4.4297-2.5508 0.73047 1.2852 0.75391 1.3086-4.4102 2.5508-0.75391-1.3086zm-19.723-2.2383v-5.0938h2.9922v5.0977h-1.4844zm-18.234 4.832-4.4062-2.5508 0.75391-1.3086 0.73047-1.2852 4.4336 2.5508-0.71094 1.1953-0.042969 0.089844zm14.938 53.129h3.3906v-27.121h-27.141v24.305h1.3516c4.0117-2.9922 9.2188-3.9648 14.09-2.6367 0.88672 0.24219 1.7266 0.57422 2.5469 0.94922v-2.3047h5.5156v2.9922h-4.1875c1.6875 1 3.1914 2.2891 4.4336 3.8164zm-13.871-24.305h7.3789v6.0469l-3.6797-1.1523-3.6992 1.1523zm20.074 24.305h18.078l6.3164-2.8828c0.90625-0.55469 1.8398-0.88672 2.7461-1.0391v-23.199h-27.141zm9.8789-24.305h7.3789v6.0469l-3.6992-1.1523-3.6797 1.1523zm8.0898 17.504h5.5391v2.9922h-5.5391zm-23.066-47.461h7.3789v6.0508l-3.6797-1.1523-3.6992 1.1523zm8.1094 17.504h5.5156v3.0156h-5.5156zm-40.945 34.562-8.9492-2.7266-6.9336 22.758 7.9766 2.4141c0.53125 0.17969 1.1055-0.13281 1.2852-0.6875z" fill-rule="evenodd"/>
<text x="0.0" y="117.5" font-size="5.0" font-weight="bold" font-family="Arbeit Regular, Helvetica, Arial-Unicode, Arial, Sans-serif" fill="#000000">Created by Ali Nur Rohman</text><text x="0.0" y="122.5" font-size="5.0" font-weight="bold" font-family="Arbeit Regular, Helvetica, Arial-Unicode, Arial, Sans-serif" fill="#000000">from Noun Project</text></svg>