<svg width="78" height="82" viewBox="0 0 78 82" fill="none" xmlns="http://www.w3.org/2000/svg">
<g clip-path="url(#clip0_599_2775)">
<path d="M21.7345 76.8969C20.9859 77.7637 20.3817 78.4729 19.725 79.2347H21.7345V76.8969ZM15.8638 65.7334C14.4191 66.3376 13.0795 66.3113 11.648 65.7466V67.0599C11.648 68.3207 12.0551 68.8198 13.329 68.9117C13.8675 68.9511 14.4323 68.8461 14.9576 68.7016C15.6143 68.5309 15.9689 68.1106 15.8638 67.3489C15.7981 66.8629 15.8638 66.3507 15.8638 65.7203M8.06251 79.3003C6.44709 77.1464 4.93674 75.1107 3.24252 72.8518C2.92732 73.6267 2.53332 74.2045 2.48078 74.8087C2.36258 76.0957 2.41511 77.4091 2.44138 78.7093C2.44138 78.9194 2.73032 79.2741 2.90105 79.2872C4.56901 79.3266 6.22382 79.3135 8.04938 79.3135M35.7873 61.6489C35.7873 62.7915 35.7742 63.8028 35.8004 64.801C35.8004 64.998 35.9712 65.2475 36.1288 65.3788C37.5078 66.5477 39.8981 66.5477 41.3165 65.392C41.4872 65.2606 41.6711 65.0242 41.6842 64.8272C41.7236 63.8028 41.6974 62.7653 41.6974 61.6358C39.7142 62.2662 37.8098 62.3056 35.7873 61.6358M21.7082 54.6882C22.2861 53.3092 22.5619 51.9039 22.4174 50.4198C22.1941 48.082 20.5262 46.4929 18.438 46.598C17.952 46.6242 17.7682 46.8081 17.65 47.2809C17.4661 47.9901 17.2822 48.7518 16.8751 49.3428C16.376 50.0783 16.5861 50.5511 17.0983 51.0633C17.3216 51.2866 17.5318 51.5361 17.7813 51.72C19.0552 52.705 20.3555 53.6769 21.7082 54.6882ZM61.1349 79.2741C59.467 76.5029 59.27 73.5216 59.1255 70.4484C57.8515 70.9737 56.7089 71.4465 55.6977 71.8668V79.2741H61.1349ZM61.5027 67.2701C61.634 71.2758 61.1874 75.2158 63.6434 78.7093C66.0862 75.1633 65.6397 71.2364 65.7448 67.2701C64.2869 67.953 62.9473 67.9267 61.5027 67.2701ZM66.1388 79.3135C68.9625 79.3135 71.6548 79.3135 74.3341 79.3135C74.8331 79.3135 74.9907 79.077 74.9776 78.6305C74.9776 77.4879 74.9776 76.3453 74.9776 75.2027C74.9776 73.8893 74.3209 72.9963 73.1258 72.4972C71.6548 71.8799 70.1839 71.2889 68.7129 70.6848C68.5553 70.6191 68.3846 70.5928 68.1351 70.5272C68.0563 73.5873 67.7805 76.5292 66.1388 79.3135ZM34.185 79.2741C33.7122 75.5573 32.3989 72.2739 30.2318 69.3189C30.0217 69.0168 29.8378 68.7935 29.4044 68.9905C28.3669 69.4633 27.3031 69.8573 26.2524 70.317C25.1229 70.8161 24.3086 71.696 24.243 72.8912C24.1116 74.9925 24.2036 77.1202 24.2036 79.2609H34.185V79.2741ZM47.5812 68.7935C45.1646 71.9193 43.6936 75.3603 43.2208 79.2347H53.3205C53.3205 77.2384 53.3599 75.2946 53.3074 73.364C53.268 72.09 52.6375 71.0394 51.4949 70.4615C50.2473 69.8311 48.9208 69.3451 47.5943 68.7804M40.778 79.2741C41.2902 75.0976 42.7612 71.302 45.2697 67.8742C44.8625 67.7035 44.4817 67.5721 44.1402 67.3751C43.5229 67.0336 43.0632 67.0862 42.4328 67.5065C40.2133 68.9905 37.7967 69.1481 35.5246 67.7691C34.4608 67.1256 33.6465 67.0599 32.6747 67.6509C32.5433 67.7297 32.3857 67.7823 32.1887 67.8873C34.6578 71.302 36.1288 75.0976 36.6278 79.2741H40.7911H40.778ZM14.6424 52.1403C13.5392 52.6525 12.3046 53.1384 11.162 53.7951C9.99313 54.4649 8.91619 55.2923 7.85238 56.1066C7.64224 56.2642 7.52404 56.7633 7.60284 57.0391C8.23325 59.3243 9.45466 61.2681 11.3327 62.739C13.0926 64.1311 14.4716 64.1311 16.2315 62.739C17.9914 61.3469 19.1078 59.5082 19.8695 57.4199C20.1059 56.7895 19.9614 56.3824 19.4624 55.9884C17.847 54.7144 16.2447 53.4142 14.6687 52.1403M5.56715 71.9587C7.36644 74.3753 9.07379 76.6736 10.8205 78.9589C10.9781 79.1559 11.3459 79.2872 11.6217 79.2872C13.027 79.3266 14.4323 79.3397 15.8375 79.2872C16.2053 79.2741 16.6518 79.0771 16.9013 78.8013C18.3198 77.2252 19.725 75.6229 21.0647 73.9813C21.4981 73.4428 21.7607 72.7598 22.1416 72.0506C20.4868 71.3677 19.0421 70.7636 17.5974 70.1988C17.4267 70.1332 17.1509 70.2251 16.967 70.3302C14.8263 71.696 12.6855 71.696 10.5447 70.3302C10.374 70.212 10.0851 70.1069 9.92746 70.1726C8.49592 70.7242 7.09063 71.3152 5.58028 71.9456M67.2682 49.8813C65.4164 54.2154 62.0674 56.4481 57.5101 57.0653C58.0354 60.0466 59.27 62.5157 61.5158 64.4201C63.0787 65.7466 64.3395 65.7597 65.8367 64.3675C68.7786 61.6358 70.3021 58.3261 69.6585 54.2416C69.3959 52.5606 68.7261 51.0502 67.2814 49.8813M48.8157 46.1645C49.1834 45.1139 49.63 44.0895 49.8795 43.0256C50.1291 41.9487 49.4461 41.0425 48.3692 40.7404C47.069 40.3858 46.8588 39.9655 47.3054 38.6653C47.6468 37.6935 47.3448 36.7084 46.5173 36.1306C45.6768 35.5396 44.6261 35.6315 43.8119 36.3538C42.6824 37.352 41.8681 37.1024 41.5004 35.6446C40.975 33.5564 38.7949 32.7159 36.9956 33.9241C36.0631 34.5414 35.7085 34.5152 34.9205 33.7403C33.6203 32.4795 31.6371 32.9917 31.2562 34.7384C31.0592 35.6446 30.6127 35.9992 29.7065 36.1043C27.1192 36.4195 25.6876 39.2826 27.0929 41.4365C27.6708 42.3296 27.8678 43.1701 27.8415 44.1814C27.8284 44.8118 27.8809 45.4685 28.0254 46.0726C28.1699 46.6242 28.4851 47.1364 28.6821 47.5436C29.6014 46.992 30.4026 46.5717 31.138 46.0595C31.5452 45.7705 31.9523 45.4028 32.2019 44.9694C32.5696 44.3521 33.0293 44.1157 33.7122 44.2208C36.247 44.5623 37.823 43.6692 38.9131 41.292C39.399 40.2282 40.3446 40.0706 41.1063 40.9637C41.9075 41.9093 42.8531 42.2902 44.0745 42.0012C44.9676 41.7911 45.3353 42.0932 45.7425 42.9337C46.0314 43.5378 46.4385 44.1157 46.8982 44.5885C47.4236 45.127 48.0802 45.5604 48.8157 46.1383M2.15244 81.7037C0.523892 81.0602 -0.119648 79.8519 0.0116866 78.1314C0.0904874 77.1858 0.0116866 76.214 0.02482 75.2552C0.051087 72.878 1.18057 71.2232 3.36072 70.2908C5.12061 69.5421 6.89363 68.8198 8.66665 68.1106C9.10006 67.9399 9.24452 67.7035 9.27079 67.2306C9.40213 65.4182 9.29706 63.7371 7.72104 62.4501C7.1957 62.0167 6.89363 61.2943 6.51276 60.6902C5.85609 59.6789 5.46208 58.5494 4.63467 57.5775C3.79413 56.5794 3.54459 55.0296 3.24252 53.6638C2.84852 51.9039 2.94045 50.1177 3.42639 48.371C3.66279 47.5304 4.24067 47.1102 4.91048 47.294C5.63282 47.4779 5.93489 48.1083 5.72475 49.0014C5.27821 50.8532 5.34388 52.6788 5.85609 54.57C5.97429 54.5043 6.06622 54.4649 6.13189 54.3992C7.65537 52.902 9.42839 51.8251 11.4247 51.0765C13.0532 50.4592 14.2878 49.356 15.0233 47.7668C15.982 45.6917 15.1677 44.2077 12.8956 44.1551C11.7399 44.1289 10.5841 44.5885 9.42839 44.8512C9.17886 44.9037 8.95559 45.0876 8.70605 45.1795C8.06251 45.4422 7.5503 45.2452 7.1957 44.6805C6.86736 44.1551 7.0381 43.4197 7.61597 43.0913C9.71733 41.9224 11.95 41.3577 14.3534 41.9618C15.5355 42.2508 16.4811 42.8943 17.1771 43.9056C17.2953 44.0895 17.6368 44.2602 17.847 44.2339C22.4043 43.7743 24.5844 47.4122 24.7946 50.3147C24.9784 52.8101 24.3218 55.0953 23.1266 57.2623C23.0478 57.4068 22.9821 57.5907 22.8639 57.6563C21.9315 58.0898 21.8921 59.0879 21.4193 59.8234C20.5393 61.1761 19.5674 62.4632 18.6612 63.7897C18.4642 64.0786 18.2804 64.4201 18.2672 64.7484C18.2278 65.7597 17.9126 66.9943 18.3854 67.7166C18.8451 68.4258 20.1453 68.544 21.0253 69.0168C22.2204 69.6603 23.2054 69.9099 24.348 68.741C25.0441 68.0318 26.1999 67.7691 27.1849 67.3489C29.0367 66.5608 30.9016 65.786 32.7797 65.0505C33.2525 64.8666 33.4233 64.6302 33.4101 64.118C33.3707 63.0279 33.4364 61.9379 33.3839 60.8478C33.3707 60.5194 33.1737 60.1648 32.9636 59.9022C32.5302 59.3637 32.018 58.8909 31.5846 58.3655C31.0067 57.6563 31.0592 56.9209 31.6371 56.4743C32.2281 56.0278 32.8454 56.1723 33.4364 56.8683C33.6465 57.1179 33.8435 57.3674 34.0537 57.6038C36.7723 60.5457 40.7518 60.5588 43.4178 57.5644C45.7556 54.9508 46.6618 51.7594 46.8063 48.3316C46.8194 47.9244 46.4385 47.4385 46.1365 47.0839C45.4404 46.2959 44.6787 45.5735 43.93 44.8381C43.8119 44.7199 43.6542 44.6017 43.4966 44.5623C42.4722 44.3259 41.4478 44.1157 40.3183 43.8793C39.2414 45.3371 37.6785 46.4272 35.6954 46.6768C34.6709 46.795 33.8041 47.0051 33.0424 47.7668C32.609 48.2002 31.9523 48.4104 31.3876 48.6993C30.8754 48.962 30.6521 49.3429 30.7966 49.9339C30.9542 50.6037 31.0724 51.2866 31.1906 51.9695C31.335 52.797 31.0198 53.3748 30.3369 53.5324C29.6408 53.69 29.0498 53.2698 28.8397 52.4555C28.8265 52.4029 28.8134 52.3504 28.8134 52.2979C28.6821 51.1159 28.2355 50.1834 27.2243 49.3822C25.8058 48.2396 25.4906 46.506 25.4644 44.7593C25.4644 43.9187 25.2936 43.1964 24.8734 42.4346C23.1135 39.1907 24.7814 35.1587 28.2881 34.0292C28.7609 33.8716 29.0761 33.6746 29.3125 33.1755C30.4551 30.8115 33.3313 29.9972 35.6428 31.2974C35.8924 31.4419 36.2995 31.547 36.549 31.4419C39.1757 30.4569 41.5266 31.153 43.142 33.4513C43.2208 33.5564 43.2996 33.6615 43.2734 33.6352C44.2715 33.5695 45.1909 33.3594 46.0445 33.4776C48.3429 33.8059 49.8927 35.7366 49.8401 38.0743C49.8401 38.5603 49.9452 38.8229 50.3523 39.0987C51.994 40.1888 52.6769 42.0669 52.1385 43.9844C51.6131 45.8625 50.8908 47.6486 49.4067 49.0276C49.1572 49.2509 49.1309 49.75 49.0784 50.1177C48.6581 53.2041 47.6862 56.0541 45.7556 58.5363C45.6374 58.6808 45.5455 58.8646 45.401 58.9566C44.1665 59.8102 43.9169 61.0185 44.0745 62.4238C44.1665 63.2118 43.8775 64.1705 44.2453 64.7484C44.5999 65.2869 45.5717 65.4314 46.2809 65.7203C47.6994 66.3113 49.1178 66.876 50.6281 67.4933V64.8272C50.6281 61.6095 50.6281 58.3918 50.6281 55.1741C50.6281 52.5212 51.3373 50.0915 52.8083 47.885C53.3205 47.1102 53.9903 46.9132 54.6207 47.3334C55.2117 47.7406 55.3168 48.4104 54.8177 49.159C53.5306 51.1159 52.9922 53.2435 53.0184 55.5813C53.0578 59.7052 53.0184 63.8291 53.0184 67.9399C53.0184 69.0693 54.2267 69.8968 55.238 69.4765C56.3412 69.0168 57.4444 68.5571 58.5607 68.1237C58.9548 67.9661 59.1124 67.7691 59.1386 67.3095C59.2043 66.2062 58.9548 65.3263 58.193 64.4332C56.3412 62.2268 55.2642 59.6395 55.0935 56.737C55.0147 55.5025 55.3168 55.1478 56.5382 54.872C57.3656 54.6882 58.2061 54.5306 59.0204 54.3073C62.1725 53.4536 64.2344 51.4442 65.1932 48.3316C65.666 46.795 66.2964 46.5192 67.7017 47.3203C70.3021 48.8175 71.5629 51.1947 72.0094 54.0578C72.6661 58.2342 71.3002 61.8197 68.6079 64.9454C67.833 65.8385 68.2007 66.7972 68.1613 67.7297C68.1613 67.8085 68.3189 67.9399 68.424 67.9793C70.3283 68.7673 72.2327 69.5553 74.2027 70.3696C74.2159 70.0544 74.2421 69.8442 74.2421 69.6472C74.2421 64.8404 74.2421 60.0204 74.2421 55.2135C74.229 49.8682 70.6041 45.5341 65.3508 44.6148C63.2625 44.2471 61.2137 44.5229 59.27 45.3897C59.0992 45.4685 58.9416 45.5604 58.7709 45.6261C58.0748 45.8887 57.4444 45.6655 57.1555 45.0482C56.8665 44.4309 57.0898 43.8005 57.7727 43.4591C59.7559 42.4609 61.8704 42.0012 64.0899 42.0932C71.1558 42.3952 76.593 48.0295 76.6324 55.1347C76.6587 60.6639 76.6324 66.1931 76.6456 71.7223C76.6456 72.182 76.8294 72.6416 76.9214 73.1013C77.0658 73.8237 77.2628 74.546 77.3285 75.2815C77.3942 76.2271 77.2891 77.199 77.3548 78.1446C77.4861 79.8651 76.8426 81.0733 75.214 81.7169H2.15244V81.7037Z" fill="#BE452B"/>
<path d="M54.8165 16.2332C54.8165 17.2576 54.7902 18.1901 54.8165 19.1226C54.869 20.5279 54.5013 21.7887 53.6607 22.9313C53.5031 23.1414 53.4243 23.4566 53.4112 23.7324C53.3849 25.4661 53.3849 27.1866 53.4112 28.9202C53.4243 30.3517 54.1598 31.0741 55.5914 31.0872C56.6814 31.1003 57.7715 31.1135 58.8616 31.0872C59.9254 31.0478 60.7659 31.4155 61.4883 32.1904C62.145 32.8996 62.8279 33.5957 63.6422 34.4494C64.3908 33.6351 65.0343 32.9653 65.6516 32.2692C66.4265 31.3893 67.3852 31.0215 68.5541 31.0872C69.4341 31.1397 70.314 31.0872 71.1808 31.0872C73.0852 31.0872 73.7287 30.4568 73.7418 28.5787C73.7418 25.2822 73.7418 21.9857 73.7418 18.6892C73.7418 16.8374 73.1114 16.207 71.2465 16.1938C66.0587 16.1938 60.8842 16.1938 55.6964 16.1938C55.4338 16.1938 55.1711 16.2201 54.8165 16.2332ZM22.7183 16.2726C22.5081 16.2332 22.4031 16.207 22.298 16.207C16.7425 16.207 11.1871 16.1938 5.6316 16.207C4.31825 16.207 3.62218 16.995 3.62218 18.3608C3.62218 21.8675 3.62218 25.3741 3.62218 28.8939C3.62218 30.3255 4.35765 31.0609 5.77607 31.0741C6.86615 31.0872 7.95623 31.1135 9.0463 31.0741C10.1101 31.0347 10.9638 31.3893 11.673 32.1641C12.3297 32.8865 12.9863 33.6088 13.8269 34.515C14.6937 33.5563 15.4029 32.7551 16.1252 31.9803C16.7163 31.3499 17.4649 31.0609 18.3448 31.0741C19.4086 31.0741 20.4724 31.0741 21.5362 31.0741C23.2436 31.0741 23.9265 30.4174 23.9265 28.7232C23.9265 27.0158 23.9528 25.3216 23.9134 23.6142C23.9134 23.2465 23.7033 22.8788 23.5982 22.511C23.3093 21.526 22.9021 20.5673 22.7577 19.5691C22.6132 18.5053 22.7183 17.4021 22.7183 16.2595M38.7674 26.8713C39.6473 25.8863 40.4747 24.9801 41.2759 24.0608C42.1164 23.102 43.1408 22.6161 44.4279 22.6424C45.9645 22.6686 47.5143 22.6555 49.0509 22.6424C51.1654 22.6292 52.3999 21.3684 52.4131 19.2408C52.4131 14.7491 52.4131 10.2575 52.4131 5.76584C52.4131 3.65135 51.1522 2.40367 49.0378 2.40367C45.9777 2.40367 42.9176 2.42994 39.8706 2.3774C39.424 2.3774 38.8199 2.07533 38.5704 1.7076C38.0582 0.972122 38.6754 0.0396446 39.6604 0.0265111C40.9607 -0.0128893 42.2609 0.0265111 43.5742 0.0265111C45.4392 0.0265111 47.291 0.0265111 49.156 0.0265111C52.4787 0.0396446 54.8034 2.3774 54.8165 5.71331C54.8165 8.36627 54.8165 11.0192 54.8165 13.7641C55.1711 13.7773 55.4863 13.8035 55.7884 13.8035C60.9498 13.8035 66.1113 13.8035 71.2596 13.8035C74.4379 13.8035 76.119 15.4978 76.1321 18.6761C76.1321 21.9988 76.1321 25.3216 76.1321 28.6444C76.1321 31.757 74.3854 33.6351 71.2859 33.4118C68.7905 33.2411 66.9256 33.8846 65.3495 35.8415C64.2463 37.2074 62.9198 37.2205 61.8429 35.8415C60.2537 33.7927 58.3231 33.136 55.8278 33.4381C54.1992 33.6351 52.8071 32.9915 51.822 31.6125C51.231 30.7851 51.034 29.8264 51.034 28.8282C51.034 27.5018 51.034 26.1884 51.034 25.0327C48.867 25.0327 46.8051 25.0589 44.7431 25.0195C43.9551 25.0064 43.3772 25.2559 42.8782 25.8601C42.1689 26.7137 41.4072 27.5412 40.6455 28.3554C39.516 29.5768 38.0056 29.5637 36.8893 28.3292C36.1932 27.5543 35.4709 26.8057 34.8405 25.9914C34.2626 25.2428 33.5665 24.9539 32.634 25.0195C31.544 25.0852 30.4539 25.0589 29.3638 25.0195C28.3919 24.9933 27.42 24.9145 26.3037 24.8488C26.3037 25.5186 26.3037 26.2803 26.3037 27.0289C26.3037 27.725 26.3168 28.408 26.3037 29.104C26.2249 31.6388 24.4913 33.3856 21.9565 33.4512C20.8927 33.4775 19.8289 33.4118 18.7651 33.4775C18.3317 33.5038 17.8457 33.7008 17.5174 33.9766C16.7425 34.6332 16.0727 35.3818 15.3372 36.0779C14.3391 37.0235 13.2228 37.0367 12.2246 36.0779C11.476 35.3687 10.7799 34.5938 10.005 33.8978C9.74238 33.6614 9.32211 33.4906 8.9675 33.4644C7.90369 33.4118 6.83988 33.4644 5.77607 33.4381C3.03117 33.4118 1.21875 31.6125 1.21875 28.8808C1.21875 25.3741 1.21875 21.8675 1.21875 18.3477C1.21875 15.5503 3.0049 13.7773 5.81547 13.7641C11.1083 13.751 16.4011 13.7641 21.6938 13.7641H22.7183V10.8879C22.7183 9.10175 22.7051 7.32873 22.7183 5.54257C22.7577 2.338 25.0954 0.0265111 28.3394 0.000244141C30.1518 0.000244141 31.9511 0.000244141 33.7635 0.000244141C34.6829 0.000244141 35.2213 0.473049 35.1951 1.22166C35.1819 1.944 34.6697 2.3774 33.7766 2.3774C31.9642 2.3774 30.1649 2.3774 28.3525 2.3774C26.3825 2.3774 25.1217 3.65135 25.1217 5.63451C25.1217 10.205 25.1217 14.7754 25.1217 19.359C25.1217 21.329 26.3825 22.5898 28.3657 22.6292C29.9285 22.6555 31.5046 22.6686 33.0674 22.6292C34.4465 22.5898 35.5365 23.1152 36.4165 24.1658C37.1651 25.0589 37.9531 25.9257 38.7805 26.8582" fill="#BE452B"/>
<path d="M32.3082 11.3212C32.3476 12.6214 32.8992 13.5933 33.6478 14.4864C34.9612 16.0624 36.6291 17.1919 38.4153 18.1375C38.5992 18.2294 38.9406 18.2163 39.1245 18.1112C40.845 17.1525 42.4735 16.0361 43.7344 14.4995C44.2728 13.8297 44.7588 13.0548 45.0477 12.2537C45.5599 10.8878 45.0477 9.57447 43.8657 8.77333C42.7493 7.99845 41.3572 8.03785 40.2277 8.85213C38.9538 9.77147 38.5992 9.77147 37.2727 8.82586C36.2483 8.10352 35.1582 7.98532 34.0418 8.57632C32.9255 9.16733 32.3476 10.1392 32.2951 11.3212M47.6219 11.6102C47.5693 12.976 46.9127 14.3813 45.9145 15.629C44.194 17.796 41.9876 19.3589 39.5579 20.5935C39.1639 20.7905 38.5072 20.843 38.1132 20.6591C35.2107 19.2538 32.5446 17.5071 30.8373 14.6571C28.749 11.1768 30.3382 7.01344 34.0681 6.0153C35.434 5.66069 36.7867 5.77889 37.995 6.50123C38.586 6.85584 38.9669 6.79017 39.5448 6.4881C43.1696 4.53121 47.6613 7.24984 47.6087 11.6102" fill="#BE452B"/>
<path d="M9.822 23.2464C10.0715 23.8374 10.1766 24.3102 10.4393 24.6385C10.8858 25.2164 11.3849 25.8074 11.9759 26.2277C14.0904 27.7249 13.4731 27.7512 15.5613 26.1751C16.2968 25.6235 16.8878 24.8093 17.4 24.0212C17.8203 23.3514 17.5708 22.5372 16.9929 22.0906C16.3756 21.6178 15.6927 21.5259 15.0754 22.0118C14.1823 22.721 13.4074 22.6554 12.475 22.0118C12.0941 21.7623 11.3455 21.7229 10.9383 21.933C10.4655 22.1694 10.1897 22.7867 9.83513 23.2201M7.58931 23.5484C7.61557 20.4621 10.5837 18.5052 13.2104 19.6872C13.6438 19.8842 13.9459 19.8579 14.3793 19.6872C15.9422 19.0305 17.4 19.2538 18.6608 20.4227C19.9348 21.6047 20.2894 23.0625 19.7115 24.7042C19.1468 26.3327 17.9516 27.4491 16.5989 28.4472C13.9722 30.3779 13.657 30.391 11.004 28.5392C9.45426 27.4622 8.11464 26.1883 7.68124 24.2314C7.61557 23.9424 7.58931 23.6535 7.57617 23.5747" fill="#BE452B"/>
<path d="M67.5717 23.26C67.2039 22.8003 66.9281 22.275 66.5078 21.9466C65.9825 21.5395 65.3258 21.6446 64.8136 22.0648C63.9731 22.7347 63.2113 22.6953 62.3577 22.0648C61.5697 21.4607 60.5978 21.684 60.0724 22.4983C59.5996 23.2206 59.6653 24.0217 60.2038 24.5733C61.1494 25.5452 62.2395 26.3989 63.3033 27.2657C63.4215 27.3708 63.7892 27.3314 63.9337 27.2132C64.8662 26.4777 65.8249 25.7554 66.6655 24.9279C67.0595 24.5471 67.2302 23.9298 67.5717 23.2731M61.3333 19.1098C62.8567 20.0292 64.2752 19.4907 65.7461 19.3725C68.4122 19.1623 70.4479 21.986 69.5417 24.5471C69.2133 25.4664 68.6486 26.3858 67.9394 27.0556C66.8887 28.0406 65.6542 28.8549 64.4459 29.6429C64.0782 29.8793 63.3952 29.9581 63.0143 29.7742C60.9918 28.8286 59.1662 27.6072 58.0236 25.6109C56.9335 23.7197 57.2487 21.5789 58.8904 20.305C59.5865 19.7665 60.5058 19.5038 61.3333 19.0967" fill="#BE452B"/>
</g>
<defs>
<clipPath id="clip0_599_2775">
<rect width="77.3956" height="81.7034" fill="white"/>
</clipPath>
</defs>
</svg>
