<svg width="76" height="80" viewBox="0 0 76 80" fill="none" xmlns="http://www.w3.org/2000/svg">
<g clip-path="url(#clip0_599_2783)">
<path d="M8.23492 76.253H17.9012C17.9274 76.1348 17.9537 76.0954 17.9537 76.0429C17.9537 71.5512 17.9668 67.0464 17.9537 62.5548C17.9537 61.6092 17.5597 61.2677 16.6009 61.2677C14.3026 61.2677 12.0042 61.2677 9.70587 61.2677C8.56326 61.2677 8.23492 61.596 8.23492 62.7518C8.23492 66.1665 8.23492 69.5681 8.23492 72.9828V76.2662M42.5133 76.2662C42.5264 76.1086 42.5396 76.0035 42.5396 75.9115C42.5396 67.1252 42.5396 58.3521 42.5396 49.5658C42.5396 48.607 42.1456 48.2393 41.1474 48.2393C38.9541 48.2393 36.7608 48.2393 34.5676 48.2393C33.0835 48.2393 32.7945 48.5151 32.7945 49.9861V76.2662H42.5133ZM57.3935 76.2662H67.0598C67.0729 76.0297 67.1123 75.8327 67.1123 75.6357C67.1123 59.5341 67.1123 43.4324 67.1123 27.3308C67.1123 26.1488 66.8102 25.8598 65.6414 25.8598C63.4743 25.8598 61.3073 25.8598 59.1272 25.8598C57.5905 25.8598 57.4067 26.0568 57.4067 27.6197V76.2662H57.3935ZM1.12971 79.4051C0.775101 79.0242 0.249762 78.6959 0.0921601 78.2493C-0.275577 77.238 0.499298 76.345 1.66818 76.3187C2.79766 76.2924 3.92714 76.3187 5.13542 76.3187V75.3993C5.13542 71.2623 5.22735 67.1252 5.10915 62.9882C5.01722 59.7968 7.24991 57.9975 9.92914 58.1419C12.0962 58.247 14.2763 58.1551 16.4433 58.1682C19.3721 58.1682 21.0532 59.8493 21.0663 62.7912C21.0795 66.9545 21.0663 71.1178 21.0663 75.268V76.253H29.695V75.3731C29.695 66.8232 29.695 58.2601 29.695 49.7102C29.695 47.3725 30.9164 45.7177 33.0047 45.258C33.4249 45.1661 33.8715 45.1529 34.318 45.1529C36.5376 45.1529 38.7571 45.1529 40.9898 45.1529C43.9711 45.1529 45.6653 46.834 45.6653 49.8022C45.6653 58.2995 45.6653 66.81 45.6653 75.3074V76.2793H54.3203V75.3074C54.3203 59.3634 54.3203 43.4193 54.3203 27.4621C54.3203 25.5578 54.9376 24.0474 56.6975 23.22C57.341 22.9179 58.1421 22.8129 58.8645 22.7997C61.1366 22.7472 63.4087 22.7735 65.6939 22.7866C68.5833 22.7866 70.2381 24.4677 70.2512 27.3702C70.2644 31.1132 70.2512 34.8694 70.2512 38.6125V76.3318C71.2756 76.3318 72.2081 76.3318 73.1406 76.3318C74.2832 76.3318 74.9267 76.6996 75.1369 77.435C75.3601 78.2493 75.0581 78.8009 74.0731 79.4313H1.12971V79.4051Z" fill="#BE452B"/>
<path d="M49.4744 18.3212C54.5702 13.2254 59.6134 8.18216 64.6961 3.0995C63.0807 3.0995 61.439 3.0995 59.7973 3.0995C58.3395 3.0995 57.5646 2.5479 57.5909 1.52348C57.6171 0.525339 58.3657 0 59.7841 0C62.6078 0 65.4184 0 68.229 0C69.6211 0 70.1859 0.525339 70.199 1.89122C70.2253 4.67552 70.199 7.47295 70.2121 10.2572C70.2121 11.8595 68.8331 12.3586 67.9532 11.8858C67.2702 11.5181 67.1126 10.8877 67.1126 10.1784C67.1126 8.89137 67.1126 7.59115 67.1126 6.30407V5.31906C66.7843 5.63426 66.5873 5.81813 66.3903 6.002C61.3076 11.0847 56.225 16.1542 51.1423 21.2368C49.9078 22.4714 49.2511 22.4714 48.0297 21.2368C46.3092 19.5164 44.5887 17.809 42.8682 16.0885C42.8288 16.0491 42.7894 16.036 42.5136 15.7733C42.356 16.036 42.2378 16.3643 42.0277 16.5745C33.5041 25.1112 24.9673 33.648 16.4305 42.1847C16.181 42.4343 15.9183 42.697 15.6163 42.894C15.0384 43.2748 14.2504 43.1829 13.7644 42.7232C13.2785 42.2504 13.1472 41.4755 13.5018 40.8845C13.6725 40.5956 13.9089 40.3461 14.1453 40.1097C23.1549 31.1001 32.1513 22.0905 41.1609 13.0809C42.356 11.8858 43.039 11.8858 44.2341 13.0809C46.0071 14.854 47.767 16.627 49.4612 18.3212" fill="#BE452B"/>
<path d="M9.61572 48.5677C8.76204 48.5677 8.09224 47.911 8.0791 47.0573C8.0791 46.2299 8.76204 45.5076 9.58945 45.5076C10.4037 45.5076 11.1261 46.2036 11.1261 47.0311C11.1261 47.8716 10.4563 48.5545 9.61572 48.5677Z" fill="#BE452B"/>
</g>
<defs>
<clipPath id="clip0_599_2783">
<rect width="75.1629" height="79.405" fill="white"/>
</clipPath>
</defs>
</svg>
