<svg width="74" height="74" viewBox="0 0 74 74" fill="none" xmlns="http://www.w3.org/2000/svg">
<g clip-path="url(#clip0_599_2606)">
<path d="M50.2376 3.51966C50.1982 3.651 50.185 3.6904 50.185 3.74293C50.185 10.4673 50.1456 17.1916 50.1982 23.916C50.2244 26.7922 52.7855 29.1562 55.688 29.1694C58.6167 29.1694 61.204 26.8185 61.2303 23.9028C61.296 18.3868 61.2828 12.8838 61.2303 7.36777C61.2172 5.34522 59.5624 3.6116 57.5398 3.54593C55.1232 3.454 52.6935 3.51966 50.2376 3.51966ZM17.4695 3.51966C14.9873 3.51966 12.5708 3.46713 10.1805 3.5328C8.13164 3.59846 6.45056 5.33208 6.43742 7.38091C6.39802 12.897 6.38489 18.3999 6.43742 23.916C6.46369 26.7397 8.95905 29.0906 11.7828 29.1562C14.9085 29.235 17.4827 26.7659 17.4827 23.6008C17.5089 17.0734 17.4827 10.5329 17.4827 4.0056C17.4827 3.86113 17.4827 3.7298 17.4564 3.51966M35.5806 3.54593V5.69982C35.5806 11.6493 35.5806 17.5988 35.5806 23.5614C35.5806 26.7659 38.1679 29.2613 41.32 29.1694C44.2881 29.0774 46.6521 26.6083 46.6653 23.522C46.6784 17.0077 46.6653 10.4935 46.6653 3.99247C46.6653 3.848 46.6521 3.71667 46.639 3.54593H35.5806ZM21.0025 3.54593V5.69982C21.0025 11.6493 21.0025 17.5988 21.0025 23.5614C21.0025 26.7659 23.5898 29.2613 26.7418 29.1694C29.71 29.0774 32.074 26.6083 32.0871 23.522C32.1002 17.0077 32.0871 10.4935 32.0871 3.99247C32.0871 3.848 32.074 3.71667 32.0608 3.54593H21.0025ZM48.4252 28.9855C44.8791 33.6216 37.8527 34.1207 33.8207 29.0512C29.9201 34.0156 22.8937 33.7267 19.2426 29.0118C18.9274 29.3532 18.6384 29.6947 18.3232 30.0099C15.7753 32.5709 11.9272 33.3721 8.63071 32.0193C5.22914 30.6272 2.94392 27.3569 2.91765 23.7584C2.89138 18.3605 2.89138 12.9626 2.91765 7.57791C2.94392 3.34893 6.22729 0.0261574 10.4694 0.0130239C26.0457 -0.000109543 41.622 -0.000109543 57.2115 0.0130239C61.4404 0.0130239 64.7238 3.33579 64.7501 7.57791C64.7763 12.9495 64.7763 18.3211 64.7501 23.6927C64.7369 27.4489 62.3073 30.8242 58.7612 32.1113C55.2152 33.3983 51.3145 32.3477 48.8454 29.4583C48.7272 29.3138 48.5959 29.1694 48.4383 28.9724" fill="#BE452B"/>
<path d="M23.9181 69.9619H70.0035V25.6627C70.0035 24.1261 70.6208 23.3249 71.7765 23.338C72.9192 23.3512 73.497 24.1392 73.497 25.6364V71.1965C73.497 72.9169 72.9323 73.4817 71.2512 73.4817C55.0576 73.4817 38.8772 73.4817 22.6836 73.4817C20.9762 73.4817 20.4115 72.917 20.4115 71.2096V43.1959H9.32684V71.2096C9.32684 72.917 8.7621 73.4817 7.05475 73.4817C5.3474 73.4817 3.65318 73.4817 1.94583 73.4817C0.737545 73.4817 -0.0241968 72.7725 -0.0110633 71.7087C0.00207016 70.6711 0.750679 70.0013 1.93269 69.9882C3.19351 69.9882 4.45432 69.9882 5.8202 69.9882V69.1082C5.8202 60.0461 5.8202 50.984 5.8202 41.9219C5.8202 40.2277 6.38494 39.663 8.09229 39.663C12.6365 39.663 17.1807 39.663 21.7248 39.663C23.2877 39.663 23.8919 40.2671 23.8919 41.8169C23.8919 50.879 23.8919 59.9411 23.8919 69.0032V69.9619H23.9181Z" fill="#BE452B"/>
<path d="M32.1135 61.1887H61.2173V43.2089H32.1135V61.1887ZM46.6654 64.7478H30.7739C29.1716 64.7478 28.5806 64.1568 28.5806 62.5414C28.5806 55.6332 28.5806 48.7381 28.5806 41.8431C28.5806 40.2802 29.1847 39.676 30.7345 39.676C41.3594 39.676 51.9844 39.676 62.5963 39.676C64.146 39.676 64.7502 40.2802 64.7502 41.8431C64.7502 48.7644 64.7502 55.6989 64.7502 62.6202C64.7502 64.1306 64.1329 64.7478 62.6357 64.7478C57.3166 64.7478 51.9844 64.7478 46.6654 64.7478Z" fill="#BE452B"/>
<path d="M73.5092 10.5067C73.5092 11.426 73.5092 12.3585 73.5092 13.2778C73.4961 14.4205 72.7869 15.1822 71.7493 15.1691C70.7381 15.1691 70.0288 14.4205 70.0157 13.3172C70.0026 11.4523 70.0026 9.5742 70.0157 7.70924C70.0157 6.60603 70.7381 5.87056 71.7493 5.85742C72.7869 5.85742 73.4829 6.5929 73.5092 7.74864V10.5198V10.5067Z" fill="#BE452B"/>
</g>
<defs>
<clipPath id="clip0_599_2606">
<rect width="73.5081" height="73.495" fill="white"/>
</clipPath>
</defs>
</svg>
