<svg width="76" height="76" viewBox="0 0 76 76" fill="none" xmlns="http://www.w3.org/2000/svg">
<g clip-path="url(#clip0_599_2613)">
<path d="M22.9032 14.3154C22.8375 15.5499 22.6931 16.7188 23.9013 17.4674C24.6762 17.9402 25.5956 17.8745 26.3048 17.3098C27.316 16.4955 27.1584 15.4055 27.0665 14.3154H22.9163H22.9032ZM48.9206 14.3154C48.8681 15.5762 48.7105 16.7845 49.9976 17.5068C50.7856 17.9533 51.7049 17.8614 52.3878 17.2704C53.3335 16.4561 53.1627 15.3923 53.0839 14.3154H48.9206ZM35.9185 14.3154C35.8659 15.5631 35.6689 16.7713 36.9429 17.5068C37.7309 17.9665 38.5452 17.9139 39.2675 17.3755C40.3444 16.5743 40.1474 15.4449 40.0686 14.3022H35.9316L35.9185 14.3154ZM55.4348 14.3285C55.3429 15.5105 55.2378 16.6531 56.341 17.4017C57.0896 17.9139 57.9039 17.9271 58.6656 17.428C59.8214 16.6794 59.7032 15.5105 59.6113 14.3285H55.4348ZM29.3911 14.3154C29.3123 15.5893 29.2204 16.7845 30.4681 17.4937C31.2298 17.9271 32.1098 17.8614 32.7927 17.3098C33.804 16.5087 33.6595 15.4186 33.5938 14.3022H29.3911V14.3154ZM42.4064 14.3154C42.3145 15.5499 42.2357 16.6925 43.3914 17.4411C44.1138 17.9139 45.02 17.8745 45.716 17.3755C46.793 16.5875 46.6879 15.4711 46.5829 14.3154H42.3933H42.4064ZM20.5786 14.2891H16.389C16.3102 15.5499 16.192 16.7188 17.374 17.4543C18.1226 17.9139 18.9106 17.9008 19.6329 17.428C20.7493 16.6925 20.6574 15.5499 20.5786 14.2891ZM35.3012 37.4434H40.6859V29.4057H35.3012V37.4434ZM16.4152 41.2915H59.6113V39.7812H16.4152V41.2915ZM16.8749 11.9907H59.1122C59.0071 11.6624 58.9283 11.3735 58.8233 11.1108C57.8251 8.40531 56.7876 5.71294 55.8288 3.00745C55.6055 2.39017 55.3166 2.23257 54.6862 2.23257C44.2451 2.25884 33.7908 2.2457 23.3497 2.2457C22.4172 2.2457 21.2484 1.94363 20.618 2.39017C19.9613 2.86298 19.8168 4.05812 19.4885 4.9512C18.6217 7.27583 17.768 9.60045 16.8749 11.9907ZM18.3196 20.3568V37.4566H33.0291V36.5372C33.0291 33.8974 33.0291 31.2444 33.0291 28.6046C33.0291 27.5014 33.41 27.1336 34.5263 27.1205C36.8247 27.1205 39.123 27.1205 41.4214 27.1205C42.5903 27.1205 42.9711 27.4883 42.9711 28.644C42.9711 31.2838 42.9711 33.9368 42.9711 36.5766V37.4566H57.6806V20.0678C56.3148 20.0941 55.2115 19.5819 54.2922 18.6626C51.9019 20.5538 50.5492 20.5538 47.7255 18.702C45.414 20.5538 43.6541 20.5406 41.2638 18.6888C38.821 20.5538 37.4157 20.5538 34.7102 18.6888C32.5169 20.5406 30.7833 20.5538 28.2222 18.6888C27.316 19.5162 26.2785 20.0547 25.0045 20.0678C23.7043 20.0678 22.6537 19.5162 21.9313 18.8464C20.6836 19.3718 19.5804 19.8446 18.3196 20.3699M16.0344 37.4566V36.616C16.0344 31.1131 16.0344 25.6102 16.0344 20.1072C16.0344 19.595 15.9424 19.2273 15.5222 18.8727C14.5766 18.0715 14.1694 16.9946 14.1038 15.7601C14.025 14.0396 14.222 12.3979 14.8918 10.7693C16.1657 7.63043 17.2689 4.42586 18.4509 1.24756C18.8712 0.131213 19.0551 -0.00012207 20.2765 -0.00012207C32.0966 -0.00012207 43.9036 -0.00012207 55.7106 -0.00012207C56.9714 -0.00012207 57.129 0.104946 57.5756 1.30009C58.9283 4.9512 60.4387 8.54978 61.5813 12.2666C62.3168 14.6568 62.4481 17.1916 60.2154 19.1354C60.0841 19.2536 59.9921 19.5031 59.9921 19.687C59.9921 25.5576 59.9921 31.4414 60.0053 37.3121C60.0053 37.3384 60.0315 37.3515 60.0315 37.3778C60.0709 37.404 60.1103 37.4566 60.1497 37.4566C61.752 37.5748 61.8965 37.7324 61.8965 39.3478C61.8965 40.3065 61.8965 41.2653 61.8965 42.2372C61.8965 43.1434 61.4893 43.5374 60.57 43.5899C60.3861 43.5899 60.2023 43.5899 60.0053 43.5899H16.0081C14.3664 43.5899 14.1038 43.3404 14.1038 41.6987V39.4529C14.1038 37.7192 14.222 37.601 16.0212 37.4434" fill="#BE452B"/>
<path d="M36.2992 73.6919H39.727V68.3334H36.2992V73.6919ZM45.9917 61.1757C45.4401 59.7179 44.9541 58.3651 44.4157 57.0386C44.35 56.8942 44.0479 56.7628 43.8509 56.7628C39.9503 56.7497 36.0496 56.7497 32.1621 56.7628C31.9783 56.7628 31.6762 56.8416 31.6237 56.9598C31.0721 58.3389 30.5598 59.7179 30.0214 61.1757H46.0048H45.9917ZM33.922 73.7182C33.9483 73.6131 33.9877 73.5606 33.9877 73.5212C33.9877 71.538 33.9877 69.568 33.9877 67.5848C33.9877 66.4291 34.3554 66.0745 35.5243 66.0745C37.1003 66.0745 38.6763 66.0745 40.2524 66.0745C41.7102 66.0745 41.9991 66.3634 41.9991 67.795C41.9991 69.765 41.9991 71.735 41.9991 73.7182H44.8885V63.5397H31.0589V73.7313H33.9089L33.922 73.7182ZM47.2131 63.5529V70.2378C47.2131 71.7087 47.2131 73.1797 47.2131 74.6506C47.2 75.6357 46.806 76.0034 45.8341 76.0034C45.1643 76.0034 44.4945 76.0034 43.8247 76.0034C39.333 76.0034 34.8545 76.0034 30.3628 76.0034C29.1283 76.0034 28.7868 75.6751 28.7737 74.4536C28.7737 71.144 28.7737 67.8344 28.7737 64.5247V63.5529C28.5373 63.5003 28.3666 63.4741 28.1827 63.4215C27.4078 63.2114 27.0663 62.6598 27.3421 61.9112C28.1433 59.7047 28.9444 57.4983 29.8506 55.3313C29.9951 54.9636 30.5992 54.5696 30.9933 54.5696C35.6688 54.517 40.3443 54.517 45.0198 54.5696C45.4138 54.5696 45.9917 54.9898 46.1493 55.3576C47.0292 57.4983 47.8304 59.6785 48.6184 61.8586C48.9599 62.778 48.579 63.2377 47.2 63.566" fill="#BE452B"/>
<path d="M9.02102 73.718H12.462V68.3727H9.02102V73.718ZM18.7267 61.1756C18.1882 59.7309 17.6891 58.3913 17.1638 57.0516C17.1112 56.9072 16.8486 56.7627 16.691 56.7627C12.7378 56.7496 8.78462 56.7496 4.83144 56.7627C4.66071 56.7627 4.3849 56.8809 4.33237 57.0122C3.7939 58.365 3.29483 59.7309 2.75635 61.1624H18.7267V61.1756ZM17.6629 63.5264H3.82016V73.7049H6.7358C6.7358 71.5641 6.7358 69.489 6.7358 67.414C6.7358 66.5603 7.11667 66.0875 7.89154 66.0743C9.78277 66.0481 11.6871 66.0481 13.5783 66.0743C14.3007 66.0743 14.7078 66.5077 14.7472 67.2301C14.7604 67.5716 14.7472 67.9262 14.7472 68.2676C14.7472 70.0801 14.7472 71.8793 14.7472 73.6918H17.6629V63.5264ZM19.9612 63.579V64.4195C19.9612 67.7554 19.9612 71.0913 19.9612 74.4404C19.9612 75.6749 19.6197 76.0033 18.3852 76.0033C13.3157 76.0033 8.23302 76.0033 3.16349 76.0033C1.83701 76.0033 1.53494 75.7012 1.53494 74.3353C1.53494 71.0519 1.53494 67.7686 1.53494 64.4852V63.5658C1.31167 63.5133 1.11467 63.4608 0.917665 63.4082C0.18219 63.1981 -0.15928 62.6465 0.090256 61.9373C0.904532 59.7046 1.71881 57.485 2.61188 55.2786C2.75635 54.9371 3.32109 54.5563 3.70196 54.5431C8.40375 54.4906 13.1055 54.5037 17.8073 54.5169C18.3852 54.5169 18.7398 54.8321 18.9499 55.3574C19.7511 57.5113 20.5785 59.6521 21.3665 61.7928C21.7211 62.7516 21.3796 63.1587 19.9743 63.5658" fill="#BE452B"/>
<path d="M66.9932 68.3596H63.5654V73.7181H66.9932V68.3596ZM73.2579 61.1887C72.7063 59.7178 72.2204 58.3782 71.6819 57.0517C71.6293 56.9072 71.3141 56.789 71.1171 56.789C67.2165 56.7759 63.3159 56.7759 59.4283 56.789C59.2445 56.789 58.9424 56.8678 58.8899 56.986C58.3383 58.365 57.8392 59.744 57.2876 61.2019H73.2579V61.1887ZM61.1488 73.7312C61.2014 73.6393 61.2276 73.613 61.2276 73.5999C61.2276 71.5379 61.2276 69.4891 61.2539 67.4271C61.2539 66.4684 61.661 66.0744 62.6329 66.0612C64.2877 66.0612 65.9425 66.0612 67.5974 66.0612C68.9633 66.0612 69.2653 66.3764 69.2653 67.7686V73.6918H72.1547V63.5134H58.3514V73.7312H61.1357H61.1488ZM56.053 63.5528C54.5033 63.185 54.28 62.7779 54.8054 61.3857C55.5277 59.4682 56.2632 57.5508 56.9592 55.6201C57.2482 54.8321 57.721 54.5038 58.5747 54.5038C63.04 54.5301 67.4923 54.5301 71.9577 54.5038C72.8508 54.5038 73.3236 54.8584 73.6125 55.6727C74.2954 57.577 75.0309 59.4682 75.7401 61.3726C76.2655 62.7779 76.0422 63.1982 74.5318 63.5396C74.5318 63.8023 74.4924 64.0781 74.4924 64.367C74.4924 67.6767 74.4924 70.9863 74.4924 74.2959C74.4924 75.7012 74.1904 76.0033 72.8245 76.0033C67.7812 76.0033 62.7248 76.0033 57.6816 76.0033C56.3945 76.0033 56.0793 75.6881 56.0662 74.401C56.0662 71.1176 56.0662 67.8343 56.0662 64.5509V63.5659L56.053 63.5528Z" fill="#BE452B"/>
<path d="M11.8701 25.8202V33.3194C11.8701 39.282 11.8701 45.2315 11.8701 51.1941C11.8701 51.4567 11.8963 51.7326 11.8438 51.9952C11.7256 52.5468 11.3579 52.9014 10.78 52.9146C10.1627 52.9277 9.78184 52.5731 9.65051 51.9821C9.59798 51.7457 9.62424 51.5093 9.62424 51.2597C9.62424 42.6048 9.62424 33.9498 9.62424 25.2949C9.62424 23.8896 9.92631 23.5875 11.2922 23.5875C11.9357 23.5875 12.5793 23.5744 13.2097 23.5875C13.9452 23.6138 14.418 24.0734 14.418 24.7038C14.418 25.3343 13.932 25.7808 13.2097 25.8202C12.9995 25.8202 12.7763 25.8202 12.5661 25.8202H11.8569" fill="#BE452B"/>
<path d="M64.1434 25.8072C63.5787 25.8072 63.1321 25.8335 62.6725 25.8072C62.0158 25.7547 61.543 25.2687 61.5824 24.6646C61.6349 24.0211 62.0158 23.6271 62.6593 23.5877C63.5393 23.5483 64.4192 23.5483 65.2991 23.5877C65.9427 23.6139 66.2973 24.0342 66.363 24.6777C66.3761 24.8616 66.363 25.0455 66.363 25.2425V51.2862C66.363 51.47 66.3761 51.667 66.363 51.8509C66.2842 52.4944 65.9164 52.8885 65.2597 52.9016C64.6031 52.9016 64.2222 52.5207 64.1434 51.8772C64.104 51.6145 64.1303 51.3387 64.1303 51.076V25.8203L64.1434 25.8072Z" fill="#BE452B"/>
<path d="M36.8774 49.0404C36.8774 48.1604 36.8643 47.2805 36.8774 46.4005C36.8906 45.6519 37.324 45.2054 37.9806 45.1923C38.6373 45.1923 39.097 45.6257 39.1101 46.3611C39.1364 48.1473 39.1364 49.9334 39.1101 51.7196C39.1101 52.4419 38.5979 52.9147 37.9675 52.9016C37.3371 52.8885 36.8906 52.4025 36.8774 51.6671C36.8643 50.7871 36.8774 49.9072 36.8774 49.0272" fill="#BE452B"/>
<path d="M53.0445 29.4186H47.6992V32.8465H53.0445V29.4186ZM50.3259 35.1317C49.157 35.1317 47.975 35.1317 46.8061 35.1317C45.7817 35.1317 45.3877 34.7508 45.3877 33.7527C45.3877 31.9928 45.3877 30.2329 45.3877 28.473C45.3877 27.5537 45.7948 27.1334 46.701 27.1334C49.1307 27.1203 51.5604 27.1334 53.9901 27.1334C54.9095 27.1334 55.3297 27.5405 55.3297 28.4467C55.3429 30.2329 55.3297 32.0191 55.3297 33.8052C55.3297 34.7246 54.9226 35.1317 54.0164 35.1448C52.795 35.1448 51.5604 35.1448 50.339 35.1448" fill="#BE452B"/>
<path d="M22.9694 32.8338H28.3148V29.406H22.9694V32.8338ZM25.6618 35.1322C24.4404 35.1322 23.2058 35.1322 21.9844 35.1322C21.1176 35.1322 20.6974 34.725 20.6974 33.8582C20.6842 32.0458 20.6842 30.2334 20.6974 28.421C20.6974 27.5541 21.1176 27.1339 21.9713 27.1339C24.4273 27.1207 26.8832 27.1207 29.3392 27.1339C30.206 27.1339 30.6263 27.5541 30.6263 28.421C30.6394 30.2334 30.6394 32.0458 30.6263 33.8582C30.6263 34.725 30.206 35.1322 29.3523 35.1453C28.1309 35.1584 26.8964 35.1453 25.6749 35.1453" fill="#BE452B"/>
<path d="M38.0063 24.7038H30.1525C29.9423 24.7038 29.719 24.7038 29.5089 24.7038C28.8391 24.6513 28.3532 24.2048 28.3794 23.6006C28.4057 22.9046 28.826 22.5368 29.4958 22.4711C29.8372 22.4449 30.1919 22.4711 30.5333 22.4711H45.8207C46.0571 22.4711 46.3066 22.4449 46.543 22.4711C47.1734 22.5631 47.5675 22.9308 47.5937 23.5744C47.62 24.1785 47.1472 24.6513 46.4774 24.6907C45.8864 24.717 45.3085 24.6907 44.7175 24.6907H37.9931" fill="#BE452B"/>
<path d="M28.7994 6.0937C28.2084 6.0937 27.6306 6.10683 27.0396 6.0937C26.3041 6.06743 25.8313 5.6209 25.8181 5.00362C25.805 4.37321 26.2778 3.87414 27.0002 3.86101C28.2478 3.83474 29.5086 3.83474 30.7563 3.86101C31.4393 3.86101 31.8464 4.26815 31.8989 4.95109C31.9383 5.58149 31.4393 6.0543 30.7301 6.0937C30.0865 6.11997 29.4561 6.0937 28.8126 6.0937" fill="#BE452B"/>
</g>
<defs>
<clipPath id="clip0_599_2613">
<rect width="75.9772" height="76.0035" fill="white"/>
</clipPath>
</defs>
</svg>
