<svg width="83" height="83" viewBox="0 0 83 83" fill="none" xmlns="http://www.w3.org/2000/svg">
<g clip-path="url(#clip0_599_2734)">
<path d="M58.9574 15.0772C53.5595 15.0772 48.1748 15.0772 42.7769 15.0772C40.0977 15.0772 38.3641 16.7846 38.3641 19.4376C38.3641 26.569 38.3641 33.7005 38.3641 40.832C38.3641 43.485 40.0977 45.1923 42.7769 45.2054C45.7714 45.2054 48.7658 45.2054 51.7602 45.2054C52.9291 45.2054 53.4282 45.6914 53.4282 46.8734C53.4282 48.607 53.4151 50.3538 53.4413 52.0874C53.4413 52.4945 53.6646 52.9017 53.7828 53.3219C54.1505 53.1249 54.6102 53.0199 54.886 52.7309C57.1056 50.5508 59.312 48.3706 61.479 46.1379C62.1226 45.4813 62.7924 45.1792 63.7248 45.1792C67.4548 45.2186 71.1978 45.2054 74.9408 45.1923C77.7383 45.1923 79.4325 43.5112 79.4456 40.7401C79.4456 33.6743 79.4456 26.5953 79.4456 19.5164C79.4456 16.7452 77.7514 15.0641 74.954 15.0641C69.6218 15.0641 64.2896 15.0641 58.9574 15.0641M50.6964 47.9372C48.0566 47.9372 45.5218 47.9372 42.9871 47.9372C38.4823 47.9372 35.6323 45.0741 35.6323 40.5431C35.6323 33.5823 35.6323 26.6216 35.6323 19.6608C35.6323 15.2086 38.5086 12.3192 42.9477 12.3192C53.5858 12.3192 64.2239 12.3192 74.8752 12.3192C79.3274 12.3192 82.2037 15.1954 82.2037 19.6477C82.2037 26.6347 82.2037 33.6217 82.2037 40.6087C82.2037 45.0084 79.3143 47.9109 74.9277 47.9109C71.4473 47.9109 67.967 47.9241 64.4866 47.8978C63.8299 47.8978 63.3834 48.1079 62.9368 48.5545C60.8617 50.669 58.7473 52.7572 56.6459 54.8586C55.3851 56.1194 54.0586 56.4608 52.7059 55.8436C51.2349 55.1738 50.657 53.9655 50.6964 52.3895C50.7227 50.9316 50.6964 49.487 50.6964 47.9109" fill="#BE452B"/>
<path d="M32.9285 62.9749C34.6096 62.8041 35.6603 61.6484 35.634 60.1512C35.6077 59.0742 34.5965 57.4982 32.9285 57.577V62.988V62.9749ZM9.60345 69.8962C9.60345 72.3522 9.60345 74.7162 9.60345 77.0802C9.60345 78.4987 10.4177 79.4311 11.6391 79.4443C12.8868 79.4574 13.7142 78.5118 13.7142 77.0408C13.7142 74.8738 13.7142 72.7068 13.7142 70.5529C13.7142 70.3428 13.6748 70.1195 13.6617 69.8962H9.61658H9.60345ZM13.6748 53.4268C12.217 53.4268 10.7986 53.4006 9.38018 53.4268C6.07054 53.5056 3.37818 55.9353 2.82658 59.3106C2.3275 62.3707 4.19246 65.5359 7.18689 66.6523C9.31451 67.4534 11.5078 66.9675 13.6748 67.1251V53.4137V53.4268ZM16.4854 66.9281C18.9151 67.414 21.3054 67.808 23.63 68.4121C25.994 69.0294 28.1085 70.2508 30.0785 71.7612V48.7513C26.0334 51.9428 21.3973 53.0854 16.4854 53.3874V66.9412V66.9281ZM32.8891 54.7402C36.2513 55.1473 38.3526 57.2881 38.3658 60.2168C38.3789 63.185 36.317 65.3258 32.8891 65.7854V67.3746C32.8891 69.9094 32.8891 72.4573 32.8891 74.992C32.8891 75.7538 32.679 76.3579 31.9041 76.6074C31.1686 76.8438 30.6827 76.463 30.2362 75.8982C27.9509 72.9169 24.7726 71.4066 21.2266 70.5529C19.7162 70.1852 18.1402 70.0407 16.4329 69.7649V70.8024C16.4329 72.9169 16.4329 75.0314 16.4329 77.1328C16.4329 80.0221 14.3578 82.1629 11.6129 82.1629C8.92051 82.1629 6.85855 80.009 6.84542 77.1722C6.84542 74.8344 6.81915 72.4967 6.84542 70.1589C6.84542 69.6073 6.66155 69.384 6.16248 69.187C1.74963 67.4797 -0.680064 63.0931 0.160479 58.4044C0.961621 54.0047 4.92793 50.7476 9.55092 50.6819C12.4271 50.6425 15.3165 50.6951 18.1927 50.4849C21.8307 50.2091 25.2323 49.0797 28.1217 46.755C28.8703 46.1509 29.5269 45.4285 30.1573 44.6931C30.6302 44.1283 31.103 43.6687 31.891 43.9313C32.7052 44.194 32.8628 44.8507 32.8628 45.6387C32.8497 48.3836 32.8628 51.1153 32.8628 53.8602V54.7665L32.8891 54.7402Z" fill="#BE452B"/>
<path d="M23.3003 35.6181C23.3003 37.2336 23.3003 38.7308 23.3003 40.2411C23.3003 41.8565 22.5648 43.0648 21.2384 43.577C19.8068 44.1418 18.5591 43.7609 17.4822 42.6971C15.2758 40.5038 13.0956 38.2842 10.8629 36.1172C10.574 35.8414 10.088 35.6707 9.69404 35.6313C8.32816 35.5262 6.93601 35.6575 5.59639 35.4474C2.40496 34.9352 0.04093 32.164 0.0277965 28.9201C0.00152954 21.5128 -0.0116039 14.0924 0.0277965 6.67196C0.0540635 3.06025 3.03536 0.052681 6.64707 0.0264141C17.7449 0.000147127 28.8427 0.000147127 39.9404 0.0264141C43.5127 0.0264141 46.4415 3.00771 46.5729 6.58002C46.586 7.09223 46.5991 7.60443 46.5729 8.11664C46.5466 8.99658 45.995 9.57445 45.2201 9.58759C44.4452 9.58759 43.8805 9.02285 43.8411 8.15604C43.8148 7.76203 43.8411 7.3549 43.8411 6.96089C43.8017 4.50493 42.0681 2.75818 39.6121 2.75818C33.5576 2.75818 27.5162 2.75818 21.4616 2.75818C16.7205 2.75818 11.9924 2.75818 7.25121 2.75818C4.41438 2.75818 2.74643 4.43926 2.74643 7.28923C2.74643 14.3025 2.74643 21.3289 2.74643 28.3422C2.74643 31.1922 4.41438 32.8732 7.25121 32.8732C8.27562 32.8732 9.31317 32.9127 10.3376 32.8732C11.1781 32.8339 11.7954 33.1097 12.3864 33.7007C14.6191 35.9859 16.8912 38.2317 19.1633 40.4775C19.4259 40.7402 19.8594 40.8321 20.214 40.9897C20.3322 40.6351 20.5423 40.2805 20.5423 39.9259C20.5817 38.1266 20.5423 36.3274 20.5554 34.5281C20.5554 33.3592 21.0545 32.8732 22.2365 32.8732C25.2309 32.8732 28.2254 32.8732 31.2198 32.8732C32.2442 32.8732 32.8484 33.3855 32.8746 34.2129C32.9009 35.0665 32.2574 35.605 31.1935 35.605C28.5931 35.605 26.0058 35.605 23.2872 35.605" fill="#BE452B"/>
<path d="M25.3775 15.1297H20.0059C19.4937 16.9421 18.9815 18.702 18.4693 20.5013H23.8278C24.34 18.7151 24.839 16.9683 25.3644 15.1297M14.8182 23.2856C13.5311 23.2856 12.3885 23.2856 11.2459 23.2856C10.2215 23.2856 9.61734 22.7733 9.60421 21.9459C9.59107 21.0923 10.2215 20.5538 11.2853 20.5538C12.5461 20.5538 13.7938 20.5801 15.0546 20.5275C15.291 20.5275 15.6587 20.3043 15.7244 20.1073C16.2235 18.4787 16.67 16.837 17.1691 15.0771C16.079 15.0771 15.0677 15.0771 14.0565 15.0771C12.9795 15.0771 12.3491 14.5649 12.3491 13.7112C12.3491 12.8576 12.9664 12.3454 14.0433 12.3322C15.3304 12.3322 16.6044 12.3322 17.944 12.3322C18.3511 10.9138 18.7582 9.5348 19.1654 8.14265C19.4543 7.17077 20.111 6.69797 20.8859 6.89497C21.7264 7.11824 22.0679 7.85371 21.7921 8.87812C21.49 9.99447 21.1748 11.1108 20.8465 12.2928H26.1918C26.5989 10.9007 26.9929 9.52166 27.4001 8.12951C27.689 7.15764 28.3588 6.69797 29.1337 6.9081C29.9611 7.13137 30.3026 7.87998 30.0136 8.90439C29.7116 10.0207 29.3964 11.1371 29.0549 12.3454C30.2763 12.3454 31.3795 12.3454 32.4959 12.3454C33.6385 12.3454 34.282 12.8576 34.2689 13.7375C34.2558 14.5912 33.6253 15.0771 32.5353 15.0771C31.3139 15.0771 30.0793 15.064 28.8579 15.1034C28.6084 15.1034 28.2275 15.3004 28.1618 15.4974C27.6496 17.1522 27.1899 18.8202 26.704 20.5669C27.8466 20.5669 28.8973 20.5669 29.948 20.5669C30.8936 20.5669 31.4977 21.0923 31.524 21.8934C31.5503 22.7208 30.933 23.2856 29.948 23.2987C28.6346 23.2987 27.3344 23.2987 25.9291 23.2987C25.5089 24.7434 25.1149 26.1881 24.6814 27.6196C24.4188 28.4995 23.6964 28.9461 22.9478 28.7228C22.1992 28.4995 21.8183 27.7772 22.0285 26.9498C22.3437 25.7678 22.6852 24.5989 23.0398 23.3512H17.6944C17.2873 24.7434 16.8933 26.1881 16.4599 27.6196C16.1578 28.6046 15.291 29.038 14.4899 28.6046C13.8201 28.2369 13.6099 27.659 13.8201 26.9367C14.1484 25.7678 14.4767 24.5858 14.8445 23.2987" fill="#BE452B"/>
<path d="M42.725 56.1719C41.8057 56.1193 41.3198 55.7647 41.1622 55.0818C41.0046 54.4251 41.2541 53.8341 41.8845 53.5977C43.3686 53.0461 44.8789 52.5208 46.4024 52.0874C47.0722 51.8904 47.6238 52.2975 47.8734 52.9673C48.1098 53.6109 47.9522 54.2675 47.348 54.5171C45.772 55.1606 44.1566 55.6728 42.725 56.1719Z" fill="#BE452B"/>
<path d="M47.9404 66.7311C47.9798 67.9788 47.113 68.6749 46.2068 68.4122C44.7884 67.9919 43.3962 67.5191 42.0041 67.0069C41.2423 66.7311 40.9271 65.9694 41.1898 65.2733C41.4525 64.5772 42.1485 64.2226 42.9234 64.459C44.2762 64.8793 45.642 65.2864 46.9554 65.8249C47.4151 66.0088 47.7303 66.5341 47.9273 66.7311" fill="#BE452B"/>
<path d="M44.4851 61.6353C43.8284 61.6353 43.1718 61.6616 42.5151 61.6353C41.6877 61.5959 41.1361 61.0574 41.1229 60.3088C41.0967 59.5339 41.6745 58.9298 42.5413 58.9167C43.881 58.8904 45.2206 58.8904 46.5602 58.9167C47.3876 58.9298 47.9392 59.4945 47.9655 60.2432C47.9917 61.018 47.4139 61.609 46.5471 61.6353C45.8641 61.6616 45.1812 61.6353 44.4982 61.6353" fill="#BE452B"/>
<path d="M52.0132 27.4359H49.3865V39.6895H52.0132V27.4359ZM63.4262 39.7945C63.4262 39.7945 63.4262 39.7551 63.4262 39.7289C64.5688 39.7289 65.7114 39.7289 66.854 39.7289C67.9835 39.7289 68.4957 39.2298 68.5088 38.1266C68.5088 35.5261 68.5088 32.9388 68.5088 30.3384C68.5088 29.2877 67.9835 28.7887 66.9065 28.7755C65.6851 28.7624 64.4506 28.7755 63.2292 28.7755C61.9552 28.7493 61.4036 27.8825 61.8501 26.6873C62.0471 26.162 62.2967 25.6366 62.4411 25.085C62.7826 23.7979 62.9665 22.4846 62.3361 21.25C62.1785 20.9348 61.6006 20.5671 61.3117 20.6328C60.9308 20.7116 60.6156 21.1844 60.3267 21.5259C60.2216 21.6441 60.3004 21.9067 60.2741 22.1169C59.9458 25.5184 58.3566 28.0795 55.3097 29.6949C55.0601 29.8262 54.8369 30.2333 54.8369 30.5092C54.7975 32.164 54.8106 33.8188 54.8106 35.4736C54.8106 38.0478 55.0339 38.363 57.503 39.2035C57.9889 39.3611 58.488 39.5319 58.987 39.5713C60.458 39.6763 61.9421 39.7289 63.4262 39.7945ZM65.1072 26.0306C65.8033 26.0306 66.4731 26.0306 67.1429 26.0306C69.4413 26.0832 71.2143 27.8168 71.2274 30.1151C71.2537 32.8863 71.2537 35.6443 71.2274 38.4155C71.2012 40.4906 69.6646 42.3293 67.6157 42.4081C64.687 42.5132 61.7319 42.5 58.8163 42.2899C57.3848 42.1848 55.9926 41.5281 54.4429 41.0816C53.7993 42.3293 52.5122 42.5657 51.0676 42.4738C50.4765 42.4344 49.8724 42.4738 49.2683 42.4738C47.771 42.4212 46.6022 41.2917 46.589 39.7945C46.5628 35.6575 46.5628 31.5204 46.589 27.3965C46.589 25.8599 47.7842 24.7304 49.3208 24.691C50.03 24.6779 50.7523 24.691 51.4616 24.691C53.3002 24.691 53.9701 25.1113 54.8106 26.8449C55.1652 26.5297 55.5198 26.267 55.8087 25.9518C56.912 24.7567 57.503 23.3383 57.5424 21.6966C57.5949 19.7397 58.8951 18.2293 60.8257 17.8879C62.6382 17.5727 64.1748 18.492 64.9102 20.357C65.5669 21.9987 65.6063 23.0493 65.0941 26.0569" fill="#BE452B"/>
</g>
<defs>
<clipPath id="clip0_599_2734">
<rect width="82.2025" height="82.1762" fill="white"/>
</clipPath>
</defs>
</svg>
