<svg width="74" height="74" viewBox="0 0 74 74" fill="none" xmlns="http://www.w3.org/2000/svg">
<g clip-path="url(#clip0_599_2719)">
<path d="M54.2009 8.60232C54.2009 9.8106 54.2009 11.0189 54.2009 12.214C54.214 13.6981 55.291 14.8013 56.6963 14.7751C58.0621 14.7619 59.1128 13.6718 59.126 12.2272C59.1391 9.83687 59.126 7.45971 59.126 5.06942C59.126 3.5722 58.0621 2.46899 56.67 2.46899C55.2647 2.46899 54.214 3.55907 54.2009 5.05628C54.2009 6.2383 54.2009 7.42031 54.2009 8.60232ZM34.4875 8.62859C34.4875 9.8106 34.4875 10.9926 34.4875 12.1746C34.4875 13.685 35.5382 14.7751 36.9304 14.7882C38.3225 14.7882 39.3995 13.6981 39.4126 12.2009C39.4126 9.8106 39.4126 7.43344 39.4126 5.04315C39.4126 3.55907 38.3225 2.45585 36.9304 2.46899C35.5251 2.48212 34.5007 3.5722 34.4875 5.08255C34.4875 6.26456 34.4875 7.44658 34.4875 8.62859ZM19.7124 8.69426C19.7124 7.48598 19.7124 6.2777 19.7124 5.08255C19.6992 3.58533 18.6617 2.48212 17.2564 2.46899C15.8511 2.46899 14.8005 3.55907 14.7873 5.05628C14.7873 7.44658 14.7742 9.82374 14.7873 12.214C14.7873 13.6981 15.8774 14.8013 17.2696 14.7882C18.6354 14.7751 19.6861 13.685 19.6992 12.2403C19.7124 11.0583 19.6992 9.87627 19.6992 8.69426M2.46812 22.1298H71.432C71.432 19.1485 71.4846 16.2329 71.4189 13.3041C71.3795 11.4129 69.7509 9.91567 67.8203 9.87627C66.31 9.85 64.7865 9.87627 63.2761 9.87627H61.5819C61.5819 10.7562 61.5819 11.5311 61.5819 12.2928C61.5425 15.0903 59.4018 17.2573 56.67 17.2704C53.9382 17.2704 51.7712 15.1034 51.7318 12.3191C51.7318 11.5311 51.7318 10.7431 51.7318 9.9288H41.8817C41.8817 10.6905 41.8817 11.3998 41.8817 12.1221C41.8686 15.0509 39.7803 17.2573 36.996 17.2704C34.1723 17.2836 32.0447 15.0771 32.0316 12.1221C32.0316 11.3866 32.0316 10.6511 32.0316 9.9288H22.1815C22.1815 10.7299 22.1815 11.4917 22.1815 12.2534C22.1552 15.1034 20.0013 17.2836 17.2433 17.2836C14.4853 17.2836 12.3576 15.0903 12.3314 12.2403C12.3314 11.4786 12.3314 10.7168 12.3314 9.91567C10.0855 9.91567 7.93165 9.83687 5.79089 9.94194C4.01787 10.0207 2.53379 11.5705 2.50752 13.3435C2.45498 16.2591 2.49439 19.1879 2.49439 22.1692M12.3182 7.39404C12.3182 6.52723 12.3182 5.73922 12.3182 4.95121C12.3576 2.16692 14.5247 -0.000107802 17.2564 -0.000107802C19.9882 -0.000107802 22.1289 2.16692 22.1683 4.97748C22.1683 5.73922 22.1683 6.5141 22.1683 7.34151H32.0185C32.0185 6.57977 32.0185 5.83116 32.0185 5.06942C32.0447 2.20632 34.1723 0.0261592 36.9304 0.0130257C39.6884 0.0130257 41.8423 2.18005 41.8817 5.03002C41.8817 5.79176 41.8817 6.5535 41.8817 7.35464H51.7449C51.7449 6.50097 51.7318 5.64729 51.7449 4.78048C51.8106 2.35079 53.6493 0.341363 56.079 0.0261592C58.3905 -0.275911 60.6757 1.19504 61.3587 3.46713C61.5163 3.97934 61.5557 4.53094 61.5819 5.05628C61.6213 5.79176 61.5819 6.54037 61.5819 7.32837C61.8446 7.34151 62.0679 7.36778 62.2911 7.36778C63.9591 7.36778 65.627 7.36778 67.295 7.36778C71.3138 7.36778 73.9011 9.94194 73.9011 13.9476C73.9011 23.3644 73.9011 32.7811 73.9011 42.1978C73.9011 43.2222 73.9011 44.2466 73.9011 45.271C73.9011 46.2166 73.4021 46.7945 72.6403 46.7682C71.9048 46.742 71.4452 46.1903 71.4452 45.271C71.4452 38.7305 71.4452 32.1769 71.4452 25.6364V24.6514H2.46812V25.4526C2.46812 37.7718 2.46812 50.091 2.46812 62.4102C2.46812 64.9581 3.97847 66.4816 6.52636 66.4816C17.6898 66.4816 28.8533 66.4816 40.0167 66.4816C41.2907 66.4816 41.8686 66.8624 41.8817 67.703C41.8817 68.5435 41.3038 68.9507 40.0561 68.9507C28.919 68.9507 17.7818 68.9507 6.64457 68.9507C2.57319 68.9901 -0.000976562 66.4159 -0.000976562 62.3577C-0.000976562 46.2429 -0.000976562 30.1281 -0.000976562 14.0133C-0.000976562 9.95507 2.57319 7.40718 6.64457 7.39404H12.3182Z" fill="#BE452B"/>
<path d="M57.9292 44.3517C50.3775 44.3648 44.3492 50.4062 44.3492 57.958C44.3492 65.3915 50.4694 71.4592 57.9686 71.4461C65.3496 71.4329 71.4304 65.3259 71.4436 57.958C71.4436 50.4587 65.3759 44.3385 57.9292 44.3517ZM73.9127 57.9448C73.8601 66.8362 66.663 73.9545 57.7847 73.9151C48.9196 73.8757 41.8144 66.5998 41.8932 57.6296C41.972 48.909 49.2611 41.83 58.0999 41.8957C66.8206 41.9614 73.9652 49.2111 73.9127 57.9448Z" fill="#BE452B"/>
<path d="M12.3457 36.9049H17.2051V33.3064H12.3457V36.9049ZM14.8148 30.811C15.6291 30.811 16.4565 30.7847 17.2708 30.811C18.6235 30.8504 19.6611 31.8617 19.6873 33.2144C19.7267 34.5015 19.7267 35.7754 19.6873 37.0625C19.6479 38.3759 18.6235 39.3872 17.3102 39.4266C15.616 39.466 13.9217 39.466 12.2275 39.4266C10.9142 39.4003 9.88975 38.3759 9.85035 37.0625C9.81095 35.7754 9.81095 34.5015 9.85035 33.2144C9.88975 31.8617 10.9142 30.8504 12.2669 30.811C13.1075 30.7847 13.9611 30.811 14.8017 30.811" fill="#BE452B"/>
<path d="M31.9784 33.3326H27.1452V36.9312H31.9784V33.3326ZM29.4961 39.4266C28.7213 39.4266 27.9595 39.4266 27.1846 39.4266C25.7006 39.4003 24.663 38.389 24.6367 36.9181C24.6236 35.7098 24.6105 34.5015 24.6367 33.3064C24.663 31.8617 25.6874 30.8373 27.1321 30.8241C28.7475 30.7979 30.3629 30.7979 31.9784 30.8241C33.423 30.8373 34.4606 31.8617 34.4869 33.2932C34.5131 34.5278 34.5131 35.7492 34.4869 36.9837C34.4606 38.3759 33.4362 39.4003 32.0309 39.4266C31.1904 39.4528 30.3367 39.4266 29.4961 39.4266Z" fill="#BE452B"/>
<path d="M41.9226 36.905H46.7558V33.3064H41.9226V36.905ZM44.3655 39.4266C43.5643 39.4266 42.7763 39.4266 41.9752 39.4266C40.4911 39.4004 39.4535 38.3891 39.4273 36.9182C39.4141 35.7099 39.401 34.5016 39.4273 33.3064C39.4535 31.8618 40.478 30.8373 41.9095 30.8111C43.5249 30.7848 45.1403 30.7848 46.7558 30.8111C48.2267 30.8242 49.2511 31.8618 49.2642 33.3458C49.2774 34.5279 49.2774 35.7099 49.2642 36.8919C49.238 38.376 48.2267 39.4004 46.7426 39.4266C45.9415 39.4398 45.1535 39.4266 44.3523 39.4266" fill="#BE452B"/>
<path d="M61.5425 33.3195H56.7094V36.9312H61.5425V33.3195ZM59.1522 39.4266C58.338 39.4266 57.5105 39.4397 56.6963 39.4266C55.2647 39.3872 54.2403 38.3628 54.214 36.9312C54.1878 35.7229 54.1878 34.5147 54.214 33.3195C54.2403 31.8748 55.2516 30.8504 56.6963 30.8241C58.3379 30.7979 59.9796 30.7979 61.6213 30.8241C63.0135 30.8504 64.0379 31.888 64.0641 33.2801C64.0904 34.5147 64.0904 35.7361 64.0641 36.9706C64.0379 38.3628 63.0135 39.3872 61.6213 39.4266C60.807 39.4528 59.9796 39.4266 59.1654 39.4266" fill="#BE452B"/>
<path d="M17.2171 44.3912H12.3577V48.0029H17.2171V44.3912ZM14.8137 50.5114C13.9994 50.5114 13.172 50.5245 12.3577 50.5114C10.9261 50.4851 9.8886 49.4607 9.86233 48.0292C9.83607 46.8209 9.8492 45.6126 9.86233 44.4175C9.8886 42.9728 10.8999 41.9352 12.3314 41.909C13.9731 41.8827 15.6148 41.8827 17.2565 41.909C18.6486 41.9352 19.673 42.9597 19.7124 44.3518C19.7387 45.5864 19.7387 46.8078 19.7124 48.0423C19.6862 49.4739 18.6486 50.4851 17.204 50.5114C16.4028 50.5245 15.6148 50.5114 14.8137 50.5114Z" fill="#BE452B"/>
<path d="M31.9653 44.4043H27.1585V48.0292H31.9653V44.4043ZM29.5882 50.5114C28.7739 50.5114 27.9465 50.5245 27.1322 50.5114C25.7007 50.472 24.6763 49.4476 24.65 48.0161C24.6369 46.8078 24.6369 45.5995 24.65 44.4043C24.6763 42.9597 25.6875 41.9221 27.1322 41.909C28.7739 41.8827 30.4156 41.8827 32.0573 41.909C33.4494 41.9352 34.4738 42.9728 34.5001 44.3649C34.5264 45.5995 34.5264 46.834 34.5001 48.0555C34.4738 49.487 33.4363 50.4851 31.9785 50.5114C31.1905 50.5245 30.3893 50.5114 29.5882 50.5114Z" fill="#BE452B"/>
<path d="M12.3432 59.0746H17.2026V55.4891H12.3432V59.0746ZM14.7073 61.5962C13.9061 61.5962 13.1181 61.6093 12.317 61.5962C10.9248 61.5568 9.88728 60.5324 9.86101 59.1534C9.83474 57.8926 9.83474 56.6449 9.86101 55.3841C9.90041 54.0313 10.9248 53.0069 12.2776 52.9806C13.9455 52.9544 15.6135 52.9544 17.2814 52.9806C18.6342 53.0069 19.6586 54.0313 19.698 55.3841C19.7374 56.6711 19.7374 57.9451 19.698 59.2322C19.6586 60.5455 18.6342 61.5437 17.3208 61.5962C16.454 61.6225 15.5741 61.5962 14.7073 61.5962Z" fill="#BE452B"/>
<path d="M31.9911 55.4892H27.158V59.0877H31.9911V55.4892ZM29.5615 52.9807C30.3757 52.9807 31.2031 52.9675 32.0174 52.9807C33.4096 53.0201 34.4471 54.0313 34.4734 55.4235C34.4996 56.6843 34.4996 57.9451 34.4734 59.1928C34.434 60.5456 33.4096 61.57 32.0568 61.5962C30.3889 61.6225 28.7209 61.6225 27.053 61.5962C25.7002 61.57 24.6627 60.5456 24.6364 59.1928C24.6101 57.932 24.6101 56.6712 24.6364 55.4235C24.6627 54.0313 25.6871 53.0201 27.0924 52.9807C27.9066 52.9544 28.734 52.9807 29.5483 52.9807" fill="#BE452B"/>
<path d="M41.9083 44.3519V47.9898C42.0528 48.0424 42.1973 48.0949 42.3417 48.1474C42.959 48.4364 43.2348 48.9354 43.0641 49.5921C42.8933 50.2488 42.3943 50.5377 41.7244 50.5115C40.5424 50.4589 39.4918 49.4345 39.4392 48.2131C39.3998 46.8866 39.3998 45.547 39.4392 44.2074C39.4786 42.9334 40.503 41.9353 41.7901 41.909C43.4318 41.8696 45.0735 41.8828 46.7152 41.909C47.5032 41.909 48.0285 42.4212 48.0417 43.1173C48.0417 43.8396 47.5163 44.3518 46.6758 44.365C45.1129 44.3781 43.55 44.365 41.9083 44.365" fill="#BE452B"/>
<path d="M55.4754 62.3708C56.3028 61.504 57.0646 60.7029 57.8394 59.928C60.1378 57.6165 62.4362 55.305 64.7608 53.0329C65.076 52.7177 65.5882 52.4419 66.0085 52.4419C66.8621 52.4288 67.3743 53.44 66.9541 54.1886C66.8227 54.4251 66.6126 54.6352 66.4156 54.8322C63.1716 58.0762 59.9277 61.3333 56.6837 64.5641C55.6987 65.5491 55.1865 65.5491 54.2277 64.5904C52.6517 63.0144 51.0626 61.4383 49.4997 59.8492C48.8824 59.2188 48.8299 58.549 49.3421 58.0105C49.8674 57.4458 50.5898 57.4589 51.2333 58.1024C52.6254 59.4683 53.9782 60.8605 55.4885 62.3577" fill="#BE452B"/>
</g>
<defs>
<clipPath id="clip0_599_2719">
<rect width="73.9152" height="73.9152" fill="white"/>
</clipPath>
</defs>
</svg>
