<svg width="83" height="37" viewBox="0 0 83 37" fill="none" xmlns="http://www.w3.org/2000/svg">
<g clip-path="url(#clip0_599_2714)">
<path d="M61.1647 33.0024H66.996V23.9001H61.1647V33.0024ZM77.6554 11.7149C76.7149 9.22771 75.8788 6.93906 74.9697 4.68177C74.8652 4.43096 74.3426 4.22195 74.0082 4.22195C67.3827 4.1906 60.7466 4.20105 54.1211 4.22195C53.8076 4.22195 53.285 4.34736 53.2014 4.54592C52.2713 6.87636 51.404 9.24861 50.4739 11.7254H77.6554V11.7149ZM57.1308 33.0338C57.183 32.8561 57.2353 32.7725 57.2353 32.6889C57.2353 29.3239 57.2457 25.9588 57.2562 22.5938C57.2562 20.6187 57.8728 20.023 59.8793 20.0125C62.565 20.0125 65.2403 20.0125 67.9261 20.0125C70.3924 20.0125 70.894 20.5037 70.894 22.9282C70.894 26.2828 70.894 29.6269 70.894 33.0024H75.8057V15.6965H52.2713V33.0338H57.1308ZM79.7455 15.7592V27.1188C79.7455 29.6165 79.7664 32.1141 79.7351 34.6118C79.7142 36.2734 79.0453 36.9004 77.3942 36.9213C76.2551 36.9422 75.1264 36.9213 73.9873 36.9213C66.3481 36.9213 58.7193 36.9213 51.08 36.9213C48.969 36.9213 48.3942 36.3675 48.3838 34.2774C48.3733 28.6446 48.3838 23.0118 48.3838 17.379V15.7279C47.9867 15.6443 47.6836 15.5816 47.3805 15.498C46.0533 15.1322 45.4786 14.1917 45.9488 12.9167C47.3178 9.165 48.6868 5.4133 50.2126 1.7243C50.4634 1.10773 51.4876 0.438901 52.1668 0.428451C60.1196 0.334397 68.0724 0.334397 76.0252 0.428451C76.6835 0.428451 77.6868 1.14953 77.9376 1.77656C79.4424 5.42375 80.801 9.13365 82.1491 12.8331C82.7239 14.4111 82.0655 15.174 79.7455 15.7383" fill="#BE452B"/>
<path d="M15.3605 32.6367H21.1918V23.5344H15.3605V32.6367ZM31.8617 11.3492C30.9211 8.86203 30.0851 6.57339 29.1759 4.3161C29.0714 4.06529 28.5489 3.85628 28.2145 3.85628C21.5889 3.82493 14.9529 3.83538 8.32732 3.85628C8.01381 3.85628 7.49129 3.98168 7.40768 4.18024C6.4776 6.51069 5.61021 8.88293 4.68012 11.3597H31.8617V11.3492ZM11.3266 32.6681C11.3788 32.4904 11.4311 32.4068 11.4311 32.3232C11.4311 28.9582 11.4415 25.5932 11.452 22.2281C11.452 20.253 12.0686 19.6573 14.0751 19.6469C16.7608 19.6469 19.4361 19.6469 22.1219 19.6469C24.5882 19.6469 25.0898 20.138 25.0898 22.5625C25.0898 25.9171 25.0898 29.2613 25.0898 32.6367H30.0015V15.3308H6.4776V32.6681H11.337H11.3266ZM33.9413 15.3831V26.7427C33.9413 29.2404 33.9622 31.738 33.9309 34.2357C33.91 35.8973 33.2411 36.5243 31.59 36.5452C30.4509 36.5661 29.3222 36.5452 28.1831 36.5452C20.5439 36.5452 12.9151 36.5452 5.2758 36.5452C3.16481 36.5452 2.59004 35.9913 2.57959 33.9012C2.56914 28.2685 2.57959 22.6357 2.57959 17.0029V15.3517C2.18247 15.2681 1.87941 15.2054 1.57635 15.1218C0.249143 14.7561 -0.32563 13.8155 0.144639 12.5406C1.5241 8.79933 2.8931 5.04763 4.41886 1.36908C4.66967 0.752503 5.69381 0.0836763 6.37309 0.0732259C14.3259 -0.0208279 22.2786 -0.0208279 30.2314 0.0732259C30.8898 0.0732259 31.893 0.794305 32.1438 1.42133C33.6487 5.06853 35.0073 8.77843 36.3554 12.4779C36.9301 14.0559 36.2718 14.8188 33.9518 15.3831" fill="#BE452B"/>
</g>
<defs>
<clipPath id="clip0_599_2714">
<rect width="82.3389" height="36.9318" fill="white"/>
</clipPath>
</defs>
</svg>
