<svg width="70" height="84" viewBox="0 0 70 84" fill="none" xmlns="http://www.w3.org/2000/svg">
<g clip-path="url(#clip0_599_2772)">
<path d="M18.3839 18.2554H43.968C44.2963 12.7525 42.4576 8.30023 37.677 5.47653C33.1328 2.7973 28.4442 2.94177 24.0445 5.8574C19.671 8.7599 17.9899 13.0546 18.3839 18.2685M37.4538 69.6599C37.2042 68.1758 36.7971 66.8362 36.7708 65.4834C36.7314 63.7498 36.9153 62.003 37.1517 60.2957C37.3224 59.048 38.2812 58.4307 39.3318 58.654C40.4482 58.8904 40.9998 59.8229 40.7109 61.0968C40.1067 63.7367 40.2512 66.324 41.2493 68.8456C44.073 75.9771 52.4785 79.0634 59.2291 75.4386C59.4786 75.3073 59.715 75.1497 60.0959 74.9264C58.533 74.493 57.1146 74.1121 55.5911 73.6918C55.8932 72.523 56.1821 71.4066 56.5104 70.1589C60.0565 71.1045 63.5369 72.037 67.1354 72.9958C66.1898 76.5418 65.2442 80.0353 64.2986 83.6076C63.1166 83.2924 62.0002 82.9903 60.7788 82.6751C61.1597 81.1911 61.5406 79.7332 61.8558 78.4987C59.8989 79.1291 57.9683 80.0222 55.9457 80.3374C49.3921 81.3881 44.0205 79.1685 39.9229 73.9414C39.542 73.4554 39.1611 73.2978 38.5701 73.311C29.5474 73.3241 20.5247 73.311 11.502 73.311C4.72512 73.2978 -0.00292969 68.5829 -0.00292969 61.806C-0.00292969 47.6613 -0.00292969 33.5165 -0.00292969 19.3718V18.3605H14.654C14.3651 12.1746 16.3614 7.03942 21.3127 3.28324C24.3859 0.932348 27.9057 -0.144598 31.7538 0.0130041C36.5081 0.210006 40.5007 2.12749 43.6265 5.71294C46.7391 9.28524 47.908 13.5274 47.6059 18.2817H62.3286V19.4243C62.3286 29.4451 62.3286 39.466 62.3286 49.4868C62.3286 50.1172 62.4993 50.4981 63.0115 50.9052C68.5276 55.2918 70.5633 60.9786 69.2105 67.8868C68.9873 69.0294 68.2386 69.673 67.3062 69.6467C66.4262 69.6336 65.6382 68.9638 65.5463 68.0576C65.5069 67.611 65.6251 67.1514 65.7039 66.7048C66.6232 61.3858 65.0341 56.986 60.6738 53.7946C56.3134 50.6032 51.6379 50.4456 46.8442 52.9278C46.6866 53.0066 46.5421 53.0985 46.3977 53.1905C46.332 53.2299 46.2663 53.2824 46.0693 53.4269C47.6191 53.8471 49.0244 54.2412 50.5347 54.6483C50.2195 55.8303 49.9174 56.9729 49.6022 58.1812C46.0431 57.2225 42.5496 56.29 38.9772 55.3312C39.936 51.7721 40.8685 48.2785 41.8272 44.7194C43.0092 45.0346 44.1387 45.3367 45.3601 45.6519C44.9661 47.1491 44.5852 48.5938 44.165 50.2223C48.7748 47.438 53.5291 46.8995 58.5724 48.4887V21.9853H47.6453C47.6453 23.2987 47.6191 24.5726 47.6716 25.8597C47.6716 26.0698 47.9868 26.3062 48.1838 26.4901C49.4709 27.6459 49.8386 29.3532 49.1294 30.8636C48.4202 32.3476 46.8048 33.1619 45.1368 32.8861C43.5871 32.6234 42.3525 31.297 42.1818 29.629C42.0505 28.3419 42.5627 27.3044 43.5083 26.4244C43.7578 26.188 43.9548 25.7809 43.968 25.4526C44.0205 24.3231 43.9942 23.1805 43.9942 21.9985H18.3445C18.3445 23.3118 18.3183 24.5595 18.3708 25.8072C18.3708 26.0567 18.6729 26.3194 18.8962 26.5164C20.0782 27.5802 20.4853 29.2219 19.8943 30.6666C19.3033 32.1112 17.898 32.9912 16.2826 32.9255C14.7591 32.8598 13.4195 31.8486 12.9992 30.3382C12.5789 28.8279 12.9992 27.5277 14.155 26.4507C14.4045 26.2143 14.6146 25.8072 14.6278 25.4657C14.6803 24.3231 14.654 23.1936 14.654 21.9985H3.68758C3.67445 22.3268 3.64818 22.642 3.64818 22.9441C3.64818 35.8937 3.64818 48.8302 3.64818 61.7798C3.64818 66.521 6.76081 69.6336 11.502 69.6336C19.868 69.6336 28.2209 69.6336 36.587 69.6336H37.4406L37.4538 69.6599Z" fill="#BE452B"/>
</g>
<defs>
<clipPath id="clip0_599_2772">
<rect width="69.6206" height="83.6077" fill="white"/>
</clipPath>
</defs>
</svg>
