<svg width="60" height="85" viewBox="0 0 60 85" fill="none" xmlns="http://www.w3.org/2000/svg">
<g clip-path="url(#clip0_599_2627)">
<path d="M10.6629 63.7501C10.768 63.7895 10.8205 63.842 10.8731 63.842C18.7663 63.842 26.6464 63.8552 34.5396 63.842C34.7235 63.842 34.9861 63.7764 35.0781 63.6582C35.6559 62.9096 36.2075 62.1215 36.7986 61.2941H10.6629V63.7501ZM20.5262 21.1582H27.2636V2.77134H20.5262V21.1582ZM46.4911 59.9545C40.6598 59.9545 35.8661 64.7351 35.8398 70.5795C35.8135 76.4633 40.6992 81.349 46.583 81.3227C52.4668 81.2964 57.2342 76.4896 57.208 70.5926C57.1949 64.6957 52.4143 59.9545 46.4911 59.9677M33.5152 73.7184C32.9242 71.2493 33.108 68.9641 33.7516 66.5869H32.5827C24.9784 66.5869 17.3741 66.5869 9.76985 66.5869C8.2989 66.5869 7.89176 66.1667 7.87862 64.6826C7.87862 63.2116 7.87862 61.7407 7.87862 60.2566C7.87862 59.022 8.36456 58.5492 9.59911 58.5492C19.1472 58.5492 28.6952 58.5492 38.2564 58.5492C38.5978 58.5492 38.9393 58.6937 39.2808 58.7462C39.6091 58.7856 39.9637 58.8644 40.2658 58.7725C40.7123 58.6543 41.1063 58.3522 41.5529 58.2078C42.7218 57.84 43.9038 57.5248 45.0989 57.1702C45.0989 57.052 45.1252 56.9338 45.1252 56.8288C45.1252 44.5358 45.1252 32.2429 45.1383 19.9499C45.1383 19.2276 44.8494 19.07 44.1927 19.0831C39.7405 19.1094 35.2882 19.0831 30.8359 19.0963C30.6127 19.0963 30.3763 19.1357 30.153 19.1488V21.2239C30.6915 21.2239 31.1643 21.1976 31.624 21.2239C32.4382 21.2764 32.9767 21.828 32.9767 22.5766C32.9767 23.3252 32.4514 23.9031 31.624 23.9031C26.5019 23.9162 21.3667 23.9162 16.2315 23.9031C15.391 23.9031 14.8788 23.3646 14.8525 22.6029C14.8394 21.828 15.391 21.2633 16.2578 21.2239C16.7437 21.1976 17.2297 21.2239 17.7025 21.2239V19.0963H16.7831C12.4753 19.0963 8.18069 19.0963 3.87291 19.0963C3.09366 19.0963 2.70403 19.4771 2.70403 20.2389V72.5101C2.70403 73.3069 3.11117 73.7053 3.92545 73.7053H33.502L33.5152 73.7184ZM17.755 16.3908V11.492C17.755 8.22173 17.755 4.95149 17.755 1.68126C17.755 0.512378 18.2409 0.0133057 19.423 0.0133057C22.3649 0.0133057 25.3199 0.0133057 28.2618 0.0133057C29.6014 0.0133057 30.0611 0.486111 30.0742 1.82573C30.0742 6.30424 30.0742 10.7828 30.0742 15.2744V16.4039H31.23C35.5377 16.4039 39.8324 16.4039 44.1402 16.4039C46.6881 16.4039 47.8175 17.5202 47.8175 20.055C47.8175 32.1115 47.8175 44.1681 47.8175 56.2246V57.3016C50.3917 57.6168 52.6769 58.4836 54.6864 60.0333C58.9941 63.3561 60.8722 68.9116 59.4538 74.1649C58.0223 79.4577 53.57 83.2533 47.9226 83.9757C42.8531 84.6192 37.534 81.9137 34.9336 77.2907C34.5265 76.5684 34.1062 76.4108 33.3576 76.4108C23.4549 76.437 13.5523 76.4239 3.63651 76.4239C1.15428 76.4108 -0.00146484 75.2813 -0.00146484 72.8253C-0.00146484 55.2002 -0.00146484 37.5619 -0.00146484 19.9368C-0.00146484 17.5202 1.14115 16.3908 3.58398 16.3908C7.94429 16.3908 12.3046 16.3908 16.6781 16.3908H17.755Z" fill="#BE452B"/>
<path d="M19.5031 36.0779C19.4768 38.5076 21.4074 40.5039 23.8109 40.5302C26.2931 40.5565 28.3025 38.6521 28.3551 36.1961C28.4076 33.7664 26.4113 31.7176 23.9816 31.6782C21.5256 31.6388 19.5294 33.6088 19.5031 36.0779ZM14.972 53.1646H32.8861C33.1356 49.5004 30.7847 46.3746 27.2387 45.9937C25.006 45.7573 22.7077 45.7705 20.4618 46.0069C16.9946 46.3877 14.6306 49.6186 14.972 53.1646ZM25.9648 43.0781C28.6834 43.1044 31.0474 44.0106 32.9649 45.9543C34.7117 47.7405 35.5916 49.9075 35.631 52.4029C35.631 53.1121 35.6573 53.8213 35.631 54.5305C35.5916 55.3973 35.1188 55.8701 34.252 55.9226C33.9631 55.9358 33.661 55.9226 33.372 55.9226C26.976 55.9226 20.58 55.9226 14.184 55.9226C12.5817 55.9226 12.2534 55.5549 12.2009 53.9526C12.1352 51.5755 12.3847 49.2902 13.79 47.2808C15.6156 44.6672 18.1241 43.2751 21.3155 43.1438C21.5125 43.1438 21.7226 43.1438 21.9459 43.0781C20.081 42.3689 18.5837 41.2657 17.6381 39.4926C16.7057 37.7459 16.5349 35.9072 17.0865 34.016C18.0321 30.8377 20.9872 28.8151 24.4413 28.9859C27.6196 29.1303 30.3645 31.5732 30.9555 34.8565C31.4414 37.5226 30.4433 41.3445 25.9648 43.0781Z" fill="#BE452B"/>
<path d="M44.3765 72.5891C46.4516 70.514 48.4216 68.5309 50.4048 66.5608C50.5886 66.377 50.7725 66.18 50.9695 65.9961C51.705 65.3132 52.493 65.2606 53.0708 65.8648C53.6356 66.4558 53.5831 67.1912 52.9132 67.9005C52.5061 68.3207 52.0858 68.741 51.6656 69.1481C49.6693 71.1444 47.673 73.1407 45.6636 75.137C44.7048 76.0957 44.0875 76.0826 43.1288 75.137C42.1438 74.1651 41.1588 73.1932 40.2 72.1951C39.504 71.4859 39.4777 70.6585 40.0687 70.0937C40.6597 69.529 41.3952 69.5684 42.0913 70.2645C42.853 71 43.5753 71.7748 44.3765 72.5891Z" fill="#BE452B"/>
</g>
<defs>
<clipPath id="clip0_599_2627">
<rect width="59.9281" height="84.0543" fill="white"/>
</clipPath>
</defs>
</svg>
