<svg width="100" height="100" viewBox="0 0 100 100" fill="none" xmlns="http://www.w3.org/2000/svg">
<path fill-rule="evenodd" clip-rule="evenodd" d="M78.2168 32.6721C78.2897 32.8121 78.3905 32.9362 78.5131 33.0371C78.6357 33.138 78.7776 33.2137 78.9305 33.2595C79.0834 33.3054 79.2441 33.3206 79.403 33.3042C79.562 33.2878 79.7159 33.2401 79.8558 33.164C79.9957 33.0879 80.1186 32.9849 80.2173 32.8612C80.3159 32.7374 80.3883 32.5954 80.4302 32.4436C80.472 32.2918 80.4824 32.1332 80.4608 31.9774C80.4392 31.8215 80.386 31.6715 80.3044 31.5363C79.9201 30.8423 79.5081 30.1665 79.0684 29.4997C78.896 29.2379 78.6249 29.0543 78.3149 28.9892C78.0049 28.9242 77.6813 28.983 77.4153 29.1527C77.1494 29.3225 76.9628 29.5893 76.8967 29.8944C76.8306 30.1995 76.8903 30.518 77.0628 30.7798C77.4748 31.4011 77.859 32.0292 78.2168 32.6778V32.6721ZM47.3889 68.1621C47.047 67.8345 46.5885 67.6515 46.1114 67.6521H36.4178C36.2467 67.6496 36.0759 67.6695 35.9101 67.7112C35.7502 67.7567 35.5975 67.8239 35.4565 67.9111L27.2274 72.819L38.7939 83.3197L64.7589 83.3833C65.0187 83.3887 65.2767 83.3383 65.5147 83.2357C65.753 83.132 65.9645 82.9767 66.1333 82.7813L82.4035 64.8989C82.9191 64.3429 83.2069 63.6185 83.2113 62.8657C83.2139 62.5247 83.1471 62.1866 83.015 61.8714C82.8828 61.5562 82.6878 61.2702 82.4416 61.0303C82.3873 60.9678 82.4277 61.0109 82.4416 61.0303L82.4277 61.0041C81.9139 60.5236 81.2276 60.2631 80.519 60.2795C79.7967 60.2936 79.1077 60.5812 78.5953 61.0825L69.6241 70.1623C70.3899 71.1414 70.7677 72.3612 70.6871 73.5943C70.6064 74.8273 70.0727 75.9894 69.1856 76.8637C68.212 77.8204 66.8928 78.3583 65.517 78.3596H43.186C42.8695 78.35 42.5691 78.2195 42.3487 77.9957C42.1282 77.7719 42.0049 77.4724 42.0049 77.1607C42.0049 76.849 42.1282 76.5495 42.3487 76.3257C42.5691 76.1019 42.8695 75.9714 43.186 75.9618H65.5228C65.8831 75.9616 66.2397 75.8912 66.5722 75.7547C66.9048 75.6183 67.2066 75.4184 67.4604 75.1667C67.717 74.9179 67.9208 74.6213 68.0599 74.2942C68.199 73.9671 68.2706 73.616 68.2706 73.2614C68.2706 72.9068 68.199 72.5557 68.0599 72.2286C67.9208 71.9015 67.717 71.6049 67.4604 71.3561C67.2067 71.1042 66.9049 70.9043 66.5724 70.7678C66.2398 70.6314 65.8831 70.5611 65.5228 70.561H43.186C42.8631 70.561 42.5535 70.4347 42.3251 70.21C42.0968 69.9853 41.9686 69.6805 41.9686 69.3627C41.9686 69.0449 42.0968 68.7401 42.3251 68.5154C42.5535 68.2906 42.8631 68.1644 43.186 68.1644L47.3889 68.1621ZM19.9722 78.2278C19.6194 77.9043 19.4079 77.4586 19.3823 76.9847C19.3567 76.5107 19.5189 76.0455 19.8349 75.687L21.7274 73.6004C21.8837 73.4133 22.081 73.2635 22.3044 73.162C22.524 73.0598 22.7622 73.0022 23.0049 72.9928C23.2519 72.9776 23.4995 73.0112 23.7331 73.0916C23.9631 73.1737 24.1736 73.3013 24.3516 73.4664V73.4744L37.7184 85.6016C38.074 85.9242 38.2863 86.3716 38.3094 86.8471C38.3325 87.3226 38.1646 87.7879 37.8419 88.1424L35.9597 90.2346C35.7975 90.4159 35.6017 90.5651 35.3827 90.6742C35.1582 90.7762 34.9154 90.8333 34.6684 90.8423C34.4215 90.8562 34.1743 90.8231 33.9402 90.7446C33.7097 90.6593 33.4992 90.5286 33.3217 90.3607L19.9722 78.2278ZM83.9475 34.5439L86.1182 38.2479L90.5138 39.244L87.6149 42.4243L88.0004 46.854L84.0433 45.1128L79.8808 46.854L80.3344 42.6003L77.3801 39.2519L81.6257 38.3637L83.9475 34.5519V34.5439ZM49.1914 8.41992L51.3609 12.1284L55.7565 13.1234L52.8438 16.3037L53.242 20.7334L49.2722 18.9933L45.1236 20.7334L45.5771 16.4797L42.6102 13.1302L46.8684 12.242L49.1903 8.43128L49.1914 8.41992ZM15.5593 51.1974L17.73 54.9013L22.1256 55.8963L19.214 59.0766L19.6122 63.5064L15.6424 61.7663L11.488 63.5064L11.9415 59.2527L8.97461 55.9031L13.2329 55.0149L15.5547 51.2042L15.5593 51.1974ZM49.1891 25.3415C50.6042 25.3415 51.9875 25.7545 53.1641 26.5283C54.3407 27.3021 55.2577 28.4019 55.7993 29.6887C56.3408 30.9755 56.4825 32.3914 56.2064 33.7574C55.9304 35.1235 55.2489 36.3783 54.2483 37.3631C53.2477 38.348 51.9728 39.0187 50.5849 39.2904C49.1971 39.5621 47.7585 39.4227 46.4511 38.8897C45.1437 38.3567 44.0263 37.454 43.2401 36.296C42.454 35.1379 42.0343 33.7764 42.0343 32.3836C42.0336 31.4586 42.2181 30.5425 42.5774 29.6878C42.9367 28.8331 43.4637 28.0565 44.1282 27.4024C44.7928 26.7483 45.5818 26.2296 46.4502 25.876C47.3186 25.5224 48.2493 25.3407 49.1891 25.3415ZM43.7653 43.8906H54.6037C55.4722 43.8824 56.3305 44.0759 57.1088 44.4557C57.887 44.8354 58.5632 45.3905 59.0823 46.076C59.6357 46.7637 60.0272 47.5636 60.2286 48.4182C60.4299 49.2728 60.4361 50.1607 60.2467 51.0179L58.9969 57.2127C58.7649 58.5251 58.0729 59.7159 57.0413 60.5781C56.0097 61.4403 54.7037 61.9194 53.3504 61.9321H45.014C43.6606 61.9196 42.3545 61.4406 41.3228 60.5784C40.2912 59.7161 39.5993 58.5252 39.3674 57.2127L38.1177 51.0179C37.9288 50.1605 37.9355 49.2724 38.1375 48.4178C38.3394 47.5632 38.7315 46.7634 39.2855 46.076C39.8046 45.3905 40.4808 44.8353 41.259 44.4556C42.0373 44.0758 42.8967 43.8823 43.7653 43.8906ZM64.8246 32.6834C63.6938 32.683 62.5883 33.0126 61.6479 33.6306C60.7074 34.2487 59.9743 35.1273 59.5413 36.1554C59.1082 37.1836 58.9947 38.315 59.215 39.4067C59.4353 40.4983 59.9796 41.5012 60.7791 42.2883C61.5785 43.0755 62.5971 43.6116 63.7062 43.8289C64.8152 44.0462 65.9648 43.9349 67.0096 43.5091C68.0543 43.0833 68.9473 42.3621 69.5756 41.4367C70.2039 40.5113 70.5392 39.4233 70.5392 38.3103C70.5398 37.5714 70.3925 36.8396 70.1055 36.1568C69.8186 35.474 69.3977 34.8536 68.867 34.331C68.3362 33.8084 67.706 33.3939 67.0124 33.1112C66.3188 32.8285 65.5754 32.6831 64.8246 32.6834ZM62.4462 47.5105H69.1637C69.8567 47.5045 70.5413 47.6596 71.1619 47.9632C71.7825 48.2667 72.3216 48.7102 72.7353 49.2574C73.1806 49.8053 73.4956 50.4444 73.6572 51.1278C73.8187 51.8112 73.8227 52.5216 73.6689 53.2067L72.666 58.16C72.4847 59.2086 71.9345 60.1609 71.1117 60.8505C70.289 61.5401 69.2461 61.9229 68.1655 61.9321H61.4977C60.8016 61.9333 60.1148 61.7747 59.492 61.4687C60.4234 60.3775 61.0569 59.0707 61.3326 57.6716L62.602 51.4768C62.8687 50.1614 62.8169 48.8026 62.4509 47.5105H62.4462ZM33.5421 32.6834C32.4113 32.683 31.3057 33.0126 30.3653 33.6306C29.4249 34.2487 28.6917 35.1273 28.2587 36.1554C27.8256 37.1836 27.7121 38.315 27.9324 39.4067C28.1527 40.4983 28.697 41.5012 29.4965 42.2883C30.2959 43.0755 31.3146 43.6116 32.4236 43.8289C33.5326 44.0462 34.6822 43.9349 35.727 43.5091C36.7718 43.0833 37.6647 42.3621 38.293 41.4367C38.9213 40.5113 39.2567 39.4233 39.2567 38.3103C39.2573 37.5714 39.1099 36.8396 38.8229 36.1568C38.536 35.474 38.1151 34.8536 37.5844 34.331C37.0536 33.8084 36.4235 33.3939 35.7298 33.1112C35.0362 32.8285 34.2928 32.6831 33.5421 32.6834ZM29.2042 47.5105H35.9216C35.5527 48.8026 35.5056 50.1631 35.7843 51.4768L37.0341 57.6716C37.3116 59.0712 37.9471 60.378 38.8805 61.4687C38.2582 61.7761 37.5711 61.9349 36.8748 61.9321H30.2036C29.1235 61.9209 28.0817 61.5374 27.2593 60.8481C26.437 60.1589 25.8862 59.2077 25.703 58.16L24.699 53.2067C24.5454 52.5215 24.5496 51.8111 24.7114 51.1277C24.8731 50.4443 25.1883 49.8053 25.6337 49.2574C26.0473 48.7103 26.5862 48.267 27.2066 47.9634C27.827 47.6599 28.5114 47.5047 29.2042 47.5105ZM69.2871 22.4962C69.4875 22.6451 69.7299 22.729 69.9808 22.7366C70.2318 22.7441 70.4789 22.6748 70.6881 22.5382C70.8444 22.4334 70.9732 22.2936 71.064 22.1302C71.1548 21.9669 71.2049 21.7847 71.2103 21.5986C71.2157 21.4125 71.1762 21.2278 71.0951 21.0597C71.0139 20.8915 70.8934 20.7447 70.7435 20.6312C67.5814 18.258 64.0387 16.4214 60.2617 15.1974L59.8486 15.0679C59.6983 15.0184 59.5395 14.9988 59.3815 15.0104C59.2234 15.022 59.0693 15.0645 58.9282 15.1354C58.787 15.2063 58.6616 15.3042 58.5593 15.4234C58.4571 15.5426 58.38 15.6806 58.3326 15.8295C58.2852 15.9783 58.2684 16.135 58.2832 16.2903C58.298 16.4456 58.3442 16.5964 58.4189 16.7339C58.4937 16.8715 58.5955 16.993 58.7186 17.0913C58.8416 17.1896 58.9833 17.2628 59.1354 17.3066C62.8015 18.4417 66.2381 20.1979 69.2906 22.4962H69.2871ZM34.3106 19.2705C34.5931 19.1307 34.8076 18.8862 34.907 18.5907C35.0063 18.2953 34.9823 17.9731 34.8403 17.6951C34.6983 17.417 34.4499 17.2059 34.1497 17.1081C33.8495 17.0104 33.5222 17.034 33.2397 17.1737C31.4646 18.0526 29.7673 19.0761 28.1656 20.2337C27.397 20.7936 26.655 21.3695 25.9268 21.9874C25.6799 22.2054 25.4179 22.4247 25.171 22.6473C24.5524 23.2072 23.9616 23.7831 23.3846 24.3771C23.1671 24.6031 23.0498 24.9048 23.0583 25.2159C23.0669 25.527 23.2006 25.822 23.4302 26.036C23.6597 26.25 23.9662 26.3656 24.2823 26.3572C24.5984 26.3487 24.8981 26.2171 25.1156 25.9912C25.7607 25.321 26.4334 24.685 27.1339 24.0671C27.8079 23.4844 28.4806 22.9312 29.195 22.4031C30.7983 21.2087 32.5086 20.1601 34.3049 19.2705H34.3106ZM18.7882 35.3753C18.855 35.2335 18.8923 35.0799 18.8979 34.9236C18.9034 34.7673 18.8772 34.6115 18.8206 34.4654C18.7641 34.3193 18.6784 34.1857 18.5687 34.0727C18.4589 33.9596 18.3273 33.8693 18.1815 33.8071C18.0358 33.7449 17.8788 33.712 17.72 33.7104C17.5611 33.7088 17.4035 33.7385 17.2565 33.7977C17.1095 33.8569 16.976 33.9445 16.8638 34.0553C16.7517 34.1661 16.6633 34.2979 16.6037 34.4428C16.2321 35.2674 15.9032 36.0921 15.6009 36.9417C15.2847 37.8503 15.01 38.7658 14.7631 39.7006C14.5565 40.4786 14.3776 41.2521 14.2265 42.0427C14.0753 42.8968 13.9518 43.7464 13.856 44.6108C13.7868 45.1344 13.7464 45.6546 13.7048 46.1805C13.6931 46.4875 13.8037 46.7869 14.0129 47.0149C14.2221 47.243 14.5135 47.3816 14.8251 47.4013C15.1366 47.421 15.4437 47.3202 15.6808 47.1204C15.918 46.9206 16.0665 46.6375 16.0948 46.3315C16.1502 45.5137 16.2321 44.7107 16.3417 43.9009C16.4664 42.9922 16.6302 42.1074 16.8368 41.2146C17.0838 40.1788 17.3584 39.1701 17.7023 38.1604C18.0046 37.2631 18.3485 36.3919 18.7328 35.5207L18.7882 35.3753Z" fill="#BE452B"/>
</svg>
