<svg width="100" height="100" viewBox="0 0 100 100" fill="none" xmlns="http://www.w3.org/2000/svg">
<path fill-rule="evenodd" clip-rule="evenodd" d="M26.5821 79.3877H35.3968L58.7297 85.703C60.8839 86.2928 62.9839 85.8985 64.7966 84.6115L86.4441 69.0097C88.7419 65.7543 84.7781 61.7102 81.4144 63.8932L70.5155 68.8299C70.7708 69.1138 70.9847 69.4545 71.1474 69.8142C71.4921 70.4955 71.69 71.2653 71.69 72.0886C71.69 73.5207 71.0932 74.8077 70.1517 75.7541C69.1911 76.6846 67.8698 77.2745 66.4209 77.2745H49.7491C49.0629 77.2745 48.5172 76.7383 48.5172 76.0569C48.5172 75.3945 49.0597 74.8582 49.7491 74.8582H66.4209C67.1996 74.8582 67.9049 74.5364 68.4124 74.0349C68.9198 73.5333 69.2262 72.8362 69.2262 72.0854C69.2262 71.6375 69.1368 71.2274 68.9549 70.8678C68.773 70.4924 68.4826 70.1517 68.1571 69.8835C67.4677 69.3631 66.6029 69.0444 65.6773 69.0444H59.6678C57.3157 69.0444 55.2891 68.0255 53.9104 66.1265C52.4615 64.1581 50.3615 62.6755 47.9169 62.0099C44.3872 61.0446 40.6054 61.8679 37.8163 64.2117H31.2451L32.26 60.9216L20.5473 57.4138L13.5645 80.1196L22.2705 82.7504C23.9364 83.2331 25.6726 82.3214 26.18 80.6748L26.5821 79.3877ZM48.156 40.0417H70.3304L70.3336 18.124H48.1559L48.156 40.0417ZM43.522 35.925L39.9188 37.9818L39.3029 36.925L38.6869 35.8871L42.3092 33.8304L42.906 34.8683L42.9603 34.9408L43.522 35.925ZM76.177 33.8336L79.7961 35.8904L79.1801 36.9282L78.5642 37.985L74.9643 35.9283L75.5802 34.8715L76.177 33.8336ZM74.1345 19.2154L77.7536 17.1556L78.3504 18.1934L78.9663 19.2502L75.3631 21.3101L74.7472 20.2533L74.1345 19.2154ZM58.0206 17.4079V13.2944H60.4653V17.4111H59.2525L58.0206 17.4079ZM43.1233 21.31L39.5234 19.2501L40.1393 18.1933L40.7362 17.1555L44.3584 19.2154L43.7776 20.1806L43.7425 20.2532L43.1233 21.31ZM55.3278 64.2141H58.0979V42.3126H35.9235V61.94H37.0278C40.3054 59.5237 44.5596 58.7383 48.5394 59.8108C49.2639 60.0064 49.9501 60.2745 50.6202 60.5773V58.7162H55.1265V61.1325H51.7053C53.084 61.9401 54.3129 62.9807 55.3278 64.2141ZM43.995 44.5867H50.0237V49.4698L47.0173 48.5393L43.995 49.4698V44.5867ZM60.3957 64.2141H75.1655L80.3261 61.8861C81.0665 61.4382 81.8292 61.17 82.5697 61.047V42.3127H60.3952L60.3957 64.2141ZM68.4668 44.5867H74.4954V49.4698L71.4731 48.5393L68.4668 49.4698V44.5867ZM75.0762 58.722H79.6017V61.1383H75.0762V58.722ZM56.2311 20.395H62.2597V25.2813L59.2534 24.3508L56.2311 25.2813V20.395ZM62.8566 34.5303H67.3629V36.9655H62.8566V34.5303ZM29.4042 62.4407L22.0926 60.2389L16.4278 78.617L22.9448 80.5665C23.3788 80.7116 23.848 80.4592 23.9948 80.0113L29.4042 62.4407Z" fill="#BE452B"/>
</svg>
