<svg width="100" height="100" viewBox="0 0 100 100" fill="none" xmlns="http://www.w3.org/2000/svg">
<path d="M79.55 18.6123H20.5129C18.4438 18.6123 16.6944 20.3196 16.6944 22.3378V43.632L17.786 42.9876C18.0028 42.8654 18.2564 42.8246 18.5026 42.8913C18.7488 42.9579 18.9547 43.1172 19.0759 43.3283L19.8845 44.7393C19.9506 44.6837 20.0168 44.6245 20.0719 44.5689V29.1631C20.0719 28.0632 20.7775 27.1819 21.8396 26.9634C23.3905 26.6708 24.6805 25.3598 25.1032 23.6637C25.309 22.6008 26.1836 21.8898 27.2752 21.8898L72.9093 21.8935C74.0008 21.8935 74.8754 22.6045 75.0813 23.6748C75.3826 25.3043 76.7277 26.6522 78.3558 26.9634C79.4106 27.1708 80.1162 28.0521 80.1162 29.152V44.8688L80.9615 44.3651C81.77 43.9022 82.5786 43.5874 83.3687 43.406V22.3375C83.3797 20.3192 81.6301 18.6123 79.55 18.6123ZM37.9841 41.1284C37.7011 40.1322 37.4953 39.0064 37.4953 37.7436C37.4953 30.8147 43.1513 25.1706 50.094 25.1706C56.9701 25.1706 62.5713 30.8107 62.5713 37.7436C62.5713 40.6173 61.6599 43.2912 59.995 45.491C63.1189 46.0502 65.5849 48.8647 65.5849 52.1458C65.5849 52.6087 65.5371 53.0642 65.4452 53.5012L78.2424 45.9724L78.235 29.1635C78.235 28.8784 78.066 28.8413 77.9998 28.8302C75.6 28.3747 73.6926 26.449 73.2405 24.0418C73.2222 23.9677 73.1928 23.7937 72.9098 23.7937H27.2908C27.0078 23.7937 26.971 23.964 26.9526 24.0862C26.3426 26.5415 24.4793 28.4006 22.2117 28.8265C22.1382 28.845 21.9655 28.8746 21.9655 29.1598V43.1624C26.8644 39.9628 32.6674 39.2999 37.985 41.1294L37.9841 41.1284ZM49.1602 43.6023C47.7196 43.1838 46.6574 41.8581 46.6574 40.273C46.6574 38.3584 48.201 36.803 50.1011 36.803C50.9941 36.803 51.5417 36.0549 51.5417 35.3513C51.5417 34.4514 50.9206 33.7774 50.1011 33.7774H47.5983C47.0801 33.7774 46.6574 33.3515 46.6574 32.8293C46.6574 32.3072 47.0801 31.8813 47.5983 31.8813H49.1602V30.174C49.1602 29.6519 49.5829 29.226 50.1011 29.226C50.6193 29.226 51.0419 29.6519 51.0419 30.174V32.0331C52.4238 32.4515 53.4233 33.7477 53.4233 35.3512C53.4233 37.1992 51.9386 38.699 50.1011 38.699C49.2337 38.699 48.5391 39.41 48.5391 40.2729C48.5391 41.1469 49.2447 41.8469 50.1011 41.8469H52.4825C53.0007 41.8469 53.4233 42.2728 53.4233 42.7949C53.4233 43.3171 53.0007 43.743 52.4825 43.743H51.0419L51.0498 44.9444H57.6063C59.6019 42.9151 60.6929 40.6618 60.6929 37.7436C60.6929 31.8554 55.9409 27.0667 50.0972 27.0667C44.1877 27.0667 39.3802 31.8551 39.3802 37.7436C39.3802 39.4583 39.8506 40.9285 40.3027 42.0765C41.9859 42.9097 43.6035 43.5705 45.0882 44.9444H49.1602V43.6023ZM62.1334 71.5327C62.6038 71.5327 62.6148 71.5216 62.7912 71.4105C72.0966 65.9481 77.4588 62.867 86.3487 57.7671L88.1017 56.7598C91.696 54.6082 91.7328 50.8716 90.2554 48.3015C88.778 45.7425 85.5329 43.9389 81.9092 46.0165L79.8768 47.2126C79.7555 47.3534 79.5938 47.4385 79.4064 47.4867L63.8638 56.6264C63.8528 56.6375 63.8455 56.6375 63.8344 56.6449C62.5923 58.0188 60.8135 58.9002 58.8767 58.9002H39.0713C38.5531 58.9002 38.1305 58.4744 38.1305 57.9522C38.1305 57.43 38.5531 57.0041 39.0713 57.0041L58.8692 57.0079C61.4858 57.0079 63.6946 54.7784 63.6946 52.1454C63.6946 49.5087 61.4822 47.283 58.8692 47.283H44.7088C44.4625 47.283 44.2383 47.1867 44.0583 47.0274C37.6121 40.8651 28.5054 40.4022 21.7502 45.6535C21.6473 45.7868 21.5334 45.8905 21.3753 45.9572C21.1953 46.109 21.0189 46.2609 20.8388 46.4201L35.2824 71.5434L62.1328 71.5397L62.1334 71.5327ZM9.55312 54.5826L22.8348 77.9396C23.3714 78.8766 24.2351 79.5432 25.2714 79.8061C26.2674 80.0617 27.3038 79.9098 28.1968 79.3617L35.2714 75.2844L17.9215 45.0985L16.4368 45.9725C16.3229 46.0947 16.1832 46.1725 16.0215 46.2206L10.9682 49.1796C10.0384 49.7203 9.3769 50.5906 9.11591 51.6348C8.85498 52.6385 9.00553 53.6789 9.55312 54.5826Z" fill="#BE452B"/>
<path d="M45.7335 30.5534L44.8149 38.5143L46.9583 44.3319L49.2547 44.9443H51.5511L53.3882 44.6381L55.2253 40.6576V33.0029L50.3263 28.7163L45.7335 30.5534Z" fill="#BE452B"/>
<path d="M54.2446 38.5606C54.2446 39.1254 54.1527 39.6376 53.9688 40.0973C53.7915 40.557 53.5485 40.9412 53.2398 41.2499C52.9378 41.5585 52.5733 41.8212 52.1464 42.0379C51.7196 42.2546 51.2697 42.4155 50.7969 42.5206C50.324 42.6257 49.8217 42.6881 49.2897 42.7078L49.2503 43.9194H48.6987L48.7972 42.7078C48.0879 42.6946 47.1751 42.4746 46.0587 42.0478L44.9653 42.7078H44.7683C44.7092 42.4188 44.6468 41.854 44.5811 41.0134C44.5154 40.1729 44.4826 39.4275 44.4826 38.7773H44.6895L46.8271 41.7818C47.3918 42.2284 48.0485 42.4713 48.7972 42.5107L49.1617 37.6445C48.9384 37.5263 48.61 37.3654 48.1766 37.1618C47.7432 36.9583 47.3918 36.7908 47.1226 36.6594C46.8599 36.5281 46.5512 36.3377 46.1966 36.0881C45.8486 35.832 45.5727 35.5726 45.3692 35.3099C45.1656 35.0472 44.9916 34.709 44.8471 34.2953C44.7026 33.875 44.6304 33.412 44.6304 32.9063C44.6304 32.1117 44.8536 31.4287 45.3002 30.8574C45.7468 30.2861 46.3247 29.8658 47.0339 29.5965C47.7497 29.3273 48.5476 29.1926 49.4276 29.1926H49.467L49.5064 27.981H50.0482L49.9694 29.2123C50.7772 29.2649 51.5521 29.4553 52.2942 29.7837L53.5255 29.1926H53.7225C53.7225 29.6589 53.6864 30.3485 53.6142 31.2613C53.5419 32.1675 53.4763 32.7914 53.4172 33.1329H53.2201L51.4076 30.0792C50.9939 29.764 50.5079 29.5506 49.9497 29.4389L49.6443 33.6747C49.8282 33.7798 50.0778 33.9144 50.393 34.0786C50.7082 34.2362 50.9742 34.3741 51.1909 34.4923C51.4076 34.6039 51.6605 34.7484 51.9494 34.9257C52.2384 35.103 52.4813 35.2705 52.6784 35.4281C52.8754 35.5857 53.0789 35.7795 53.2891 36.0093C53.5058 36.2392 53.6766 36.4756 53.8013 36.7186C53.9327 36.955 54.0377 37.2341 54.1166 37.5559C54.2019 37.8711 54.2446 38.206 54.2446 38.5606ZM47.6742 31.212C47.6742 31.7111 47.8187 32.138 48.1076 32.4926C48.3966 32.8472 48.8103 33.1887 49.3488 33.5171L49.467 29.3995C48.8563 29.3995 48.4032 29.5735 48.1076 29.9216C47.8187 30.2697 47.6742 30.6998 47.6742 31.212ZM49.4276 37.7923L49.2897 42.491C49.8742 42.4385 50.324 42.2382 50.6393 41.8902C50.9611 41.5421 51.1219 41.0627 51.1219 40.452C51.1219 39.8215 50.9742 39.2994 50.6787 38.8857C50.3831 38.472 49.9661 38.1075 49.4276 37.7923Z" fill="#FFFFFC"/>
</svg>
