<svg width="103" height="102" viewBox="0 0 103 102" fill="none" xmlns="http://www.w3.org/2000/svg">
<path d="M76.9088 66.9691C76.9088 50.7992 78.8805 39.1027 78.8805 38.9686C79.014 38.3113 78.6187 37.6541 77.9614 37.6541C77.3042 37.5206 76.6469 37.9159 76.6469 38.5732C76.6469 38.7067 74.5416 50.6657 74.5416 67.0969C74.5416 73.9313 74.937 87.0762 76.2515 92.7299H27.3476C28.6621 87.0764 28.924 73.931 29.0575 67.0969C29.0575 50.6654 27.0858 38.7007 26.9522 38.5732C26.8187 37.9159 26.2949 37.5206 25.6377 37.6541C24.9804 37.7876 24.585 38.4448 24.7186 38.9686C24.7186 39.1021 26.8239 50.7992 26.6903 66.9691C26.6903 75.2516 26.1666 89.7115 24.7186 93.3934C24.585 93.7888 24.585 94.1842 24.8521 94.4461C25.1139 94.708 25.3758 94.9698 25.7712 94.9698H77.6945C78.0899 94.9698 78.4853 94.8363 78.6136 94.4461C78.8755 94.1842 78.8755 93.6553 78.7472 93.3934C77.5661 89.7118 76.9088 75.2518 76.9088 66.9691Z" fill="#202020"/>
<path d="M97.5452 52.636L87.9482 22.4022C86.5001 17.6678 82.8237 13.8578 78.2229 12.2815L64.9436 6.76154H64.8101C64.6766 6.76154 64.5483 6.62804 64.4148 6.76154H64.2813H64.1478C50.8685 11.4959 39.6951 6.89505 39.5676 6.76154H39.3058H39.1723C39.0388 6.76154 38.7769 6.76154 38.6485 6.89505L25.5034 12.415C20.769 13.9913 17.0926 17.8066 15.6445 22.5357L6.04749 52.7695C5.91398 53.0314 6.04749 53.4268 6.18099 53.6886C6.31449 53.9505 6.57637 54.2124 6.97175 54.2124L21.2973 57.8941H21.5592C22.083 57.8941 22.6118 57.4987 22.7402 56.975C22.8737 56.3177 22.4783 55.6604 21.9495 55.5269L8.93787 52.107L9.9905 48.8208L21.5644 52.1122H21.8263C22.35 52.1122 22.8789 51.7168 23.0073 51.193C23.1408 50.5358 22.7454 49.8785 22.2165 49.745L10.3859 46.7205L17.8827 23.1933C19.0637 19.1162 22.2217 15.9635 26.2935 14.5154L37.8623 9.65279V12.2818C37.8623 19.9071 44.0395 26.2183 51.7988 26.2183C59.5523 26.2183 65.7353 20.0411 65.7353 12.2818V9.65279L77.4323 14.649C81.3759 15.9635 84.5286 19.2498 85.7148 23.3269L93.2065 46.8541L81.3759 49.8785C80.7186 50.012 80.3232 50.6693 80.5851 51.3266C80.7186 51.8503 81.2424 52.2457 81.7661 52.2457H82.028L93.9922 49.2213L95.0448 52.5076L82.0333 55.9274C81.376 56.0609 80.9806 56.7182 81.2425 57.3755C81.376 57.8992 81.8997 58.2946 82.4235 58.2946H82.6854L97.011 54.6129C97.2728 54.4794 97.5347 54.3511 97.8017 54.0892C98.0687 53.8222 97.6736 53.0314 97.5452 52.636ZM51.7988 23.7167C45.488 23.7167 40.23 18.5922 40.23 12.1479V9.38532C42.3353 10.0426 46.4071 11.0952 51.6652 11.0952C55.085 11.0952 59.0286 10.6999 63.3623 9.38532V12.1479C63.3674 18.592 58.1095 23.7167 51.7988 23.7167Z" fill="#202020"/>
<path d="M70.5977 45.0166C71.255 45.0166 71.7787 44.4928 71.7787 43.8356V39.6302C71.7787 38.9729 71.255 38.4492 70.5977 38.4492H58.5052C57.848 38.4492 57.3242 38.9729 57.3242 39.6302V43.8356C57.3242 44.4928 57.848 45.0166 58.5052 45.0166H70.5977ZM59.6862 40.8061H69.2832V42.6443L59.6862 42.6494V40.8061Z" fill="#202020"/>
</svg>
