<svg width="103" height="103" viewBox="0 0 103 103" fill="none" xmlns="http://www.w3.org/2000/svg">
<g clip-path="url(#clip0_409_592)">
<path fill-rule="evenodd" clip-rule="evenodd" d="M99.5521 60.9511V13.3842C99.6877 9.75938 96.8944 6.70168 93.2832 6.5248H87.0143V59.1461H94.8605C96.5915 59.1507 98.2639 59.7943 99.5521 60.9511ZM91.9409 14.3238C91.9319 13.9563 92.0674 13.607 92.3205 13.3438C92.5736 13.0807 92.9217 12.9355 93.2832 12.9355C93.6493 12.9355 93.9974 13.0807 94.2505 13.3438C94.5036 13.607 94.6392 13.9563 94.6256 14.3238V51.3523C94.6075 52.0781 94.0109 52.6588 93.2832 52.6588C92.56 52.6588 91.9635 52.0781 91.9408 51.3523L91.9409 14.3238ZM16.0282 52.9445V15.376H84.3298V60.4936C84.3253 61.224 84.9084 61.8228 85.6405 61.841H94.8653H94.8608C96.1127 61.8546 97.306 62.3945 98.1421 63.3244C101.157 66.5773 99.0099 72.1664 94.8608 72.1664H39.7472L16.0282 52.9445ZM1.31634 88.0266V43.8393C1.32538 43.3221 1.61917 42.8548 2.08469 42.6325C2.54571 42.4102 3.09711 42.4737 3.49941 42.7912L13.3388 50.7667V14.0285C13.3388 13.6702 13.4789 13.3299 13.732 13.0758C13.9806 12.8218 14.3241 12.6812 14.6812 12.6812H84.3296V5.17755C84.3296 4.81916 84.4697 4.47891 84.7228 4.22486C84.9759 3.9708 85.3149 3.83017 85.672 3.83017H93.2831C98.3768 4.01164 102.372 8.27608 102.241 13.389V66.994C102.35 71.204 99.0548 74.7154 94.8605 74.8605H43.0734L57.9519 86.9192C58.431 87.2549 58.6389 87.8628 58.4671 88.4254C58.2909 88.988 57.7711 89.3736 57.1835 89.3736H2.6623C2.30525 89.3736 1.96174 89.233 1.70864 88.9789C1.46006 88.7249 1.31634 88.385 1.31634 88.0266ZM13.3437 78.2818C13.3437 78.6402 13.4838 78.9805 13.737 79.2345C13.9855 79.4886 14.329 79.6292 14.6861 79.6292H29.9221C30.5096 79.6292 31.0294 79.2482 31.2057 78.6856C31.382 78.123 31.1696 77.5106 30.6905 77.1749L15.5991 64.9443C15.2104 64.5814 14.6409 64.4815 14.1483 64.6948C13.6602 64.908 13.3438 65.3934 13.3438 65.9333L13.3437 78.2818ZM16.0284 73.5138V76.9344H26.1255L16.0284 68.7502V73.5138ZM4.00555 80.355H7.3773C8.11853 80.355 8.71971 80.9584 8.71971 81.707C8.71971 82.451 8.11859 83.0544 7.3773 83.0544H4.00555V86.6792H53.3883L4.00555 46.6567V61.1601H7.3773C8.11853 61.1601 8.71971 61.7635 8.71971 62.5075C8.71971 63.2515 8.11859 63.855 7.3773 63.855H4.00555V70.7598H7.3773C8.11853 70.7598 8.71971 71.3631 8.71971 72.1072C8.71971 72.8512 8.11859 73.4547 7.3773 73.4547H4.00555V80.355ZM37.3921 25.3889L35.0373 23.4926C34.5492 23.0797 33.835 23.0752 33.3379 23.4744L20.7908 33.6139C20.3072 33.9496 20.0993 34.5621 20.2756 35.1246C20.4473 35.6872 20.9671 36.0728 21.5547 36.0728H23.2903V49.8329C23.2903 50.5769 23.8914 51.1804 24.6327 51.1804H43.7147C44.0718 51.1849 44.4153 51.0397 44.6684 50.7902C44.926 50.5362 45.0661 50.1914 45.0661 49.833V36.0729H46.8017C47.3712 36.0683 47.8774 35.7099 48.0626 35.1746C48.2524 34.6347 48.0852 34.0359 47.6423 33.6774L45.6762 32.0896V20.8658C45.6762 20.1218 45.0751 19.5184 44.3338 19.5184H38.734C37.9882 19.5184 37.387 20.1218 37.387 20.8658V25.3889L37.3921 25.3889ZM34.1832 26.2463L25.3652 33.3734H42.9963L34.1783 26.2463H34.1832ZM42.9967 29.9165L42.9921 22.2133H40.077V27.5575L42.9967 29.9165ZM35.5617 48.4801V42.6913H32.8047V48.4847L35.5617 48.4801ZM30.1155 48.4801L30.111 41.344C30.111 40.6 30.7121 39.9966 31.4579 39.9966H36.9041C37.6453 39.9966 38.2465 40.5999 38.2465 41.344V48.4847H42.3775V36.0718H25.9798V48.48L30.1155 48.4801ZM57.5641 25.5067C57.2071 25.5067 56.8635 25.6474 56.6104 25.9014C56.3573 26.1555 56.2172 26.5002 56.2172 26.8587V47.3688C56.2172 47.7272 56.3619 48.0719 56.615 48.3215C56.8635 48.5755 57.2071 48.7161 57.5641 48.7161H78.6663C79.0234 48.7161 79.3624 48.5755 79.6155 48.3215C79.8686 48.0719 80.0087 47.7272 80.0087 47.3688V26.8587C80.0087 26.1146 79.4076 25.5112 78.6663 25.5112L57.5641 25.5067ZM71.8559 38.1961C71.8559 37.452 72.4571 36.8486 73.1984 36.8486C73.9396 36.8486 74.5408 37.452 74.5408 38.1961V38.7495H77.3158V28.2063H73.0357V33.3736V33.369C73.0357 34.1176 72.4346 34.721 71.6933 34.721C70.952 34.721 70.3509 34.1176 70.3509 33.369V28.2063H58.9025V34.4624H62.6629V31.518C62.6629 30.7695 63.264 30.166 64.0053 30.166C64.751 30.166 65.3522 30.7694 65.3522 31.518V34.4624H67.386H67.3815C68.1273 34.4624 68.7284 35.0657 68.7284 35.8098C68.7284 36.5539 68.1273 37.1573 67.3815 37.1573H58.9026V46.0219H61.5963L61.6008 40.9182C61.6008 40.1742 62.2019 39.5707 62.9432 39.5707H66.5002C67.2414 39.5707 67.8426 40.1741 67.8426 40.9182C67.8426 41.6622 67.2415 42.2656 66.5002 42.2656H64.2855V46.022H77.3208V41.4445H74.5457V41.998V41.9935C74.5457 42.742 73.9446 43.3454 73.2033 43.3454C72.462 43.3454 71.8609 42.7421 71.8609 41.9935V38.1963L71.8559 38.1961ZM53.7586 22.5405H79.069C79.8102 22.5405 80.4114 21.9372 80.4114 21.1886C80.4114 20.4446 79.8103 19.8411 79.069 19.8411H53.7586C53.0128 19.8411 52.4117 20.4445 52.4117 21.1886C52.4117 21.9371 53.0128 22.5405 53.7586 22.5405ZM53.962 62.8268H57.0353C57.7765 62.8268 58.3777 62.2188 58.3777 61.4748C58.3777 60.7308 57.7766 60.1273 57.0353 60.1273H53.962C53.2162 60.1273 52.615 60.7307 52.615 61.4748C52.615 62.2188 53.2162 62.8268 53.962 62.8268ZM61.302 62.8268H69.1347C69.8759 62.8268 70.4771 62.2188 70.4771 61.4748C70.4771 60.7308 69.876 60.1273 69.1347 60.1273H61.302C60.5608 60.1273 59.9596 60.7307 59.9596 61.4748C59.9596 62.2188 60.5607 62.8268 61.302 62.8268ZM74.5398 62.8268H78.7296C79.4708 62.8268 80.072 62.2188 80.072 61.4748C80.072 60.7308 79.4709 60.1273 78.7296 60.1273H74.5398C73.7986 60.1273 73.1974 60.7307 73.1974 61.4748C73.1974 62.2188 73.7985 62.8268 74.5398 62.8268ZM53.9617 57.1605H59.0916C59.8329 57.1605 60.434 56.5526 60.434 55.8085C60.434 55.0644 59.8329 54.4611 59.0916 54.4611H53.9617C53.216 54.4611 52.6148 55.0644 52.6148 55.8085C52.6148 56.5526 53.2159 57.1605 53.9617 57.1605ZM66.2102 57.1605H79.2721C80.0134 57.1605 80.6191 56.5526 80.6191 55.8085C80.6191 55.0644 80.0134 54.4611 79.2721 54.4611H66.2056C65.4644 54.4611 64.8632 55.0644 64.8632 55.8085C64.8632 56.5526 65.4643 57.1605 66.2056 57.1605H66.2102Z" fill="#202020"/>
</g>
<defs>
<clipPath id="clip0_409_592">
<rect width="101.889" height="101.889" fill="white" transform="translate(0.621094 0.145111)"/>
</clipPath>
</defs>
</svg>
