<svg width="102" height="103" viewBox="0 0 102 103" fill="none" xmlns="http://www.w3.org/2000/svg">
<path d="M82.2828 28.3324C82.2652 27.9384 82.114 27.555 81.8572 27.2561L78.3892 23.2429L79.9051 20.5241C80.5488 19.3775 79.6835 17.9073 78.3681 17.9073H65.0275L64.929 17.0913C64.4893 13.4404 62.9629 10.085 60.631 7.64052C58.081 4.97447 54.8063 3.56406 51.1658 3.56406C47.5252 3.56406 44.2543 4.97447 41.7042 7.64403C39.3687 10.0885 37.8422 13.444 37.4061 17.0948L37.3076 17.9073H23.9634C22.6445 17.9073 21.7897 19.374 22.4299 20.5241L23.9494 23.2429L20.4778 27.2561C20.221 27.5515 20.0663 27.9384 20.0487 28.3323L17.4319 89.5923C17.3897 90.6264 17.766 91.6147 18.4976 92.378C19.2468 93.1589 20.295 93.6056 21.3748 93.6056H80.9572C82.0405 93.6056 83.0922 93.1553 83.8449 92.371C84.5729 91.6077 84.9493 90.6194 84.9036 89.5924L82.2828 28.3324ZM75.3714 21.4279L74.7136 22.6062C74.3584 23.2429 74.4428 24.0624 74.9176 24.6146L76.6763 26.6511H66.0684L65.4459 21.4279H75.3714ZM65.8783 39.7353C66.7787 39.7353 67.5103 40.4633 67.5103 41.3567C67.5103 42.2501 66.7787 42.9782 65.8783 42.9782C64.9778 42.9782 64.2463 42.2501 64.2463 41.3567C64.2498 40.4633 64.9814 39.7353 65.8783 39.7353ZM40.8989 17.5129C41.634 11.3718 45.8547 7.08068 51.1654 7.08068C57.3628 7.08068 60.8341 12.4902 61.4356 17.5129L61.4813 17.9104H40.8491L40.8989 17.5129ZM40.4311 21.4277H61.9042L62.5268 26.6508H39.8056L40.4311 21.4277ZM38.085 41.3566C38.085 42.25 37.3534 42.9781 36.453 42.9781C35.5526 42.9781 34.821 42.25 34.821 41.3566C34.821 40.4632 35.5526 39.7352 36.453 39.7352C37.3534 39.7352 38.085 40.4632 38.085 41.3566ZM27.6213 22.6063L26.9635 21.428H36.8888L36.2628 26.6512H25.655L27.4171 24.6147C27.8919 24.0625 27.9765 23.243 27.6213 22.6063ZM81.2979 89.9405C81.21 90.032 81.0798 90.0882 80.9532 90.0882H21.3743C21.2477 90.0882 21.1211 90.032 21.0332 89.9405C20.9699 89.8737 20.9417 89.8068 20.9417 89.74L23.4882 30.1647H35.841L35.0954 36.4009C32.9146 36.9988 31.3073 38.9931 31.3073 41.3567C31.3073 44.1916 33.6181 46.4954 36.4566 46.4954C39.295 46.4954 41.6059 44.1916 41.6059 41.3567C41.6059 39.2885 40.3749 37.5018 38.6057 36.6893L39.3866 30.1683H62.9487L63.726 36.6928C61.9604 37.5088 60.7294 39.292 60.7294 41.3602C60.7294 44.1951 63.0402 46.4989 65.8787 46.4989C68.7171 46.4989 71.028 44.1951 71.028 41.3602C71.028 38.9931 69.417 36.9987 67.2364 36.4044L66.4907 30.1718H78.84L81.3865 89.7506C81.39 89.8104 81.3612 89.8772 81.2979 89.9405Z" fill="#202020"/>
<path d="M58.9598 49.9076C56.3535 49.5277 53.6803 50.0764 51.1656 51.4903C48.6542 50.0729 45.9776 49.5277 43.3714 49.9076C40.6279 50.305 38.1799 51.7154 36.4811 53.875C33.094 58.1801 32.8407 65.4535 39.9175 71.9959L49.9697 81.2882C50.3074 81.6013 50.7365 81.756 51.1621 81.756C51.5912 81.756 52.0203 81.6012 52.3544 81.2882L62.4067 71.9959C69.4799 65.4538 69.2301 58.1799 65.8395 53.875C64.1477 51.7119 61.7032 50.305 58.9598 49.9076ZM60.0255 69.4106L51.1656 77.5988L42.3056 69.4106C36.5057 64.0468 37.0332 58.8586 39.2456 56.0484C40.4943 54.4657 42.5519 53.3084 44.9964 53.3084C46.6038 53.3084 48.3764 53.8079 50.1913 55.0143C50.7822 55.4082 51.549 55.4082 52.1399 55.0143C56.7088 51.9754 61.0175 53.4175 63.0854 56.0448C65.2977 58.8586 65.8255 64.0466 60.0255 69.4106Z" fill="#202020"/>
</svg>
