<svg width="103" height="103" viewBox="0 0 103 103" fill="none" xmlns="http://www.w3.org/2000/svg">
<path d="M97.0457 45.5474H90.3526V10.0626C90.3444 6.28785 87.2826 3.22632 83.5078 3.22223H44.5005C41.115 3.22223 38.3689 5.96826 38.3648 9.35778V11.9316H11.105C7.25222 11.9357 4.12909 15.0588 4.125 18.9114V72.3935C4.1291 76.3035 7.29733 79.4676 11.2034 79.4716H38.7675C38.6404 82.5537 37.6978 85.5498 36.0418 88.1482C34.3819 90.7508 32.0661 92.8656 29.3241 94.2797H23.1228C22.1104 94.3043 21.3071 95.1322 21.3071 96.1404C21.3071 97.1486 22.1104 97.9765 23.1228 97.997H71.352C72.3644 97.9765 73.1678 97.1486 73.1678 96.1404C73.1678 95.1321 72.3644 94.3042 71.352 94.2797H65.1549C62.4129 92.8656 60.0971 90.7508 58.4372 88.1482C56.7773 85.5497 55.8386 82.5537 55.7116 79.4716H83.2714C87.1816 79.4676 90.3457 76.3035 90.3539 72.3935V57.975H92.7681H92.764C96.1536 57.9709 98.8997 55.2249 98.8997 51.8395V47.4049C98.8997 46.3802 98.0718 45.5482 97.0472 45.5482L97.0457 45.5474ZM86.635 10.0626V45.5474H57.3292C56.3045 45.5474 55.4725 46.3794 55.4725 47.404V51.8387C55.4725 53.1747 54.3905 54.2568 53.0543 54.2568C51.7181 54.2568 50.6361 53.1748 50.6361 51.8387V9.35767C50.6361 8.52567 50.468 7.70598 50.136 6.94362H83.5036C85.2291 6.94362 86.6269 8.34118 86.635 10.0626ZM42.0824 9.3536V9.3577C42.0824 8.02162 43.1644 6.93955 44.5006 6.93955C45.8368 6.93955 46.9189 8.02151 46.9189 9.3577V11.9316H42.0824V9.3536ZM58.7436 94.2789H35.7291C39.8647 90.4427 42.2952 85.1104 42.4837 79.4711H51.9886C52.1771 85.1107 54.6081 90.4429 58.7436 94.2789ZM86.635 72.3931C86.6309 74.2497 85.1267 75.7539 83.2701 75.7579H11.2027C9.34601 75.7539 7.84179 74.2497 7.84179 72.3931V69.0282H86.6349L86.635 72.3931ZM86.635 65.3149L7.8419 65.3108V18.911C7.8419 17.1076 9.301 15.6485 11.1045 15.6444H46.9189V51.8385C46.923 55.2239 49.665 57.9699 53.0546 57.974H86.631L86.635 65.3149ZM95.1889 51.8387H95.1848C95.1807 53.1707 94.1028 54.2486 92.7666 54.2527H58.694C59.0219 53.4904 59.1899 52.6666 59.1899 51.8387V49.2648H95.1848L95.1889 51.8387ZM55.4723 39.0025C55.4723 37.9737 56.3044 37.1418 57.329 37.1418H79.9374C80.9662 37.1418 81.7982 37.9738 81.7982 39.0025C81.7982 40.0271 80.9661 40.8591 79.9374 40.8591H57.329C56.3043 40.8591 55.4723 40.0271 55.4723 39.0025ZM55.4723 30.5964C55.4723 29.5718 56.3044 28.7398 57.329 28.7398H79.9374C80.9498 28.7644 81.7531 29.5882 81.7531 30.5964C81.7531 31.6087 80.9498 32.4325 79.9374 32.4571H57.329C56.8372 32.4571 56.3658 32.2604 56.0174 31.912C55.669 31.5636 55.4723 31.0882 55.4723 30.5964ZM55.4723 22.1903C55.4723 21.1657 56.3044 20.3337 57.329 20.3337H79.9374C80.9662 20.3337 81.7982 21.1657 81.7982 22.1903C81.7982 23.2191 80.9661 24.051 79.9374 24.051H57.329C56.3043 24.051 55.4723 23.219 55.4723 22.1903ZM55.4723 13.7884C55.4723 12.7637 56.3044 11.9318 57.329 11.9318H79.9374C80.9662 11.9318 81.7982 12.7638 81.7982 13.7884C81.7982 14.813 80.9661 15.645 79.9374 15.645H57.329C56.3043 15.645 55.4723 14.813 55.4723 13.7884Z" fill="#202020"/>
</svg>
