<svg width="103" height="103" viewBox="0 0 103 103" fill="none" xmlns="http://www.w3.org/2000/svg">
<g clip-path="url(#clip0_409_600)">
<path d="M97.9752 22.0639L86.62 7.30177C85.9344 6.41652 85.0559 5.69931 84.0514 5.20472C83.0469 4.71012 81.9428 4.45117 80.8231 4.44757H22.223C21.1031 4.45081 19.9987 4.70975 18.9941 5.20462C17.9895 5.6995 17.1112 6.41726 16.4261 7.30316L5.07161 22.0639C3.89422 23.5991 3.25447 25.479 3.25098 27.4137V35.1662C3.25325 37.1052 4.02456 38.9642 5.3957 40.3354C6.76683 41.7065 8.62584 42.4778 10.5649 42.4801V90.7522C10.5672 92.6912 11.3385 94.5502 12.7096 95.9214C14.0808 97.2925 15.9398 98.0638 17.8789 98.0661H85.1672C87.1063 98.0638 88.9653 97.2925 90.3364 95.9214C91.7075 94.5502 92.4788 92.6912 92.4811 90.7522V42.4801C94.4202 42.4778 96.2792 41.7065 97.6503 40.3354C99.0215 38.9642 99.7928 37.1052 99.7951 35.1662V27.4137C99.7916 25.4791 99.1521 23.5993 97.9752 22.0639ZM57.3742 42.4801V58.5708H52.9858V51.2568C52.9859 51.0647 52.9481 50.8745 52.8746 50.697C52.8011 50.5195 52.6933 50.3582 52.5575 50.2224C52.4216 50.0865 52.2604 49.9788 52.0829 49.9053C51.9054 49.8318 51.7151 49.794 51.523 49.794H45.6719C45.4798 49.794 45.2895 49.8318 45.112 49.9053C44.9345 49.9788 44.7732 50.0865 44.6374 50.2224C44.5016 50.3582 44.3938 50.5195 44.3203 50.697C44.2468 50.8745 44.209 51.0647 44.2091 51.2568V58.5708H39.8207V51.2568C39.8208 51.0647 39.783 50.8745 39.7095 50.697C39.636 50.5195 39.5282 50.3582 39.3924 50.2224C39.2565 50.0865 39.0953 49.9788 38.9178 49.9053C38.7403 49.8318 38.55 49.794 38.3579 49.794H32.5068C32.3147 49.794 32.1244 49.8318 31.9469 49.9053C31.7694 49.9788 31.6081 50.0865 31.4723 50.2224C31.3365 50.3582 31.2287 50.5195 31.1552 50.697C31.0817 50.8745 31.0439 51.0647 31.044 51.2568V58.5708H26.6556V51.2568C26.6557 51.0647 26.6179 50.8745 26.5444 50.697C26.4709 50.5195 26.3631 50.3582 26.2273 50.2224C26.0914 50.0865 25.9302 49.9788 25.7527 49.9053C25.5752 49.8318 25.3849 49.794 25.1928 49.794H19.3417C19.1495 49.794 18.9593 49.8318 18.7818 49.9053C18.6043 49.9788 18.443 50.0865 18.3072 50.2224C18.1714 50.3582 18.0636 50.5195 17.9901 50.697C17.9166 50.8745 17.8788 51.0647 17.8789 51.2568V58.5708H13.4905V42.4801H57.3742ZM47.1347 87.8266V81.9754H50.0602V87.8266H47.1347ZM51.523 79.0498H45.6719C45.4798 79.0498 45.2895 79.0876 45.112 79.1611C44.9345 79.2346 44.7732 79.3423 44.6374 79.4782C44.5016 79.614 44.3938 79.7753 44.3203 79.9528C44.2468 80.1303 44.209 80.3205 44.2091 80.5126V87.8266H39.8207V80.5126C39.8208 80.3205 39.783 80.1303 39.7095 79.9528C39.636 79.7753 39.5282 79.614 39.3924 79.4782C39.2565 79.3423 39.0953 79.2346 38.9178 79.1611C38.7403 79.0876 38.55 79.0498 38.3579 79.0498H32.5068C32.3147 79.0498 32.1244 79.0876 31.9469 79.1611C31.7694 79.2346 31.6081 79.3423 31.4723 79.4782C31.3365 79.614 31.2287 79.7753 31.1552 79.9528C31.0817 80.1303 31.0439 80.3205 31.044 80.5126V87.8266H26.6556V80.5126C26.6557 80.3205 26.6179 80.1303 26.5444 79.9528C26.4709 79.7753 26.3631 79.614 26.2273 79.4782C26.0914 79.3423 25.9302 79.2346 25.7527 79.1611C25.5752 79.0876 25.3849 79.0498 25.1928 79.0498H19.3417C19.1495 79.0498 18.9593 79.0876 18.7818 79.1611C18.6043 79.2346 18.443 79.3423 18.3072 79.4782C18.1714 79.614 18.0636 79.7753 17.9901 79.9528C17.9166 80.1303 17.8788 80.3205 17.8789 80.5126V87.8266H13.4905V76.1243H57.3742V86.3638C57.3739 86.7517 57.2197 87.1236 56.9454 87.3978C56.6712 87.6721 56.2993 87.8263 55.9114 87.8266H52.9858V80.5126C52.9859 80.3205 52.9481 80.1303 52.8746 79.9528C52.8011 79.7753 52.6933 79.614 52.5575 79.4782C52.4216 79.3423 52.2604 79.2346 52.0829 79.1611C51.9054 79.0876 51.7151 79.0498 51.523 79.0498ZM33.9696 87.8266V81.9754H36.8951V87.8266H33.9696ZM20.8044 87.8266V81.9754H23.73V87.8266H20.8044ZM23.73 58.5708H20.8044V52.7196H23.73V58.5708ZM57.3742 61.4964V73.1987H52.9858V65.8847C52.9859 65.6926 52.9481 65.5024 52.8746 65.3249C52.8011 65.1474 52.6933 64.9861 52.5575 64.8503C52.4216 64.7144 52.2604 64.6067 52.0829 64.5332C51.9054 64.4597 51.7151 64.4219 51.523 64.4219H45.6719C45.4798 64.4219 45.2895 64.4597 45.112 64.5332C44.9345 64.6067 44.7732 64.7144 44.6374 64.8503C44.5016 64.9861 44.3938 65.1474 44.3203 65.3249C44.2468 65.5024 44.209 65.6926 44.2091 65.8847V73.1987H39.8207V65.8847C39.8208 65.6926 39.783 65.5024 39.7095 65.3249C39.636 65.1474 39.5282 64.9861 39.3924 64.8503C39.2565 64.7144 39.0953 64.6067 38.9178 64.5332C38.7403 64.4597 38.55 64.4219 38.3579 64.4219H32.5068C32.3147 64.4219 32.1244 64.4597 31.9469 64.5332C31.7694 64.6067 31.6081 64.7144 31.4723 64.8503C31.3365 64.9861 31.2287 65.1474 31.1552 65.3249C31.0817 65.5024 31.0439 65.6926 31.044 65.8847V73.1987H26.6556V65.8847C26.6557 65.6926 26.6179 65.5024 26.5444 65.3249C26.4709 65.1474 26.3631 64.9861 26.2273 64.8503C26.0914 64.7144 25.9302 64.6067 25.7527 64.5332C25.5752 64.4597 25.3849 64.4219 25.1928 64.4219H19.3417C19.1495 64.4219 18.9593 64.4597 18.7818 64.5332C18.6043 64.6067 18.443 64.7144 18.3072 64.8503C18.1714 64.9861 18.0636 65.1474 17.9901 65.3249C17.9166 65.5024 17.8788 65.6926 17.8789 65.8847V73.1987H13.4905V61.4964H57.3742ZM36.8951 58.5708H33.9696V52.7196H36.8951V58.5708ZM50.0602 58.5708H47.1347V52.7196H50.0602V58.5708ZM47.1347 73.1987V67.3475H50.0602V73.1987H47.1347ZM33.9696 73.1987V67.3475H36.8951V73.1987H33.9696ZM20.8044 73.1987V67.3475H23.73V73.1987H20.8044ZM64.6881 95.1405V64.4219C64.6884 64.0341 64.8426 63.6622 65.1169 63.3879C65.3911 63.1136 65.763 62.9594 66.1509 62.9592H80.7788C81.1667 62.9594 81.5386 63.1136 81.8129 63.3879C82.0871 63.6622 82.2413 64.0341 82.2416 64.4219V95.1405H64.6881ZM89.5555 43.9429H83.7044C83.3164 43.9429 82.9444 44.097 82.67 44.3713C82.3957 44.6457 82.2416 45.0177 82.2416 45.4057C82.2416 45.7936 82.3957 46.1657 82.67 46.44C82.9444 46.7144 83.3164 46.8685 83.7044 46.8685H89.5555V90.7522C89.5543 91.9156 89.0915 93.0311 88.2688 93.8538C87.4461 94.6765 86.3307 95.1393 85.1672 95.1405V64.4219C85.1659 63.2585 84.7032 62.143 83.8804 61.3203C83.0577 60.4976 81.9423 60.0348 80.7788 60.0336H66.1509C64.9874 60.0348 63.872 60.4976 63.0493 61.3203C62.2266 62.143 61.7638 63.2585 61.7626 64.4219V95.1405H17.8789C16.7154 95.1393 15.5999 94.6765 14.7772 93.8538C13.9545 93.0311 13.4918 91.9156 13.4905 90.7522H55.9114C57.0749 90.7509 58.1903 90.2881 59.013 89.4654C59.8357 88.6427 60.2985 87.5273 60.2998 86.3638V42.4801H89.5555V43.9429ZM96.8695 35.1662C96.8682 36.3296 96.4055 37.4451 95.5828 38.2678C94.7601 39.0905 93.6446 39.5532 92.4811 39.5545H89.5555V35.1662C89.5555 34.7782 89.4014 34.4061 89.1271 34.1318C88.8528 33.8575 88.4807 33.7034 88.0928 33.7034C87.7048 33.7034 87.3327 33.8575 87.0584 34.1318C86.7841 34.4061 86.63 34.7782 86.63 35.1662V39.5545H82.2416V32.2406C82.2416 31.8526 82.0875 31.4805 81.8132 31.2062C81.5388 30.9319 81.1668 30.7778 80.7788 30.7778C80.3909 30.7778 80.0188 30.9319 79.7445 31.2062C79.4701 31.4805 79.316 31.8526 79.316 32.2406V39.5545H61.7626V35.1662C61.7626 34.7782 61.6084 34.4061 61.3341 34.1318C61.0598 33.8575 60.6877 33.7034 60.2998 33.7034C59.9118 33.7034 59.5397 33.8575 59.2654 34.1318C58.9911 34.4061 58.837 34.7782 58.837 35.1662V39.5545H50.0602V29.315C50.0602 28.927 49.9061 28.555 49.6318 28.2806C49.3575 28.0063 48.9854 27.8522 48.5974 27.8522C48.2095 27.8522 47.8374 28.0063 47.5631 28.2806C47.2888 28.555 47.1347 28.927 47.1347 29.315V39.5545H31.044V36.6289C31.044 36.241 30.8899 35.8689 30.6155 35.5946C30.3412 35.3203 29.9691 35.1662 29.5812 35.1662C29.1932 35.1662 28.8212 35.3203 28.5468 35.5946C28.2725 35.8689 28.1184 36.241 28.1184 36.6289V39.5545H25.1928V32.2406C25.1928 31.8526 25.0387 31.4805 24.7644 31.2062C24.49 30.9319 24.118 30.7778 23.73 30.7778C23.3421 30.7778 22.97 30.9319 22.6957 31.2062C22.4214 31.4805 22.2672 31.8526 22.2672 32.2406V39.5545H10.5649C9.40145 39.5532 8.28598 39.0905 7.46328 38.2678C6.64058 37.4451 6.17783 36.3296 6.17656 35.1662V27.4137C6.17902 26.1238 6.60541 24.8705 7.39007 23.8467L18.7453 9.08593C19.1563 8.55455 19.6833 8.12403 20.286 7.82721C20.8886 7.53038 21.5511 7.37508 22.223 7.37315H80.8231C81.495 7.37523 82.1575 7.53059 82.7603 7.8274C83.3631 8.12421 83.8902 8.55465 84.3015 9.08593L95.6567 23.8481C96.4409 24.8715 96.8671 26.1243 96.8695 27.4137V35.1662Z" fill="#202020"/>
<path d="M79.3163 79.0498C79.1242 79.0497 78.9339 79.0875 78.7564 79.1609C78.5789 79.2344 78.4176 79.3421 78.2817 79.478C78.1459 79.6139 78.0381 79.7752 77.9646 79.9527C77.8912 80.1302 77.8534 80.3205 77.8535 80.5126V81.9754C77.8535 82.3633 78.0076 82.7354 78.282 83.0097C78.5563 83.2841 78.9283 83.4382 79.3163 83.4382C79.7043 83.4382 80.0763 83.2841 80.3507 83.0097C80.625 82.7354 80.7791 82.3633 80.7791 81.9754V80.5126C80.7792 80.3205 80.7414 80.1302 80.668 79.9527C80.5945 79.7752 80.4868 79.6139 80.3509 79.478C80.215 79.3421 80.0537 79.2344 79.8762 79.1609C79.6987 79.0875 79.5084 79.0497 79.3163 79.0498Z" fill="#202020"/>
<path d="M73.4647 46.8684H77.8531C78.2411 46.8684 78.6131 46.7143 78.8875 46.44C79.1618 46.1657 79.3159 45.7936 79.3159 45.4056C79.3159 45.0177 79.1618 44.6456 78.8875 44.3713C78.6131 44.097 78.2411 43.9428 77.8531 43.9428H73.4647C73.0768 43.9428 72.7047 44.097 72.4304 44.3713C72.1561 44.6456 72.002 45.0177 72.002 45.4056C72.002 45.7936 72.1561 46.1657 72.4304 46.44C72.7047 46.7143 73.0768 46.8684 73.4647 46.8684Z" fill="#202020"/>
</g>
<defs>
<clipPath id="clip0_409_600">
<rect width="101.889" height="101.889" fill="white" transform="translate(0.244141 0.145111)"/>
</clipPath>
</defs>
</svg>
