<svg width="103" height="102" viewBox="0 0 103 102" fill="none" xmlns="http://www.w3.org/2000/svg">
<path fill-rule="evenodd" clip-rule="evenodd" d="M68.2014 65.6206C70.0843 65.6243 71.6137 67.149 71.6137 69.0343C71.6323 69.7408 72.2165 70.306 72.9235 70.306C73.6342 70.306 74.2185 69.7408 74.237 69.0343C74.2333 65.7024 71.5355 63.0026 68.2051 62.9989H53.414V53.877H66.6124C67.338 53.877 67.9259 53.2895 67.9259 52.5681C67.9259 51.8429 67.338 51.2554 66.6124 51.2554H53.414V39.6012H68.2013C71.5317 39.5975 74.2295 36.9015 74.2332 33.5733C74.2146 32.863 73.6341 32.2978 72.9234 32.2978C72.2127 32.2978 71.6321 32.863 71.6098 33.5733C71.6098 35.455 70.0841 36.9796 68.2013 36.9833H53.414V29.1443C53.414 29.1108 53.414 29.0811 53.4103 29.0513C53.4103 28.9918 53.414 28.936 53.414 28.8802C53.414 25.9499 50.9022 23.2985 46.3401 21.4094C41.3538 19.5314 36.0548 18.6166 30.7259 18.7134C25.3935 18.6167 20.091 19.5278 15.1012 21.4057C10.5391 23.2948 8.02734 25.9461 8.02734 28.8765V28.9881V29.0439V66.2863C8.02734 69.2129 10.5391 71.8681 15.1012 73.7535C20.0913 75.6315 25.3942 76.5462 30.7259 76.4458C36.0546 76.5462 41.357 75.6314 46.3468 73.7535C50.9089 71.8644 53.4207 69.213 53.4207 66.2863V65.6207L68.2014 65.6206ZM10.6467 45.8413C11.9975 46.9382 13.5083 47.8159 15.1307 48.4518C20.1133 50.3185 25.4045 51.226 30.7258 51.1292C36.0396 51.2259 41.3274 50.3148 46.3057 48.4518C47.9244 47.8196 49.4389 46.9383 50.7896 45.8413V53.591C50.7487 57.1423 42.4953 61.1027 30.7182 61.1027C25.7467 61.1956 20.8015 60.3366 16.1499 58.5702C12.7451 57.1459 10.6873 55.268 10.6464 53.5463L10.6467 45.8413ZM30.7258 21.3354C42.5515 21.3354 50.7973 25.3069 50.7973 28.8769C50.7935 32.4431 42.5475 36.4146 30.7258 36.4146C18.9041 36.4146 10.6467 32.4431 10.6467 28.8769C10.6467 25.3106 18.889 21.3354 30.7258 21.3354ZM95.5518 50.9172C95.5518 57.2352 90.4241 62.3562 84.1052 62.3524C77.783 62.3524 72.6587 57.2318 72.6587 50.9134C72.6587 44.5991 77.7827 39.4782 84.1052 39.4782C90.4237 39.4745 95.5518 44.5951 95.5518 50.9096V50.9172ZM84.1052 59.7342C88.4701 59.7305 92.1727 56.5398 92.8275 52.2299H84.1052C83.3833 52.2262 82.7991 51.6424 82.7991 50.9172V42.2007C78.2332 42.8849 74.9661 46.9717 75.3084 51.5718C75.6545 56.1755 79.4873 59.7342 84.1052 59.7342ZM67.5946 29.4117C65.7749 29.4117 64.2977 27.9391 64.2977 26.117V7.9922C64.2977 6.17372 65.775 4.69749 67.5946 4.69749H77.6942C78.55 4.69005 79.3575 5.0991 79.8561 5.79446L82.3753 9.22311C82.3827 9.23055 82.3864 9.23799 82.3939 9.24542H89.2519C90.7329 9.24542 91.9311 10.4428 91.9311 11.9229V26.1169C91.9311 27.9354 90.4538 29.4116 88.6342 29.4116L67.5946 29.4117ZM66.9248 7.9921C66.9285 7.62395 67.2262 7.32275 67.5946 7.31902H77.697H77.7193C77.7305 7.32274 77.7342 7.33018 77.7417 7.34134L80.2608 10.77C80.7595 11.4617 81.567 11.867 82.4191 11.8632H89.2511C89.2808 11.867 89.3069 11.8893 89.3069 11.919V26.1169C89.3032 26.4887 89.0018 26.7862 88.6334 26.79H67.5941C67.2257 26.7862 66.928 26.4887 66.9243 26.1169L66.9248 7.9921ZM69.377 12.6888C69.377 13.4102 69.9649 13.9978 70.6906 14.0015H77.3216C78.0435 14.0015 78.6314 13.4139 78.6314 12.6888C78.6314 11.9637 78.0435 11.3761 77.3216 11.3761H70.6906C70.3408 11.3761 70.0059 11.5137 69.7603 11.7591C69.5147 12.0083 69.377 12.3393 69.377 12.6888ZM70.6906 25.3806C69.9649 25.3806 69.377 24.7931 69.377 24.0716V17.9618C69.377 17.616 69.5147 17.2813 69.7603 17.0359C70.0096 16.7904 70.3408 16.6528 70.6906 16.6528H78.8175C79.5431 16.6528 80.131 17.2404 80.131 17.9618V24.0716C80.1273 24.7968 79.5431 25.3806 78.8175 25.3806H70.6906ZM84.5405 84.3587C87.0076 86.2032 88.016 89.4198 87.0448 92.3427C86.0699 95.2656 83.3349 97.2364 80.2538 97.2327H66.7611C63.4121 97.2365 60.5058 94.9123 59.7765 91.6436C59.0472 88.3748 60.6845 85.0355 63.7172 83.6112C63.3972 80.7367 64.2791 77.8621 66.1471 75.6569C68.0188 73.4518 70.713 72.1093 73.6005 71.9494C76.488 71.7896 79.3161 72.8233 81.4185 74.8091C83.5172 76.7948 84.7117 79.5579 84.7117 82.4472C84.7154 83.0868 84.6559 83.7266 84.5405 84.3587ZM80.2538 94.6115H66.7611C64.4986 94.6078 62.586 92.9344 62.2808 90.6958C61.972 88.4534 63.3674 86.3301 65.548 85.7201C66.2178 85.5305 66.6197 84.85 66.4708 84.1732C66.3443 83.6042 66.2811 83.0278 66.2811 82.4477C66.2811 78.0857 69.8198 74.5455 74.1885 74.5455C78.5533 74.5455 82.0959 78.0857 82.0959 82.4477C82.0922 83.0241 82.0326 83.5967 81.9061 84.1583C78.0287 86.7874 74.5866 87.81 71.6732 87.189V87.1853C70.9662 87.0366 70.2703 87.4865 70.1178 88.1931C69.9689 88.9034 70.4192 89.5988 71.1262 89.7512C71.8704 89.9074 72.6295 89.9892 73.3886 89.9855C76.3507 89.9855 79.6029 88.829 83.071 86.5383C84.5854 87.7319 85.1771 89.7549 84.5408 91.5771C83.9082 93.3956 82.1853 94.6152 80.2578 94.6115L80.2538 94.6115Z" fill="#202020"/>
</svg>
