<svg width="103" height="102" viewBox="0 0 103 102" fill="none" xmlns="http://www.w3.org/2000/svg">
<path d="M57.8247 32.3358H68.3011C68.6498 32.3358 68.9843 32.1974 69.2309 31.9511C69.4776 31.7047 69.6163 31.3705 69.6166 31.022V22.9421L73.7311 18.5661C73.8579 18.4423 73.9584 18.2942 74.0264 18.1306C74.0945 17.967 74.1288 17.7914 74.1271 17.6142C74.1255 17.437 74.0881 17.262 74.0171 17.0997C73.946 16.9374 73.8429 16.7911 73.7138 16.6696C73.5848 16.5482 73.4325 16.4541 73.2661 16.393C73.0997 16.3319 72.9227 16.305 72.7456 16.3141C72.5686 16.3231 72.3952 16.3678 72.2359 16.4456C72.0767 16.5233 71.9348 16.6325 71.8188 16.7665L69.1808 19.5711C68.9403 19.3551 68.6284 19.2358 68.3051 19.2361H57.8247C57.476 19.2364 57.1416 19.375 56.8951 19.6216C56.6487 19.8681 56.5102 20.2024 56.5102 20.5509V31.022C56.5102 31.1945 56.5442 31.3654 56.6103 31.5248C56.6763 31.6842 56.7732 31.829 56.8952 31.951C57.0173 32.073 57.1622 32.1698 57.3216 32.2358C57.4811 32.3018 57.6521 32.3358 57.8247 32.3358ZM66.9836 29.7072H59.1331V25.2981L62.5501 28.5282C62.7949 28.7595 63.119 28.8884 63.4559 28.8884H63.4942C63.6672 28.8833 63.8375 28.8442 63.9953 28.7733C64.1532 28.7023 64.2955 28.6009 64.4141 28.4749L66.9877 25.7387L66.9836 29.7072ZM66.9836 21.8607V21.8959L63.3975 25.7085L60.5975 23.0527C60.4069 22.8727 60.1668 22.7537 59.908 22.711C59.6492 22.6683 59.3836 22.704 59.1452 22.8133V21.8647L66.9836 21.8607ZM57.8247 49.9664H68.3011C68.4738 49.9665 68.6449 49.9326 68.8044 49.8667C68.964 49.8007 69.1091 49.7039 69.2312 49.5819C69.3534 49.4599 69.4503 49.315 69.5164 49.1556C69.5825 48.9961 69.6166 48.8252 69.6166 48.6526V40.5767L73.7311 36.2017C73.9489 35.9448 74.0598 35.6142 74.0409 35.278C74.022 34.9418 73.8747 34.6256 73.6295 34.3947C73.3843 34.1638 73.0598 34.0357 72.7229 34.0369C72.386 34.0381 72.0624 34.1684 71.8188 34.4011L69.1808 37.2067C68.9403 36.9908 68.6284 36.8714 68.3051 36.8717H57.8247C57.4761 36.8717 57.1417 37.0101 56.8952 37.2565C56.6487 37.5029 56.5102 37.8371 56.5102 38.1855V48.6566C56.5102 49.0051 56.6487 49.3392 56.8952 49.5856C57.1417 49.832 57.4761 49.9704 57.8247 49.9704V49.9664ZM66.9836 47.3388H59.1331V42.9337L62.543 46.1628C62.7876 46.3945 63.1119 46.5234 63.4489 46.523H63.4871C63.6601 46.5179 63.8304 46.4788 63.9883 46.4079C64.1462 46.3369 64.2885 46.2355 64.407 46.1095L66.9806 43.3733L66.9836 47.3388ZM66.9836 39.4923V39.5285L63.3975 43.3411L60.5975 40.6883C60.4074 40.5074 60.1672 40.3878 59.9082 40.3451C59.6492 40.3025 59.3834 40.3386 59.1452 40.4489V39.4993L66.9836 39.4923ZM52.3031 21.6021C52.3031 21.9508 52.1645 22.2853 51.9178 22.5318C51.6711 22.7784 51.3365 22.9169 50.9877 22.9169H29.7318C29.3894 22.9075 29.0641 22.7648 28.8253 22.5194C28.5864 22.2739 28.4528 21.945 28.4528 21.6026C28.4528 21.2602 28.5864 20.9313 28.8253 20.6859C29.0641 20.4404 29.3894 20.2978 29.7318 20.2883H50.9877C51.3364 20.2883 51.6708 20.4267 51.9175 20.6731C52.1642 20.9194 52.3029 21.2536 52.3031 21.6021ZM28.4174 27.0897C28.4174 26.7412 28.5559 26.4071 28.8024 26.1607C29.0489 25.9143 29.3832 25.7759 29.7318 25.7759H41.6173C41.9598 25.7854 42.285 25.928 42.5239 26.1734C42.7628 26.4189 42.8964 26.7478 42.8964 27.0902C42.8964 27.4326 42.7628 27.7615 42.5239 28.0069C42.285 28.2524 41.9598 28.395 41.6173 28.4045H29.7318C29.3831 28.4042 29.0488 28.2656 28.8023 28.019C28.5558 27.7725 28.4174 27.4382 28.4174 27.0897ZM52.3031 39.2377C52.3029 39.5863 52.1642 39.9204 51.9175 40.1668C51.6708 40.4132 51.3364 40.5515 50.9877 40.5515H29.7318C29.3894 40.5421 29.0641 40.3994 28.8253 40.154C28.5864 39.9086 28.4528 39.5796 28.4528 39.2372C28.4528 38.8948 28.5864 38.5659 28.8253 38.3205C29.0641 38.075 29.3894 37.9324 29.7318 37.9229H50.9877C51.3365 37.9229 51.6711 38.0615 51.9178 38.308C52.1645 38.5546 52.3031 38.889 52.3031 39.2377ZM28.4174 44.7203C28.4174 44.3718 28.5559 44.0377 28.8024 43.7913C29.0489 43.5449 29.3832 43.4065 29.7318 43.4065H41.6173C41.966 43.4065 42.3003 43.5449 42.5468 43.7913C42.7933 44.0377 42.9318 44.3718 42.9318 44.7203C42.9318 45.0687 42.7933 45.4029 42.5468 45.6493C42.3003 45.8956 41.966 46.0341 41.6173 46.0341H29.7318C29.5592 46.0341 29.3883 46.0001 29.2288 45.9341C29.0693 45.868 28.9244 45.7713 28.8024 45.6493C28.6803 45.5273 28.5835 45.3824 28.5174 45.223C28.4514 45.0636 28.4174 44.8928 28.4174 44.7203ZM52.3031 56.8723C52.3031 57.2211 52.1645 57.5555 51.9178 57.802C51.6711 58.0486 51.3365 58.1871 50.9877 58.1871H29.7318C29.3894 58.1777 29.0641 58.035 28.8253 57.7896C28.5864 57.5442 28.4528 57.2153 28.4528 56.8728C28.4528 56.5304 28.5864 56.2015 28.8253 55.9561C29.0641 55.7106 29.3894 55.568 29.7318 55.5586H50.9877C51.3364 55.5586 51.6708 55.6969 51.9175 55.9433C52.1642 56.1896 52.3029 56.5238 52.3031 56.8723ZM28.4174 62.3559C28.4174 62.0073 28.5558 61.6731 28.8023 61.4265C29.0488 61.18 29.3831 61.0413 29.7318 61.0411H41.6173C41.9598 61.0505 42.285 61.1932 42.5239 61.4386C42.7628 61.6841 42.8964 62.013 42.8964 62.3554C42.8964 62.6978 42.7628 63.0267 42.5239 63.2721C42.285 63.5176 41.9598 63.6602 41.6173 63.6697H29.7318C29.3832 63.6697 29.0489 63.5312 28.8024 63.2849C28.5559 63.0385 28.4174 62.7043 28.4174 62.3559ZM52.3031 74.5079C52.3029 74.8565 52.1642 75.1907 51.9175 75.437C51.6708 75.6834 51.3364 75.8217 50.9877 75.8217H29.7318C29.3832 75.8217 29.0489 75.6833 28.8024 75.4369C28.5559 75.1906 28.4174 74.8564 28.4174 74.5079C28.4174 74.1595 28.5559 73.8253 28.8024 73.579C29.0489 73.3326 29.3832 73.1942 29.7318 73.1942H50.9877C51.1604 73.194 51.3314 73.2279 51.491 73.2939C51.6506 73.3598 51.7956 73.4566 51.9178 73.5786C52.0399 73.7006 52.1369 73.8455 52.203 74.005C52.2691 74.1644 52.3031 74.3353 52.3031 74.5079ZM42.9318 79.9905C42.9318 80.3389 42.7933 80.6731 42.5468 80.9195C42.3003 81.1658 41.966 81.3043 41.6173 81.3043H29.7318C29.3832 81.3043 29.0489 81.1658 28.8024 80.9195C28.5559 80.6731 28.4174 80.3389 28.4174 79.9905C28.4174 79.642 28.5559 79.3079 28.8024 79.0615C29.0489 78.8151 29.3832 78.6767 29.7318 78.6767H41.6173C41.966 78.6767 42.3003 78.8151 42.5468 79.0615C42.7933 79.3079 42.9318 79.642 42.9318 79.9905ZM99.5764 34.0741L96.1051 31.5592C95.3432 31.0095 94.3942 30.7843 93.4664 30.9331C92.5386 31.0819 91.7078 31.5925 91.1562 32.3529L88.1438 36.5146L84.1562 42.0233V12.2014C84.0998 10.7806 83.4829 9.43984 82.4403 8.4724C81.3976 7.50496 80.0142 6.9895 78.5924 7.03875H15.6079C14.1865 6.99005 12.8035 7.50574 11.7613 8.47313C10.7191 9.44051 10.1025 10.7809 10.0461 12.2014V18.4052H8.38845C7.57419 18.3948 6.76596 18.5461 6.01067 18.8503C5.25537 19.1546 4.56804 19.6057 3.98855 20.1775C3.40906 20.7493 2.94896 21.4305 2.63492 22.1815C2.32089 22.9324 2.15918 23.7382 2.15918 24.5521C2.15918 25.366 2.32089 26.1719 2.63492 26.9228C2.94896 27.6738 3.40906 28.3549 3.98855 28.9268C4.56804 29.4986 5.25537 29.9497 6.01067 30.254C6.76596 30.5582 7.57419 30.7095 8.38845 30.6991H10.0461V44.9838H8.38845C6.75748 44.9838 5.19331 45.6314 4.04004 46.7841C2.88676 47.9368 2.23886 49.5001 2.23886 51.1303C2.23886 52.7604 2.88676 54.3238 4.04004 55.4765C5.19331 56.6292 6.75748 57.2767 8.38845 57.2767H10.0461V71.5615H8.38845C7.57419 71.5511 6.76596 71.7024 6.01067 72.0066C5.25537 72.3109 4.56804 72.762 3.98855 73.3338C3.40906 73.9056 2.94896 74.5868 2.63492 75.3377C2.32089 76.0887 2.15918 76.8945 2.15918 77.7084C2.15918 78.5223 2.32089 79.3282 2.63492 80.0791C2.94896 80.8301 3.40906 81.5112 3.98855 82.0831C4.56804 82.6549 5.25537 83.106 6.01067 83.4103C6.76596 83.7145 7.57419 83.8658 8.38845 83.8554H10.0461V90.0632C10.1027 91.4835 10.7195 92.8236 11.7617 93.7908C12.8038 94.758 14.1866 95.2735 15.6079 95.2248H78.5913C80.013 95.2741 81.3963 94.7588 82.4389 93.7915C83.4815 92.8243 84.0986 91.4839 84.1552 90.0632V61.4233L97.3894 43.1399L100.37 39.0235C100.92 38.2617 101.146 37.3127 100.997 36.3849C100.848 35.457 100.337 34.6259 99.5764 34.0741ZM4.86678 24.5536C4.86678 23.6198 5.23792 22.7243 5.89855 22.064C6.55918 21.4037 7.45518 21.0328 8.38946 21.0328H14.3347C15.269 21.0328 16.165 21.4037 16.8256 22.064C17.4863 22.7243 17.8574 23.6198 17.8574 24.5536C17.8574 25.4874 17.4863 26.383 16.8256 27.0433C16.165 27.7036 15.269 28.0745 14.3347 28.0745H8.38845C7.45453 28.074 6.55904 27.7028 5.89884 27.0426C5.23865 26.3823 4.86678 25.4871 4.86678 24.5536ZM4.86779 51.1323C4.86779 50.1985 5.23892 49.3029 5.89955 48.6427C6.56018 47.9824 7.45619 47.6114 8.39046 47.6114H14.3357C15.2463 47.6458 16.1081 48.0316 16.7401 48.6876C17.3722 49.3437 17.7253 50.219 17.7253 51.1298C17.7253 52.0405 17.3722 52.9159 16.7401 53.5719C16.1081 54.228 15.2463 54.6137 14.3357 54.6481H8.38845C7.4554 54.6476 6.56067 54.2771 5.90062 53.618C5.24057 52.9588 4.86912 52.0649 4.86779 51.1323ZM4.86779 77.7109C4.86779 76.7771 5.23892 75.8816 5.89955 75.2213C6.56018 74.561 7.45619 74.1901 8.39046 74.1901H14.3357C15.2463 74.2245 16.1081 74.6102 16.7401 75.2663C17.3722 75.9223 17.7253 76.7977 17.7253 77.7084C17.7253 78.6192 17.3722 79.4945 16.7401 80.1506C16.1081 80.8066 15.2463 81.1924 14.3357 81.2268H8.38845C7.4554 81.2263 6.56067 80.8558 5.90062 80.1966C5.24057 79.5375 4.86912 78.6435 4.86779 77.7109ZM12.676 90.0632V83.8584H14.3337C15.9512 83.8377 17.4954 83.181 18.6319 82.0305C19.7684 80.8799 20.4056 79.3282 20.4056 77.7114C20.4056 76.0947 19.7684 74.543 18.6319 73.3924C17.4954 72.2419 15.9512 71.5852 14.3337 71.5645H12.676V57.2788H14.3337C15.1413 57.2788 15.941 57.1198 16.6871 56.8109C17.4332 56.502 18.1111 56.0492 18.6821 55.4785C19.2532 54.9077 19.7061 54.2302 20.0152 53.4844C20.3242 52.7387 20.4833 51.9395 20.4833 51.1323C20.4833 50.3251 20.3242 49.5259 20.0152 48.7801C19.7061 48.0344 19.2532 47.3568 18.6821 46.7861C18.1111 46.2153 17.4332 45.7626 16.6871 45.4537C15.941 45.1448 15.1413 44.9858 14.3337 44.9858H12.676V30.7011H14.3337C15.9512 30.6804 17.4954 30.0237 18.6319 28.8732C19.7684 27.7226 20.4056 26.1709 20.4056 24.5541C20.4056 22.9374 19.7684 21.3857 18.6319 20.2351C17.4954 19.0846 15.9512 18.4279 14.3337 18.4072H12.676V12.2014C12.7337 11.4788 13.0737 10.808 13.6223 10.334C14.171 9.85996 14.8843 9.62085 15.6079 9.66835H22.0363V92.5962H15.6079C14.8843 92.6437 14.171 92.4046 13.6223 91.9306C13.0737 91.4566 12.7337 90.7858 12.676 90.0632ZM81.5252 90.0632C81.4681 90.7864 81.128 91.458 80.5788 91.9323C80.0297 92.4066 79.3156 92.6456 78.5913 92.5972H24.6662V9.66835H78.5913C79.3154 9.62003 80.0294 9.8588 80.5785 10.3329C81.1277 10.8071 81.4678 11.4783 81.5252 12.2014V45.6639L69.6166 62.1175V58.2123L73.7311 53.8363C73.8579 53.7126 73.9584 53.5644 74.0264 53.4008C74.0945 53.2372 74.1288 53.0616 74.1271 52.8844C74.1255 52.7072 74.0881 52.5322 74.0171 52.3699C73.946 52.2076 73.8429 52.0613 73.7138 51.9398C73.5848 51.8184 73.4325 51.7243 73.2661 51.6632C73.0997 51.6021 72.9227 51.5752 72.7456 51.5843C72.5686 51.5933 72.3952 51.6381 72.2359 51.7158C72.0767 51.7935 71.9348 51.9027 71.8188 52.0367L69.1808 54.8413C68.9403 54.6254 68.6284 54.506 68.3051 54.5063H57.8247C57.476 54.5066 57.1416 54.6452 56.8951 54.8918C56.6487 55.1383 56.5102 55.4726 56.5102 55.8211V66.2922C56.5102 66.6407 56.6487 66.9748 56.8952 67.2212C57.1417 67.4676 57.4761 67.606 57.8247 67.606H65.5685L65.0814 68.2619C64.9377 68.4547 64.8499 68.6834 64.8278 68.9228L64.5258 72.1922C64.4086 72.159 64.2873 72.1421 64.1655 72.1419H57.8247C57.4761 72.1419 57.1417 72.2803 56.8952 72.5267C56.6487 72.7731 56.5102 73.1073 56.5102 73.4557V83.9268C56.5102 84.2753 56.6487 84.6096 56.8951 84.8562C57.1416 85.1027 57.476 85.2413 57.8247 85.2416H68.3011C68.65 85.2416 68.9846 85.1031 69.2313 84.8565C69.478 84.6099 69.6166 84.2755 69.6166 83.9268V77.6969C69.6161 77.6155 69.6084 77.5344 69.5934 77.4544L73.8096 75.3419C73.9939 75.25 74.1539 75.1159 74.2766 74.9506L77.6986 70.3493L77.7167 70.3241L81.5293 65.0569L81.5252 90.0632ZM66.9866 57.1681L63.4006 60.9807L60.5975 58.3229C60.4069 58.1429 60.1668 58.0239 59.908 57.9812C59.6492 57.9385 59.3836 57.9742 59.1452 58.0835V57.1349H66.9957L66.9866 57.1681ZM59.1361 60.5662L62.5471 63.7964C62.7917 64.0281 63.1159 64.157 63.4529 64.1565H63.4911C63.6642 64.1515 63.8345 64.1124 63.9923 64.0414C64.1502 63.9705 64.2925 63.8691 64.4111 63.7431L66.9846 61.0069V64.9764H59.1341L59.1361 60.5662ZM64.0196 77.6345L63.315 78.5328L60.5975 75.9586C60.407 75.7783 60.1669 75.6591 59.9081 75.6163C59.6493 75.5734 59.3836 75.6089 59.1452 75.7181V74.7725H64.1675C64.2088 74.7725 64.248 74.7725 64.2873 74.7665L64.0196 77.6345ZM59.1452 78.2039L62.5551 81.434C62.5793 81.4562 62.6044 81.4763 62.6296 81.4974L62.6487 81.5145C62.7038 81.5568 62.762 81.5948 62.8228 81.6282L62.845 81.6413C62.9021 81.6711 62.9613 81.6966 63.0221 81.7177L63.0543 81.7288C63.1137 81.7479 63.1742 81.763 63.2355 81.774H63.2647C63.3283 81.7836 63.3926 81.7887 63.4569 81.7891C63.5033 81.789 63.5497 81.7863 63.5958 81.7811L63.6341 81.7751C63.6673 81.7751 63.7005 81.766 63.7347 81.759L63.781 81.7469C63.8102 81.7398 63.8404 81.7318 63.8696 81.7217L63.9189 81.7137C63.9457 81.7036 63.9729 81.6926 64.0004 81.6805L64.0508 81.6563L64.1242 81.6161C64.1423 81.606 64.1595 81.595 64.1766 81.5839C64.1937 81.5729 64.2208 81.5537 64.242 81.5376L64.2933 81.4984C64.3144 81.4813 64.3336 81.4632 64.3527 81.4451C64.3718 81.427 64.3859 81.4149 64.401 81.3988L64.4121 81.3888C64.4332 81.3666 64.4513 81.3445 64.4694 81.3214C64.4876 81.2982 64.4855 81.3043 64.4926 81.2952L66.1442 79.1887L66.9897 78.7652V82.6181H59.1391L59.1452 78.2039ZM66.8226 75.9052L67.4164 69.5334L69.2432 67.0759C69.2633 67.0487 69.2824 67.0215 69.2995 66.9934C69.3166 66.9652 69.3418 66.9431 69.3619 66.9159L69.8199 66.2993L74.7889 69.8433L72.3512 73.1328L66.8226 75.9052ZM76.3529 67.7267L71.3668 64.1787L89.5086 39.118L94.4847 42.6681L76.3529 67.7267ZM98.2398 37.4803L96.0256 40.5385L91.0506 36.9884L93.2859 33.8991C93.4308 33.7061 93.6453 33.5771 93.8837 33.5396C94.1222 33.502 94.3659 33.5588 94.5632 33.6979L98.0385 36.2037C98.2316 36.3486 98.3607 36.5629 98.3982 36.8012C98.4358 37.0396 98.379 37.2832 98.2398 37.4803Z" fill="#202020"/>
</svg>
