<svg width="76" height="68" viewBox="0 0 76 68" fill="none" xmlns="http://www.w3.org/2000/svg">
<g clip-path="url(#clip0_641_396)">
<mask id="mask0_641_396" style="mask-type:luminance" maskUnits="userSpaceOnUse" x="0" y="0" width="76" height="68">
<path d="M75.104 0.620117H0V67.3793H75.104V0.620117Z" fill="white"/>
</mask>
<g mask="url(#mask0_641_396)">
<path d="M39.4704 7.55797C39.4704 6.55269 39.5132 5.58989 39.4704 4.62708C39.4276 3.74923 38.7001 3.04129 37.83 2.94217C36.86 2.8289 35.8757 3.33862 35.7473 4.24479C35.6047 5.34918 35.7188 6.46774 35.7188 7.54381H39.4847L39.4704 7.55797ZM13.8509 26.6725C15.3344 26.6725 16.5469 25.469 16.5612 24.0106C16.5612 22.5239 15.3202 21.2779 13.8224 21.2921C12.3103 21.2921 11.1121 22.5239 11.1263 24.0389C11.1406 25.5114 12.3531 26.6866 13.8509 26.6866M63.9916 24.0672C63.9916 22.5664 62.8361 21.3912 61.3383 21.3629C59.7977 21.3346 58.571 22.5098 58.5424 24.0106C58.5282 25.4831 59.7835 26.7433 61.2813 26.7291C62.7648 26.7291 63.9773 25.5398 63.9773 24.0531M67.7004 37.504C67.6433 37.3341 67.6433 37.2633 67.6006 37.2067C66.06 34.559 64.5194 31.8971 62.936 29.2635C62.8361 29.0795 62.4938 28.9804 62.2513 28.9662C61.6521 28.9379 61.0245 29.0512 60.4396 28.9662C59.9404 28.8954 59.7121 29.0228 59.4696 29.4476C58.0574 31.9254 56.6024 34.3749 55.1617 36.8385C55.0476 37.0368 54.9334 37.2491 54.7908 37.5182H67.7004V37.504ZM20.2558 37.4898C20.213 37.3483 20.213 37.2491 20.1702 37.1784C18.6153 34.5023 17.0605 31.8263 15.4771 29.1644C15.3772 29.0087 15.0777 28.9096 14.8637 28.8954C14.236 28.8671 13.5941 28.9662 12.9665 28.8671C12.51 28.7963 12.3246 28.9379 12.1106 29.2919C10.6413 31.8405 9.14352 34.3891 7.65998 36.9377C7.57439 37.0934 7.51733 37.2633 7.41748 37.4757H20.2558V37.4898ZM35.676 55.2876H39.4276V30.6228H35.676V55.2876ZM49.8124 39.8969C49.8124 40.8455 49.7553 41.7375 49.8266 42.6154C49.9408 43.9888 50.9821 44.8666 52.3943 44.8949C53.3215 44.9091 54.2487 44.8949 55.1759 44.8949C60.1401 44.8949 65.09 44.8949 70.0541 44.8949C71.5091 44.8949 72.6075 44.0454 72.7359 42.7428C72.8215 41.8225 72.7501 40.8738 72.7501 39.911H49.8266L49.8124 39.8969ZM25.2627 39.911H2.35349C2.35349 40.6756 2.35349 41.3694 2.35349 42.0773C2.35349 43.9038 3.35202 44.8808 5.20644 44.8949C7.91675 44.8949 10.6271 44.8949 13.3374 44.8949C16.4328 44.8949 19.5425 44.8949 22.638 44.8949C24.0074 44.8949 25.063 44.1304 25.2199 42.8985C25.334 41.9357 25.2484 40.9446 25.2484 39.9252M50.0406 65.0147C50.0406 63.7687 50.0406 62.5935 50.0406 61.4184C50.0121 59.3087 48.5143 57.7087 46.3746 57.6804C40.5118 57.6379 34.6489 57.6379 28.7861 57.6804C26.9602 57.6804 25.4196 58.8981 25.1914 60.6113C25.0059 62.0555 25.1486 63.528 25.1486 65.0289H50.0406V65.0147ZM37.5304 28.3574C42.6943 28.3574 46.9166 24.223 46.9309 19.1399C46.9452 14.0144 42.6943 9.80923 37.5304 9.82339C32.3808 9.82339 28.1585 14.0286 28.1585 19.0975C28.1585 24.1947 32.3523 28.3574 37.5161 28.3574M75.1038 43.1251C74.8613 43.7198 74.6901 44.3711 74.3478 44.9091C73.4634 46.3392 72.1225 47.1745 70.4107 47.1887C64.3197 47.217 58.2429 47.2312 52.1518 47.1887C49.7411 47.1887 47.744 45.348 47.5158 42.9835C47.4016 41.7658 47.4159 40.5198 47.4587 39.288C47.5015 38.2403 48.1862 37.6031 49.2561 37.5465C50.0121 37.504 50.7681 37.5465 51.5242 37.5182C51.7667 37.504 52.109 37.3624 52.2231 37.1642C54.0918 34.0209 55.932 30.8635 57.6437 27.9326C57.0446 26.6583 56.5168 25.5398 55.9177 24.2796C53.6353 23.869 51.1533 23.4301 48.6141 22.9912C48.5286 23.2035 48.4572 23.3734 48.3716 23.5434C47.1449 26.3468 45.1478 28.3998 42.3376 29.6741C41.9953 29.8299 41.8098 29.9856 41.8098 30.4104C41.8241 38.5801 41.8098 46.7498 41.8098 54.9053C41.8098 55.0185 41.8384 55.1318 41.8526 55.3584C42.9653 55.3584 44.0637 55.33 45.1478 55.3584C46.0465 55.3867 46.9737 55.3867 47.8296 55.5991C50.4828 56.2362 52.2945 58.5583 52.3372 61.2485C52.3658 62.6927 52.3515 64.151 52.3372 65.5952C52.3372 66.7846 51.7381 67.3651 50.5114 67.3651C47.0165 67.3651 43.5216 67.3651 40.0267 67.3651C34.9628 67.3651 29.913 67.3651 24.849 67.3651C23.1658 67.3651 22.6808 66.8837 22.6808 65.1988C22.6808 63.9953 22.6808 62.7776 22.6808 61.5741C22.7093 57.9353 25.2627 55.3867 28.9573 55.3442C30.341 55.33 31.7389 55.3442 33.1797 55.3442C33.1939 55.0752 33.2225 54.8628 33.2225 54.6504C33.2225 46.6082 33.2225 38.5659 33.2082 30.5095C33.2082 30.2405 33.0227 29.8157 32.8088 29.7166C29.7704 28.3291 27.6735 26.0919 26.4324 22.9628C24.9204 23.2177 23.4083 23.4726 21.9105 23.7274C21.0689 23.869 20.2272 23.9964 19.3856 24.1805C19.1717 24.223 18.8578 24.4212 18.8293 24.5911C18.6296 25.7805 18.1018 26.7857 17.2459 27.6353C19.1146 30.821 20.9405 33.9784 22.8092 37.1217C22.9233 37.3199 23.2514 37.4757 23.4939 37.4898C24.2499 37.5465 25.0059 37.4898 25.762 37.5182C26.8604 37.5748 27.5451 38.2261 27.5879 39.3163C27.6307 40.4915 27.6592 41.695 27.5451 42.8561C27.3168 45.3056 25.3198 47.1462 22.8377 47.1604C16.8037 47.1887 10.7697 47.1887 4.72144 47.1604C2.08246 47.1462 -0.000199847 45.0365 -0.0572589 42.4455C-0.0857885 41.426 -0.0715237 40.4207 -0.0572589 39.4013C-0.0429942 38.2969 0.641715 37.589 1.75437 37.5182C2.5104 37.4757 3.26643 37.5323 4.02247 37.4898C4.26497 37.4757 4.60732 37.3341 4.72144 37.1359C6.59012 33.9926 8.41602 30.8352 10.2847 27.6494C9.32896 26.6158 8.71558 25.4548 8.70131 24.0248C8.70131 21.7452 10.1421 19.7912 12.3531 19.1541C14.5356 18.5169 16.8893 19.3948 18.059 21.3487C18.3586 21.8584 18.6439 21.9576 19.2144 21.8443C21.397 21.4337 23.5795 21.0797 25.8618 20.6974C25.8618 19.6497 25.7477 18.6019 25.8761 17.5966C26.4467 13.4339 28.729 10.4464 32.5377 8.60573C33.0227 8.37918 33.2367 8.13848 33.2082 7.58629C33.1511 6.62348 33.1797 5.66068 33.2082 4.68372C33.3508 2.40414 35.2195 0.620117 37.5589 0.620117C39.8984 0.620117 41.7528 2.38998 41.8241 4.71203C41.8526 5.74563 41.8241 6.79339 41.8526 7.82699C41.8526 8.05353 42.0523 8.37919 42.2521 8.46414C46.7027 10.3614 49.8694 15.1754 49.199 20.5133C49.199 20.5558 49.2133 20.6125 49.2418 20.7257C50.6683 20.9806 52.1233 21.2496 53.5783 21.5045C54.3486 21.6461 55.1189 21.7593 55.8892 21.9151C56.3742 22.0142 56.6595 21.9576 56.9448 21.462C58.0146 19.6497 60.083 18.7293 62.1229 19.0833C64.2055 19.4514 65.8603 21.0231 66.2454 23.0903C66.5307 24.6194 66.1883 26.0353 65.147 27.2105C64.8332 27.5786 64.8332 27.8193 65.0614 28.2016C66.7875 31.1184 68.4992 34.0492 70.1967 36.9801C70.425 37.3624 70.6532 37.5465 71.1097 37.5182C71.6517 37.4757 72.1796 37.5465 72.7216 37.504C73.8485 37.4332 74.6759 37.8297 75.1038 38.8916V43.0968V43.1251Z" fill="#202020"/>
<path d="M36.6747 20.3155C38.201 18.8147 39.6418 17.3846 41.0968 15.9546C41.2537 15.7988 41.3963 15.6431 41.5675 15.5015C42.1238 15.0059 42.8086 14.9776 43.265 15.4307C43.7358 15.8838 43.7358 16.5776 43.2365 17.1156C42.9655 17.4129 42.6516 17.6961 42.3663 17.9934C40.8258 19.5084 39.2994 21.0376 37.7588 22.5526C36.96 23.3313 36.4179 23.3313 35.6334 22.5668C34.4351 21.3916 33.2512 20.2164 32.0672 19.0412C31.411 18.3899 31.3254 17.7103 31.8247 17.2006C32.3382 16.6625 33.0514 16.7333 33.7362 17.3988C34.7062 18.3474 35.6619 19.3102 36.689 20.3297" fill="#202020"/>
</g>
</g>
<defs>
<clipPath id="clip0_641_396">
<rect width="75.104" height="66.7591" fill="white" transform="translate(0 0.620117)"/>
</clipPath>
</defs>
</svg>
