<svg width="64" height="66" viewBox="0 0 64 66" fill="none" xmlns="http://www.w3.org/2000/svg">
<g clip-path="url(#clip0_641_383)">
<mask id="mask0_641_383" style="mask-type:luminance" maskUnits="userSpaceOnUse" x="0" y="0" width="64" height="66">
<path d="M63.6298 0.141602H0V65.8576H63.6298V0.141602Z" fill="white"/>
</mask>
<g mask="url(#mask0_641_383)">
<path d="M54.8487 46.6082C54.0802 45.7261 53.1836 45.5981 52.3155 46.281C50.3373 47.8602 48.3733 49.4679 46.4093 51.0756C46.2812 51.1752 46.1389 51.4028 46.1674 51.5451C46.267 52.1142 46.4236 52.6833 46.5801 53.3235C49.3553 51.0614 52.102 48.8419 54.8629 46.6082M2.14884 63.681H15.8539V47.8602H2.14884V63.681ZM18.0598 60.551C19.3407 60.551 20.5931 60.5368 21.8455 60.551C22.1728 60.551 22.5428 60.6506 22.8275 60.8356C24.8057 62.0733 26.9689 62.6709 29.2886 62.6709C34.1274 62.6709 38.9662 62.6709 43.7907 62.6709C45.9824 62.6709 47.8325 61.9168 49.3838 60.3661C50.195 59.5551 51.0062 58.7441 51.8174 57.9332C54.806 54.9597 57.7804 51.9719 60.7691 48.9984C61.2814 48.4862 61.6088 47.9171 61.4095 47.1631C61.068 45.84 59.6163 45.4558 58.4636 46.3806C54.5214 49.5817 50.5792 52.7687 46.637 55.984C45.4985 56.9231 44.2177 57.3783 42.7376 57.3641C38.8096 57.3499 34.8817 57.3641 30.9395 57.3641C30.8114 57.3641 30.6691 57.3641 30.541 57.3641C29.9006 57.3214 29.4879 56.9088 29.4879 56.3255C29.4879 55.728 29.8864 55.3011 30.5126 55.2585C30.6833 55.2585 30.8684 55.2585 31.0391 55.2585C34.654 55.2585 38.2831 55.2585 41.8979 55.2585C42.3675 55.2585 42.8799 55.1446 43.2784 54.9312C44.1038 54.4902 44.4596 53.4943 44.2177 52.5837C43.9757 51.6874 43.1503 51.0329 42.1541 51.0329C39.1939 51.0329 36.2337 51.0472 33.2735 51.0045C32.7327 51.0045 32.135 50.848 31.6511 50.6061C28.819 49.2261 26.0011 49.1692 23.1833 50.5634C22.5286 50.8907 21.8882 51.0472 21.1624 51.0329C20.1092 51.0045 19.0703 51.0329 18.0172 51.0329V60.5652L18.0598 60.551ZM44.73 49.7098C46.7082 48.1021 48.6437 46.5229 50.5792 44.9579C52.714 43.2364 54.5214 43.3075 56.5565 45.214C56.7985 45.0148 57.0546 44.8156 57.3108 44.6164C59.0186 43.2933 61.2387 43.464 62.6334 45.0005C64.0139 46.5371 63.9712 48.785 62.4627 50.3216C60.5556 52.2565 58.6201 54.1629 56.6988 56.0836C54.7918 57.9901 52.8705 59.8681 50.9777 61.7888C48.9853 63.8091 46.5801 64.805 43.7338 64.7908C38.9377 64.7765 34.1559 64.7908 29.3598 64.7908C26.7839 64.7908 24.3787 64.1932 22.1586 62.8985C21.9878 62.7989 21.8028 62.6851 21.6178 62.6851C20.4508 62.6709 19.2838 62.6851 18.0456 62.6851C18.0456 63.368 18.0456 63.994 18.0456 64.6343C18.0456 65.4595 17.6471 65.8578 16.8359 65.8578C11.6414 65.8578 6.46104 65.8578 1.26648 65.8578C0.441039 65.8578 0.0283203 65.4594 0.0283203 64.6485C0.0283203 58.7584 0.0283203 52.8683 0.0283203 46.9639C0.0283203 46.1103 0.426807 45.7261 1.29494 45.7261C6.46104 45.7261 11.6271 45.7261 16.7932 45.7261C17.6471 45.7261 18.0314 46.1245 18.0456 46.9924C18.0456 47.6041 18.0456 48.2159 18.0456 48.8988C19.3122 48.8988 20.5219 48.8988 21.7174 48.8988C21.8739 48.8988 22.0447 48.785 22.2013 48.6997C25.6596 47.0066 29.1179 47.0208 32.5904 48.6997C32.875 48.8419 33.2166 48.9131 33.5297 48.9131C36.2479 48.9273 38.9662 48.9415 41.6844 48.9131C42.766 48.9131 43.7907 49.0696 44.7442 49.7382" fill="#202020"/>
<path d="M51.9453 19.493C51.988 15.8223 49.2697 13.1334 45.9253 13.2756C43.9756 13.361 42.4385 14.2573 41.3285 15.8792C40.7023 16.7898 39.8911 16.7898 39.2649 15.8935C39.2079 15.8081 39.151 15.7085 39.0799 15.6231C37.5286 13.674 35.5219 12.863 33.1026 13.4321C30.7259 13.987 29.2173 15.5662 28.7477 17.9849C28.3349 20.1474 28.9469 22.1535 29.9716 24.0173C32.206 28.0863 35.6358 30.946 39.578 33.265C40.1045 33.578 40.5315 33.5353 41.0438 33.2508C44.3598 31.3159 47.2631 28.9115 49.5259 25.7815C50.9491 23.8181 51.8884 21.6555 51.9453 19.4787M40.3038 13.7309C41.67 12.3082 43.2782 11.483 45.1852 11.2127C49.227 10.6293 53.34 13.6598 53.952 17.7146C54.4358 20.9299 53.4112 23.7896 51.6891 26.4075C49.1559 30.2773 45.7118 33.1512 41.6416 35.3138C40.7165 35.8117 39.8911 35.8117 38.966 35.3138C34.1984 32.7386 30.2278 29.3241 27.7941 24.4014C26.6841 22.1393 26.129 19.7348 26.7552 17.2166C28.2211 11.2553 35.4792 9.14971 39.9053 13.3752C40.0191 13.4748 40.133 13.5886 40.3038 13.7451" fill="#202020"/>
<path d="M37.0163 2.44685C36.8171 2.29035 36.6036 2.17653 36.4328 2.0058C36.0059 1.60743 35.9205 1.13793 36.2193 0.639976C36.504 0.156247 37.1159 -0.0287081 37.5998 0.284293C38.7241 0.981432 39.82 1.72125 40.9016 2.4753C41.3997 2.83098 41.4851 3.3574 41.1577 3.88381C40.4746 4.96508 39.763 6.03213 39.023 7.07073C38.653 7.59714 38.0552 7.6825 37.5713 7.35527C37.0875 7.02805 36.9594 6.44473 37.2867 5.88986C37.5571 5.43459 37.856 5.00777 38.1975 4.48135C33.2022 5.17849 29.1747 7.3695 26.1291 11.2393C19.426 19.7473 21.6746 32.0681 30.9109 37.7306C31.039 37.816 31.1813 37.8871 31.2952 37.9725C31.8218 38.3566 31.9498 38.9257 31.651 39.4237C31.3521 39.9216 30.7401 40.1066 30.2136 39.7651C29.132 39.0538 27.9934 38.3708 27.0541 37.503C21.0484 31.9686 18.7998 25.1394 20.8776 17.2433C22.9412 9.40401 28.2496 4.6094 36.1339 2.68871C36.3901 2.6318 36.6463 2.58912 36.9167 2.53221C36.9452 2.53221 36.9736 2.48953 37.0448 2.44685" fill="#202020"/>
<path d="M43.5059 42.3254C43.7621 42.5104 43.9756 42.6384 44.1463 42.8091C44.5733 43.2075 44.6729 43.6912 44.3456 44.175C44.0182 44.6587 43.5201 44.8436 43.022 44.5306C41.855 43.805 40.7165 43.051 39.6064 42.2543C39.1653 41.9413 39.0941 41.4149 39.393 40.9454C40.0903 39.8498 40.8161 38.7686 41.5562 37.7015C41.912 37.1893 42.5382 37.104 43.022 37.4454C43.4774 37.7584 43.6198 38.3275 43.3209 38.8539C43.0647 39.3092 42.7516 39.736 42.5239 40.362C43.7336 40.049 44.986 39.8214 46.1672 39.423C53.7954 36.8052 58.7907 29.4781 58.2784 21.4397C57.8941 15.265 54.9909 10.4704 49.7678 7.11277C49.6255 7.01318 49.4548 6.94204 49.3124 6.84245C48.7859 6.45831 48.6578 5.90344 48.9709 5.39126C49.2697 4.90753 49.8675 4.7368 50.4225 5.06403C51.1625 5.50508 51.9026 5.94613 52.5715 6.50099C59.1465 11.9074 61.8078 18.8645 59.8154 27.1306C57.8372 35.3682 52.3438 40.3478 44.0467 42.1974C43.9613 42.2116 43.8759 42.24 43.7905 42.2543C43.7336 42.2685 43.6625 42.297 43.5059 42.3539" fill="#202020"/>
<path d="M13.7762 51.0177C13.7762 51.5868 13.2923 52.0705 12.7231 52.0705C12.1538 52.0705 11.6699 51.5868 11.6699 51.0177C11.6699 50.4343 12.1396 49.9648 12.7231 49.9648C13.2923 49.9648 13.7762 50.4343 13.7762 51.0177Z" fill="#202020"/>
</g>
</g>
<defs>
<clipPath id="clip0_641_383">
<rect width="63.6298" height="65.716" fill="white" transform="translate(0 0.141602)"/>
</clipPath>
</defs>
</svg>
