<svg width="69" height="59" viewBox="0 0 69 59" fill="none" xmlns="http://www.w3.org/2000/svg">
<g clip-path="url(#clip0_641_406)">
<mask id="mask0_641_406" style="mask-type:luminance" maskUnits="userSpaceOnUse" x="0" y="0" width="69" height="59">
<path d="M68.8454 0.292969H0V58.7072H68.8454V0.292969Z" fill="white"/>
</mask>
<g mask="url(#mask0_641_406)">
<path d="M13.8929 31.9646C13.6534 32.08 13.1038 32.2098 12.7234 32.5559C11.8075 33.3925 10.9339 34.2867 10.1167 35.2098C9.28537 36.1473 9.36991 37.5464 10.2294 38.4406C11.0607 39.306 12.4416 39.4647 13.3293 38.657C14.3015 37.7916 15.2174 36.8396 16.0769 35.8444C16.7251 35.0944 16.7532 34.1713 16.3024 33.2771C15.8656 32.3973 15.1329 31.9934 13.8929 31.9646ZM17.4437 44.5561C17.6832 44.4551 18.2468 44.3397 18.6273 43.9936C19.5713 43.1282 20.4872 42.2195 21.3185 41.2387C22.1076 40.3301 21.9948 38.9166 21.1635 38.0656C20.3322 37.2002 18.9654 37.0416 18.0636 37.8493C17.0773 38.7291 16.1474 39.6954 15.2878 40.7051C14.6679 41.4262 14.6256 42.3349 15.0624 43.2147C15.4851 44.0801 16.2178 44.5128 17.4437 44.5561ZM32.3794 50.8014C32.2667 49.4889 31.844 48.7244 30.9422 48.3061C30.0404 47.8879 29.1809 48.0033 28.4482 48.6667C27.6169 49.4312 26.8419 50.2533 26.067 51.0754C25.0665 52.1283 25.0384 53.5995 25.9683 54.5658C26.9124 55.5466 28.3355 55.5466 29.3782 54.5226C30.1391 53.787 30.914 53.0514 31.5904 52.2293C31.9849 51.7533 32.1962 51.1187 32.3653 50.7869M27.1378 45.4215C27.0251 44.1378 26.6165 43.3734 25.7147 42.9407C24.8129 42.5224 23.9534 42.6234 23.2207 43.2868C22.3753 44.0657 21.5721 44.8878 20.7831 45.7388C19.8108 46.7773 19.7968 48.2196 20.7126 49.186C21.6567 50.1667 23.0939 50.1812 24.1225 49.1715C24.8834 48.436 25.6583 47.7004 26.3347 46.8782C26.7292 46.4023 26.9546 45.7676 27.1237 45.4215M29.8009 45.2917C29.9841 45.3205 30.1391 45.3494 30.2941 45.3638C33.7462 45.609 35.7329 49.1283 34.817 51.9697C34.7607 52.1283 34.7889 52.4168 34.9016 52.5322C35.8738 53.5418 36.8038 54.6091 37.8746 55.5034C38.9878 56.4409 40.3827 55.9649 41.1859 55.0707C42.0031 54.162 41.8904 52.6764 41.0309 51.8254C39.9882 50.8014 38.9314 49.7917 37.9028 48.7533C36.4656 47.3109 35.0566 45.8542 33.6335 44.383C32.9712 43.7051 32.8867 43.0416 33.3235 42.4214C33.8307 41.7003 34.7466 41.6859 35.4793 42.3926C36.7615 43.6618 38.0437 44.9455 39.326 46.2148C40.5377 47.4263 41.7636 48.6235 42.9894 49.8206C43.6517 50.4696 44.4548 50.7004 45.3425 50.4408C47.1179 49.9071 47.6252 47.7292 46.2584 46.3157C44.3703 44.3686 42.4258 42.4936 40.5236 40.5608C38.8469 38.8733 37.1983 37.1714 35.5497 35.4694C34.9016 34.7915 34.8593 33.955 35.3948 33.3925C35.9725 32.8011 36.7474 32.8588 37.466 33.5656C39.5514 35.6569 41.6509 37.7483 43.7362 39.8397C45.2298 41.3541 46.6952 42.8974 48.2029 44.3974C49.4851 45.6811 51.4155 45.3205 52.1059 43.7051C52.5145 42.7388 52.2891 41.7147 51.4295 40.8349C48.1183 37.431 44.793 34.0415 41.4677 30.6521C41.2563 30.4357 41.0027 30.2338 40.7632 30.0463C40.0305 29.4405 40.1573 28.2866 41.0027 27.8539C41.8199 27.4501 42.2004 27.5366 42.9613 28.3011C46.4416 31.8636 49.9078 35.4262 53.4022 38.9743C54.4731 40.056 55.9103 40.0849 56.8684 39.0897C57.8406 38.0945 57.7984 36.6233 56.7416 35.5415C51.965 30.6376 47.1602 25.7337 42.3695 20.8442C42.2145 20.6856 41.9608 20.5413 41.7495 20.5413C40.0305 20.5413 38.3114 20.5413 36.5924 20.6135C36.2824 20.6135 35.902 20.7865 35.6766 21.0029C34.3662 22.2577 33.1685 23.6135 31.8017 24.7962C29.2514 27.003 25.0243 26.1376 23.3898 23.152C21.9948 20.6135 22.3894 17.9019 24.4747 15.7528C26.9687 13.1855 29.4627 10.6326 31.9708 8.07964C32.1399 7.90656 32.2949 7.73348 32.464 7.54598C25.5033 1.28628 14.0056 1.3584 7.14364 9.39216C0.817077 16.7913 1.57795 27.7386 7.4818 33.8685C8.67948 32.7002 9.8208 31.4742 11.0748 30.3924C13.4843 28.3011 17.2746 29.1232 18.6554 32.0223C19.0218 32.8011 19.1627 33.6954 19.4304 34.5608C22.5725 34.8348 24.3057 36.6666 24.5734 39.9262C27.8282 40.1426 29.6882 42.3349 29.8009 45.3061M68.8452 22.9356C68.6338 24.1183 68.4929 25.3155 68.2252 26.4982C67.3234 30.479 65.3508 33.854 62.5186 36.7243C61.6591 37.5897 60.7714 38.4262 59.926 39.306C59.6583 39.5945 59.5174 40.0128 59.2779 40.3445C58.2352 41.8301 56.7839 42.508 54.9944 42.5801C54.7408 45.883 52.9936 47.6859 49.7387 47.9888C49.4851 51.2918 47.7097 53.0947 44.5112 53.3543C44.328 54.1331 44.2435 54.912 43.9476 55.6187C42.5526 59.0226 38.0719 59.8015 35.5075 57.1043C34.7325 56.2822 33.9434 55.4745 33.1121 54.5947C32.4921 55.2437 31.9285 55.8639 31.3367 56.4409C28.6455 59.0947 24.6297 58.4024 23.0798 54.9985C22.8544 54.5081 22.7275 53.9601 22.6853 53.4264C22.643 52.8927 22.488 52.6908 21.9526 52.6331C19.7122 52.4024 18.0918 50.9744 17.5282 48.7677C17.4155 48.335 17.3873 47.8734 17.3169 47.3398C15.9078 47.2821 14.6115 46.8494 13.597 45.7965C12.5825 44.758 12.1457 43.4599 12.1034 42.1041C11.2439 41.8445 10.3985 41.7003 9.63762 41.3397C8.15814 40.633 7.29863 39.3637 6.94637 37.7195C6.86183 37.3445 6.56593 36.9695 6.29822 36.681C0.760715 30.7819 -1.28238 23.8443 0.802986 15.9692C2.93063 7.90656 8.22859 2.80073 16.1755 0.88243C22.4316 -0.632013 28.2228 0.781467 33.3657 4.79114C33.7039 5.05076 34.028 5.3248 34.2393 5.49788C35.8738 4.4594 37.3392 3.30554 38.9878 2.52668C45.3566 -0.502204 51.7254 -0.415664 58.0097 2.88726C58.7988 3.30554 59.0806 4.05555 58.7565 4.76229C58.4184 5.49788 57.6293 5.7575 56.8121 5.3248C55.1071 4.43055 53.3458 3.75266 51.4577 3.4065C48.0056 2.7863 44.6662 3.17573 41.3972 4.4594C38.861 5.45461 36.7474 7.04117 34.8452 8.98831C31.999 11.9018 29.1527 14.8009 26.3065 17.7288C24.9256 19.1423 24.8552 21.0894 26.1092 22.3731C27.3069 23.6135 29.195 23.6135 30.5054 22.3443C31.7313 21.1471 32.9289 19.9067 34.1125 18.6519C34.648 18.0894 35.2257 17.8298 36.0147 17.8442C37.8465 17.8586 39.6782 17.8442 41.51 17.7721C43.2008 17.7 44.5676 16.8634 45.7511 15.6663C46.5261 14.873 47.287 14.0653 48.076 13.2864C48.6678 12.7095 49.2737 12.623 49.8373 12.998C50.6264 13.5028 50.7109 14.4692 49.9641 15.2192C48.4283 16.7625 47.0475 18.5221 45.0044 19.5894C45.2016 19.8058 45.3566 19.9933 45.5257 20.1663C49.2878 24.0174 53.064 27.8539 56.8121 31.7194C57.9393 32.8732 59.2356 33.8973 59.9119 35.4983C63.1386 32.4982 65.1958 28.9357 65.9285 24.5943C66.6189 20.4692 65.999 16.5461 64.0968 12.8393C63.5331 11.7287 63.6459 10.921 64.4208 10.5172C65.1958 10.0989 65.9003 10.4739 66.478 11.5701C67.7743 14.0653 68.5493 16.7192 68.7888 19.5317C68.7888 19.6615 68.8593 19.7913 68.8875 19.9211V22.9356H68.8452Z" fill="#202020"/>
<path d="M60.6449 7.37352C60.673 6.63793 61.3212 6.03216 62.0257 6.07543C62.7443 6.1187 63.322 6.79659 63.2798 7.50333C63.2375 8.23892 62.6034 8.81585 61.8848 8.787C61.1521 8.74373 60.6026 8.12353 60.6449 7.37352Z" fill="#202020"/>
<path d="M31.0267 38.4258C31.7453 38.4258 32.3512 39.0604 32.3371 39.796C32.3371 40.5172 31.689 41.1518 30.9845 41.1374C30.2799 41.1374 29.66 40.4739 29.6741 39.7671C29.6741 39.0316 30.294 38.4258 31.0267 38.4402" fill="#202020"/>
</g>
</g>
<defs>
<clipPath id="clip0_641_406">
<rect width="68.8454" height="58.4142" fill="white" transform="translate(0 0.292969)"/>
</clipPath>
</defs>
</svg>
