<svg width="30" height="30" viewBox="0 0 30 30" fill="none" xmlns="http://www.w3.org/2000/svg">
<path d="M0.5 29.5L2.58808 21.7399C1.41155 19.6148 0.786184 17.2361 0.786184 14.8256C0.786184 6.928 7.22003 0.5 15.1378 0.5C23.0556 0.5 29.5 6.928 29.5 14.8256C29.5 22.7231 23.0556 29.1511 15.1378 29.1511C12.7635 29.1511 10.4105 28.5485 8.31177 27.4172L0.5 29.5106L0.5 29.5ZM8.70395 24.4993L9.19152 24.7953C10.9934 25.8737 13.0497 26.434 15.1378 26.434C21.561 26.434 26.7865 21.2218 26.7865 14.815C26.7865 8.40813 21.561 3.20653 15.1378 3.20653C8.71455 3.20653 3.49963 8.4187 3.49963 14.8256C3.49963 16.94 4.0932 19.0228 5.20614 20.8518L5.50292 21.3487L4.33699 25.6834L8.70395 24.5204V24.4993Z" fill="#FFFFFC"/>
<path fill-rule="evenodd" clip-rule="evenodd" d="M20.4801 16.813C19.8866 16.4642 19.1234 16.0624 18.4238 16.3479C17.8939 16.5699 17.5441 17.4051 17.2049 17.828C17.0247 18.05 16.8127 18.0817 16.5477 17.976C14.5444 17.1831 13.0075 15.8404 11.9052 14.0008C11.7144 13.7153 11.7462 13.4933 11.9794 13.229C12.3186 12.8378 12.7319 12.3938 12.8273 11.8652C12.9227 11.3366 12.6684 10.7128 12.4458 10.2476C12.1702 9.64498 11.8522 8.78862 11.248 8.45031C10.6969 8.13314 9.9655 8.31287 9.46733 8.71462C8.60877 9.41239 8.1954 10.5013 8.2166 11.5692C8.2166 11.8758 8.25899 12.1824 8.33319 12.4784C8.50278 13.1867 8.83136 13.8528 9.20234 14.4871C9.47793 14.9629 9.78531 15.4281 10.1139 15.8721C11.1844 17.3205 12.52 18.5892 14.0675 19.5301C14.8412 20.0059 15.668 20.4182 16.5265 20.7037C17.4911 21.0209 18.3496 21.3486 19.399 21.1583C20.4907 20.9468 21.5719 20.2808 21.9958 19.2235C22.123 18.9169 22.1866 18.5681 22.1124 18.2403C21.964 17.5637 21.0419 17.1619 20.4907 16.8342L20.4801 16.813Z" fill="#FFFFFC"/>
</svg>
